<svg width="75" height="63" viewBox="0 0 75 63" fill="none" xmlns="http://www.w3.org/2000/svg">
<g clip-path="url(#clip0_214_38)">
<path d="M17.5469 55.125C16.1094 55.125 14.9094 54.7207 13.9469 53.9122C12.9823 53.102 12.5 52.0931 12.5 50.8856V17.3644C12.5 16.1569 12.9823 15.1489 13.9469 14.3404C14.9094 13.5301 16.1094 13.125 17.5469 13.125H23.0781V7.27124H26.4438V13.125H48.7969V7.27124H51.9219V13.125H57.4531C58.8906 13.125 60.0906 13.5301 61.0531 14.3404C62.0177 15.1489 62.5 16.1569 62.5 17.3644V50.8856C62.5 52.0931 62.0188 53.1011 61.0563 53.9096C60.0917 54.7199 58.8906 55.125 57.4531 55.125H17.5469ZM17.5469 52.5H57.4531C57.9323 52.5 58.3729 52.332 58.775 51.996C59.175 51.6582 59.375 51.2881 59.375 50.8856V27.8644H15.625V50.8856C15.625 51.2881 15.825 51.6582 16.225 51.996C16.6271 52.332 17.0677 52.5 17.5469 52.5ZM15.625 25.2394H59.375V17.3644C59.375 16.9619 59.175 16.5917 58.775 16.254C58.3729 15.918 57.9323 15.75 57.4531 15.75H17.5469C17.0677 15.75 16.6271 15.918 16.225 16.254C15.825 16.5917 15.625 16.9619 15.625 17.3644V25.2394ZM37.5 37.1542C36.8542 37.1542 36.2917 36.953 35.8125 36.5505C35.3333 36.148 35.0938 35.6755 35.0938 35.133C35.0938 34.5922 35.3333 34.1206 35.8125 33.7181C36.2917 33.3156 36.8542 33.1144 37.5 33.1144C38.1458 33.1144 38.7083 33.3156 39.1875 33.7181C39.6667 34.1206 39.9063 34.5931 39.9063 35.1356C39.9063 35.6781 39.6667 36.1497 39.1875 36.5505C38.7083 36.953 38.1458 37.1542 37.5 37.1542ZM25 37.1542C24.3542 37.1542 23.7917 36.953 23.3125 36.5505C22.8333 36.148 22.5938 35.6755 22.5938 35.133C22.5938 34.5922 22.8333 34.1206 23.3125 33.7181C23.7917 33.3156 24.3542 33.1144 25 33.1144C25.6458 33.1144 26.2083 33.3156 26.6875 33.7181C27.1667 34.1206 27.4063 34.5931 27.4063 35.1356C27.4063 35.6781 27.1667 36.1497 26.6875 36.5505C26.2083 36.953 25.6458 37.1542 25 37.1542ZM50 37.1542C49.3542 37.1542 48.7917 36.953 48.3125 36.5505C47.8333 36.148 47.5938 35.6755 47.5938 35.133C47.5938 34.5922 47.8333 34.1206 48.3125 33.7181C48.7917 33.3156 49.3542 33.1144 50 33.1144C50.6458 33.1144 51.2083 33.3156 51.6875 33.7181C52.1667 34.1206 52.4063 34.5931 52.4063 35.1356C52.4063 35.6781 52.1667 36.1497 51.6875 36.5505C51.2083 36.953 50.6458 37.1542 50 37.1542ZM37.5 47.25C36.8542 47.25 36.2917 47.0487 35.8125 46.6462C35.3333 46.2437 35.0938 45.7712 35.0938 45.2287C35.0938 44.688 35.3333 44.2164 35.8125 43.8139C36.2917 43.4114 36.8542 43.2101 37.5 43.2101C38.1458 43.2101 38.7083 43.4114 39.1875 43.8139C39.6667 44.2164 39.9063 44.6889 39.9063 45.2314C39.9063 45.7739 39.6667 46.2464 39.1875 46.6489C38.7083 47.0496 38.1458 47.25 37.5 47.25ZM25 47.25C24.3542 47.25 23.7917 47.0487 23.3125 46.6462C22.8333 46.2437 22.5938 45.7712 22.5938 45.2287C22.5938 44.688 22.8333 44.2164 23.3125 43.8139C23.7917 43.4114 24.3542 43.2101 25 43.2101C25.6458 43.2101 26.2083 43.4114 26.6875 43.8139C27.1667 44.2164 27.4063 44.6889 27.4063 45.2314C27.4063 45.7739 27.1667 46.2464 26.6875 46.6489C26.2083 47.0496 25.6458 47.25 25 47.25ZM50 47.25C49.3542 47.25 48.7917 47.0487 48.3125 46.6462C47.8333 46.2437 47.5938 45.7712 47.5938 45.2287C47.5938 44.688 47.8333 44.2164 48.3125 43.8139C48.7917 43.4114 49.3542 43.2101 50 43.2101C50.6458 43.2101 51.2083 43.4114 51.6875 43.8139C52.1667 44.2164 52.4063 44.6889 52.4063 45.2314C52.4063 45.7739 52.1667 46.2464 51.6875 46.6489C51.2083 47.0496 50.6458 47.25 50 47.25Z" fill="#075607"/>
</g>
<defs>
<clipPath id="clip0_214_38">
<rect width="75" height="63" fill="white"/>
</clipPath>
</defs>
</svg>
