<svg width="66" height="57" viewBox="0 0 66 57" fill="none" xmlns="http://www.w3.org/2000/svg">
<path d="M13.75 34.637H15.8125C15.8123 34.2906 15.6951 33.9517 15.4753 33.6619C15.2555 33.3721 14.9426 33.1439 14.575 33.0054L13.75 34.637ZM52.25 34.637L51.425 33.0054C51.0574 33.1439 50.7445 33.3721 50.5247 33.6619C50.3049 33.9517 50.1877 34.2906 50.1875 34.637H52.25ZM43.3125 16.625C43.3125 17.0974 43.5298 17.5505 43.9166 17.8845C44.3034 18.2186 44.828 18.4062 45.375 18.4062C45.922 18.4062 46.4466 18.2186 46.8334 17.8845C47.2202 17.5505 47.4375 17.0974 47.4375 16.625H43.3125ZM18.5625 16.625C18.5625 17.0974 18.7798 17.5505 19.1666 17.8845C19.5534 18.2186 20.078 18.4062 20.625 18.4062C21.172 18.4062 21.6966 18.2186 22.0834 17.8845C22.4702 17.5505 22.6875 17.0974 22.6875 16.625H18.5625ZM19.25 10.0938C15.0563 10.0938 11.0343 11.5325 8.06887 14.0936C5.10345 16.6546 3.4375 20.1281 3.4375 23.75H7.5625C7.5625 21.073 8.79386 18.5056 10.9857 16.6126C13.1775 14.7197 16.1503 13.6563 19.25 13.6562V10.0938ZM46.75 13.6562C49.8497 13.6562 52.8225 14.7197 55.0143 16.6126C57.2061 18.5056 58.4375 21.073 58.4375 23.75H62.5625C62.5625 20.1281 60.8965 16.6546 57.9311 14.0936C54.9657 11.5325 50.9437 10.0938 46.75 10.0938V13.6562ZM41.25 50.4688H24.75V54.0312H41.25V50.4688ZM24.75 50.4688C22.099 50.4688 20.317 50.464 18.9888 50.3096C17.721 50.1624 17.1765 49.9082 16.819 49.5971L13.904 52.1194C15.1553 53.2 16.7145 53.6394 18.4415 53.8413C20.108 54.036 22.2145 54.0312 24.75 54.0312V50.4688ZM11.6875 42.75C11.6875 44.9397 11.682 46.759 11.9075 48.1983C12.1385 49.6898 12.65 51.0364 13.9012 52.117L16.819 49.5995C16.4615 49.2908 16.1672 48.8205 15.994 47.7232C15.818 46.5785 15.8125 45.0395 15.8125 42.75H11.6875ZM50.1875 42.75C50.1875 45.0395 50.182 46.5785 50.0033 47.7256C49.8328 48.8205 49.5385 49.2908 49.1782 49.5995L52.0987 52.117C53.35 51.0364 53.8588 49.6898 54.0925 48.1983C54.318 46.759 54.3125 44.9397 54.3125 42.75H50.1875ZM41.25 54.0312C43.7855 54.0312 45.892 54.036 47.5585 53.8413C49.2855 53.6418 50.8475 53.2 52.0987 52.117L49.181 49.5995C48.8235 49.9083 48.279 50.1624 47.0085 50.312C45.683 50.464 43.901 50.4688 41.25 50.4688V54.0312ZM19.25 13.6562C19.8385 13.6562 20.4132 13.6943 20.977 13.7655L21.5793 10.241C20.8081 10.1428 20.0295 10.0935 19.25 10.0938V13.6562ZM33 2.96875C29.9826 2.96875 27.041 3.78491 24.5882 5.30263C22.1354 6.82034 20.2946 8.96339 19.3242 11.4309L23.2292 12.5756C23.9227 10.8129 25.238 9.28205 26.9904 8.19797C28.7428 7.11388 30.8444 6.53103 33 6.53125V2.96875ZM19.3242 11.4309C18.8183 12.7215 18.561 14.075 18.5625 15.4375H22.6875C22.6875 14.4329 22.88 13.471 23.232 12.5756L19.3242 11.4309ZM46.75 10.0938C45.9607 10.0938 45.1825 10.1436 44.4207 10.241L45.0257 13.7655C45.5966 13.6927 46.1729 13.6562 46.75 13.6562V10.0938ZM33 6.53125C35.1551 6.53153 37.2561 7.11461 39.008 8.19866C40.7598 9.28271 42.0747 10.8133 42.768 12.5756L46.673 11.4309C45.7028 8.96378 43.8624 6.821 41.4101 5.30332C38.9579 3.78564 36.0169 2.96925 33 2.96875V6.53125ZM42.768 12.5756C43.12 13.471 43.3125 14.4329 43.3125 15.4375H47.4375C47.4375 14.0386 47.168 12.692 46.673 11.4309L42.768 12.5756ZM15.8125 42.75V34.637H11.6875V42.75H15.8125ZM14.575 33.0054C12.4902 32.2192 10.7162 30.9248 9.47062 29.2808C8.22502 27.6368 7.56188 25.7147 7.5625 23.75H3.4375C3.43729 26.4075 4.33478 29.0074 6.01998 31.231C7.70518 33.4546 10.1049 35.2053 12.925 36.2686L14.575 33.0054ZM50.1875 34.637V42.75H54.3125V34.637H50.1875ZM58.4375 23.75C58.4381 25.7147 57.775 27.6368 56.5294 29.2808C55.2838 30.9248 53.5098 32.2192 51.425 33.0054L53.075 36.2686C55.8951 35.2053 58.2948 33.4546 59.98 31.231C61.6652 29.0074 62.5627 26.4075 62.5625 23.75H58.4375ZM43.3125 15.4375V16.625H47.4375V15.4375H43.3125ZM18.5625 15.4375V16.625H22.6875V15.4375H18.5625Z" fill="#075607"/>
<path d="M13.75 42.75H52.25Z" fill="#075607"/>
<path d="M13.75 42.75H52.25" stroke="#075607" stroke-width="1.5" stroke-linecap="round" stroke-linejoin="round"/>
</svg>
