<svg width="67" height="56" viewBox="0 0 67 56" fill="none" xmlns="http://www.w3.org/2000/svg">
<path fill-rule="evenodd" clip-rule="evenodd" d="M33.4999 3.26667C29.595 3.26233 25.8197 4.43766 22.8696 6.57613C19.9196 8.7146 17.9936 11.6721 17.4464 14.9038C16.8993 18.1354 17.7679 21.4235 19.8922 24.1621C22.0165 26.9008 25.2534 28.9055 29.0065 29.8069C23.6733 30.3483 19.0994 31.9237 15.6511 34.7648C11.2649 38.3749 9.04492 43.7547 9.04492 50.7733C9.04492 51.2437 9.26845 51.6947 9.66634 52.0273C10.0642 52.3598 10.6039 52.5467 11.1666 52.5467C11.7293 52.5467 12.2689 52.3598 12.6668 52.0273C13.0647 51.6947 13.2883 51.2437 13.2883 50.7733C13.2883 44.352 15.3117 40.0213 18.6304 37.2885C21.9536 34.552 26.9205 33.1333 33.4999 33.1333C40.0793 33.1333 45.0463 34.552 48.3739 37.2885C51.6882 40.0251 53.7116 44.352 53.7116 50.7733C53.7116 51.2437 53.9351 51.6947 54.333 52.0273C54.7309 52.3598 55.2706 52.5467 55.8333 52.5467C56.396 52.5467 56.9356 52.3598 57.3335 52.0273C57.7314 51.6947 57.9549 51.2437 57.9549 50.7733C57.9549 43.7547 55.735 38.3787 51.3443 34.7648C47.9049 31.9275 43.3266 30.3483 37.9934 29.8069C41.7339 28.8954 44.9561 26.8876 47.0694 24.1516C49.1826 21.4156 50.0453 18.1346 49.4994 14.9102C48.9535 11.6857 47.0355 8.73365 44.0969 6.59516C41.1584 4.45667 37.3962 3.27498 33.4999 3.26667ZM21.5516 16.8C21.5516 14.1514 22.8104 11.6112 25.0512 9.73837C27.2919 7.8655 30.331 6.81334 33.4999 6.81334C36.6688 6.81334 39.7079 7.8655 41.9487 9.73837C44.1894 11.6112 45.4483 14.1514 45.4483 16.8C45.4483 19.4486 44.1894 21.9888 41.9487 23.8616C39.7079 25.7345 36.6688 26.7867 33.4999 26.7867C30.331 26.7867 27.2919 25.7345 25.0512 23.8616C22.8104 21.9888 21.5516 19.4486 21.5516 16.8Z" fill="#075607"/>
</svg>
