<svg width="60" height="60" viewBox="0 0 60 60" fill="none" xmlns="http://www.w3.org/2000/svg">
<path d="M30 56.25C15.525 56.25 3.75 44.475 3.75 30C3.75 15.525 15.525 3.75 30 3.75C44.475 3.75 56.25 15.525 56.25 30C56.25 44.475 44.475 56.25 30 56.25ZM30 7.5C17.5875 7.5 7.5 17.5875 7.5 30C7.5 42.4125 17.5875 52.5 30 52.5C42.4125 52.5 52.5 42.4125 52.5 30C52.5 17.5875 42.4125 7.5 30 7.5Z" fill="#075607"/>
<path d="M37.5001 39.375C37.1626 39.375 36.8251 39.3 36.5251 39.1125L27.1501 33.4875C26.8724 33.3206 26.6433 33.084 26.4854 32.8011C26.3275 32.5182 26.2464 32.1989 26.2501 31.875V16.875C26.2501 15.825 27.0751 15 28.1251 15C29.1751 15 30.0001 15.825 30.0001 16.875V30.825L38.4751 35.8875C38.8242 36.1014 39.094 36.4234 39.2437 36.8045C39.3933 37.1856 39.4146 37.6051 39.3044 37.9994C39.1941 38.3937 38.9584 38.7413 38.6328 38.9895C38.3072 39.2378 37.9095 39.3731 37.5001 39.375Z" fill="#075607"/>
</svg>
