<svg width="585" height="206" viewBox="0 0 585 206" fill="none" xmlns="http://www.w3.org/2000/svg">
<rect width="585" height="205" rx="93" fill="#B1421B"/>
<path d="M250.686 95.0493C250.656 95.3423 250.532 95.5913 250.312 95.7964C250.092 95.9868 249.836 96.082 249.543 96.082C249.191 96.082 248.906 95.9575 248.686 95.7085C248.481 95.4448 248.378 95.1738 248.378 94.8955V94.8076L249.147 86.8975C247.155 87.1025 245.163 87.271 243.171 87.4028C241.193 87.5347 239.208 87.6226 237.216 87.6665L237.041 101.707C238.242 101.707 239.377 101.648 240.446 101.531C241.516 101.399 242.556 101.246 243.566 101.07C243.625 101.041 243.698 101.026 243.786 101.026C244.064 101.026 244.306 101.114 244.511 101.29C244.731 101.465 244.863 101.692 244.907 101.971C244.907 102.352 244.819 102.659 244.643 102.894C244.467 103.128 244.24 103.267 243.962 103.311C242.629 103.56 241.406 103.736 240.292 103.838C239.179 103.941 238.081 103.992 236.997 103.992L236.909 114.429C237.539 114.458 238.198 114.488 238.886 114.517C239.575 114.546 240.292 114.598 241.04 114.671C241.376 114.7 241.633 114.847 241.809 115.11C241.984 115.359 242.072 115.63 242.072 115.923C242.043 116.216 241.918 116.465 241.699 116.67C241.494 116.861 241.245 116.956 240.952 116.956H240.864C239.736 116.868 238.688 116.802 237.722 116.758C236.77 116.714 235.839 116.692 234.931 116.692C234.228 116.692 233.525 116.707 232.822 116.736C232.133 116.766 231.423 116.81 230.69 116.868C229.973 116.927 229.226 117 228.449 117.088C227.673 117.176 226.86 117.278 226.01 117.396H225.878C225.542 117.396 225.263 117.278 225.043 117.044C224.824 116.824 224.714 116.553 224.714 116.231C224.714 115.967 224.802 115.726 224.978 115.506C225.168 115.286 225.41 115.154 225.703 115.11C226.904 114.935 228.061 114.803 229.174 114.715L229.482 87.6665C228.94 87.6372 228.398 87.6152 227.856 87.6006C227.314 87.5859 226.757 87.564 226.186 87.5347C225.893 87.5054 225.637 87.3809 225.417 87.1611C225.212 86.9414 225.109 86.6704 225.109 86.3481C225.109 86.0405 225.227 85.7769 225.461 85.5571C225.695 85.3374 225.974 85.2275 226.296 85.2275H226.34C227.556 85.3008 228.771 85.3521 229.987 85.3813C231.218 85.396 232.441 85.4033 233.657 85.4033C235.415 85.4033 237.048 85.3813 238.557 85.3374C240.065 85.2935 241.486 85.2275 242.819 85.1396C244.167 85.0518 245.456 84.9492 246.687 84.832C247.917 84.7002 249.125 84.561 250.312 84.4146H250.444C250.781 84.4146 251.052 84.5317 251.257 84.7661C251.462 84.9858 251.564 85.2422 251.564 85.5352V85.689L250.686 95.0493ZM272.856 105.442C272.314 103.787 271.743 102.264 271.142 100.872C270.542 99.4658 269.948 98.2061 269.362 97.0928C268.791 95.9648 268.242 94.9834 267.714 94.1484C267.202 93.2988 266.762 92.603 266.396 92.061C265.034 94.3755 263.811 96.6387 262.727 98.8506C261.657 101.048 260.705 103.245 259.87 105.442C261.042 105.574 262.17 105.684 263.254 105.772C264.338 105.845 265.415 105.882 266.484 105.882C267.539 105.882 268.586 105.845 269.626 105.772C270.681 105.684 271.757 105.574 272.856 105.442ZM287.841 117.505C287.812 117.505 287.783 117.498 287.753 117.483C287.724 117.483 287.695 117.469 287.666 117.439C286.333 117.234 285.014 117.088 283.71 117C282.421 116.912 281.132 116.868 279.843 116.868C278.569 116.868 277.309 116.912 276.064 117C274.833 117.088 273.603 117.234 272.373 117.439C272.343 117.469 272.314 117.483 272.285 117.483C272.255 117.498 272.226 117.505 272.197 117.505C271.875 117.505 271.596 117.381 271.362 117.132C271.142 116.883 271.032 116.612 271.032 116.319C271.032 116.055 271.12 115.813 271.296 115.594C271.486 115.374 271.728 115.242 272.021 115.198C272.607 115.081 273.2 114.993 273.801 114.935C274.401 114.861 275.017 114.788 275.646 114.715C275.573 114.437 275.485 114.092 275.383 113.682C275.28 113.257 275.141 112.759 274.965 112.188C274.804 111.617 274.606 110.958 274.372 110.21C274.152 109.449 273.889 108.592 273.581 107.64C272.336 107.815 271.135 107.955 269.978 108.057C268.82 108.145 267.656 108.189 266.484 108.189C265.297 108.189 264.096 108.145 262.88 108.057C261.665 107.955 260.39 107.815 259.057 107.64C258.281 109.954 257.651 112.247 257.167 114.517C258.076 114.546 258.984 114.62 259.892 114.737C260.815 114.839 261.752 114.993 262.705 115.198C262.968 115.242 263.181 115.374 263.342 115.594C263.518 115.813 263.605 116.055 263.605 116.319C263.605 116.656 263.474 116.934 263.21 117.154C262.961 117.388 262.697 117.505 262.419 117.505C262.375 117.505 262.338 117.491 262.309 117.461C262.28 117.447 262.243 117.439 262.199 117.439C261.232 117.234 260.28 117.081 259.343 116.978C258.42 116.875 257.497 116.824 256.574 116.824C255.666 116.824 254.772 116.875 253.894 116.978C253.015 117.081 252.121 117.234 251.213 117.439C251.169 117.439 251.132 117.447 251.103 117.461C251.074 117.491 251.037 117.505 250.993 117.505C250.656 117.505 250.378 117.388 250.158 117.154C249.938 116.919 249.829 116.641 249.829 116.319C249.829 116.055 249.909 115.821 250.07 115.616C250.231 115.411 250.451 115.271 250.729 115.198C251.389 115.037 252.048 114.913 252.707 114.825C253.381 114.737 254.069 114.664 254.772 114.605C255.271 112.188 255.922 109.771 256.728 107.354C257.534 104.937 258.493 102.498 259.606 100.037C260.734 97.5615 262.023 95.0493 263.474 92.5005C264.924 89.9517 266.557 87.3296 268.374 84.6343C268.505 84.4585 268.652 84.334 268.813 84.2607C268.989 84.1875 269.157 84.1509 269.318 84.1509C269.494 84.1509 269.663 84.1875 269.824 84.2607C269.985 84.3193 270.117 84.4146 270.219 84.5464C273.295 88.4722 275.932 92.9253 278.129 97.9058C280.341 102.872 282.158 108.46 283.579 114.671C285.073 114.803 286.56 114.979 288.039 115.198C288.332 115.242 288.566 115.374 288.742 115.594C288.933 115.813 289.028 116.055 289.028 116.319C289.028 116.641 288.896 116.919 288.632 117.154C288.383 117.388 288.12 117.505 287.841 117.505ZM314.692 116.363C314.648 116.656 314.516 116.883 314.296 117.044C314.077 117.22 313.828 117.308 313.549 117.308H313.417C312.817 117.249 312.099 117.198 311.264 117.154C310.429 117.11 309.514 117.073 308.518 117.044C307.536 117.015 306.489 116.993 305.375 116.978C304.277 116.963 303.164 116.956 302.036 116.956C300.908 116.956 299.794 116.963 298.696 116.978C297.597 116.993 296.557 117.015 295.576 117.044C294.609 117.073 293.708 117.11 292.873 117.154C292.053 117.198 291.357 117.249 290.786 117.308H290.698C290.405 117.308 290.148 117.212 289.929 117.022C289.709 116.832 289.577 116.553 289.533 116.187C289.533 115.894 289.628 115.638 289.819 115.418C290.024 115.198 290.273 115.066 290.566 115.022C290.991 114.979 291.474 114.942 292.016 114.913C292.573 114.883 293.181 114.847 293.84 114.803L294.345 87.0293C293.085 86.9414 291.811 86.8096 290.522 86.6338C290.229 86.5898 289.987 86.458 289.797 86.2383C289.621 86.0186 289.533 85.7695 289.533 85.4912C289.577 85.1104 289.709 84.8247 289.929 84.6343C290.148 84.4292 290.405 84.3267 290.698 84.3267H290.83C292.368 84.561 293.891 84.7295 295.4 84.832C296.923 84.9199 298.432 84.9639 299.926 84.9639C300.834 84.9639 301.728 84.9492 302.607 84.9199C303.486 84.8906 304.365 84.832 305.244 84.7441H305.332C305.668 84.7441 305.947 84.8613 306.167 85.0957C306.386 85.3154 306.496 85.5864 306.496 85.9087C306.496 86.2017 306.394 86.458 306.188 86.6777C305.983 86.8828 305.727 87 305.419 87.0293C304.877 87.0732 304.328 87.1172 303.771 87.1611C303.229 87.1904 302.68 87.2197 302.124 87.249L301.398 114.671H302.036C303.032 114.671 304.021 114.678 305.002 114.693C305.983 114.708 306.928 114.729 307.836 114.759C308.759 114.773 309.624 114.795 310.429 114.825C311.235 114.854 311.96 114.891 312.604 114.935L314.23 105.75C314.274 105.457 314.406 105.223 314.626 105.047C314.846 104.856 315.087 104.761 315.351 104.761C315.673 104.761 315.952 104.886 316.186 105.135C316.42 105.369 316.538 105.633 316.538 105.926C316.538 105.97 316.53 106.006 316.516 106.036C316.501 106.065 316.494 106.102 316.494 106.146L314.692 116.363ZM344.179 116.363C344.135 116.656 344.003 116.883 343.784 117.044C343.564 117.22 343.315 117.308 343.037 117.308H342.905C342.304 117.249 341.586 117.198 340.751 117.154C339.917 117.11 339.001 117.073 338.005 117.044C337.023 117.015 335.976 116.993 334.863 116.978C333.764 116.963 332.651 116.956 331.523 116.956C330.395 116.956 329.282 116.963 328.183 116.978C327.084 116.993 326.044 117.015 325.063 117.044C324.096 117.073 323.195 117.11 322.36 117.154C321.54 117.198 320.844 117.249 320.273 117.308H320.185C319.892 117.308 319.636 117.212 319.416 117.022C319.196 116.832 319.064 116.553 319.021 116.187C319.021 115.894 319.116 115.638 319.306 115.418C319.511 115.198 319.76 115.066 320.053 115.022C320.478 114.979 320.961 114.942 321.503 114.913C322.06 114.883 322.668 114.847 323.327 114.803L323.833 87.0293C322.573 86.9414 321.298 86.8096 320.009 86.6338C319.716 86.5898 319.475 86.458 319.284 86.2383C319.108 86.0186 319.021 85.7695 319.021 85.4912C319.064 85.1104 319.196 84.8247 319.416 84.6343C319.636 84.4292 319.892 84.3267 320.185 84.3267H320.317C321.855 84.561 323.378 84.7295 324.887 84.832C326.411 84.9199 327.919 84.9639 329.414 84.9639C330.322 84.9639 331.215 84.9492 332.094 84.9199C332.973 84.8906 333.852 84.832 334.731 84.7441H334.819C335.156 84.7441 335.434 84.8613 335.654 85.0957C335.874 85.3154 335.983 85.5864 335.983 85.9087C335.983 86.2017 335.881 86.458 335.676 86.6777C335.471 86.8828 335.214 87 334.907 87.0293C334.365 87.0732 333.815 87.1172 333.259 87.1611C332.717 87.1904 332.167 87.2197 331.611 87.249L330.886 114.671H331.523C332.519 114.671 333.508 114.678 334.489 114.693C335.471 114.708 336.416 114.729 337.324 114.759C338.247 114.773 339.111 114.795 339.917 114.825C340.722 114.854 341.447 114.891 342.092 114.935L343.718 105.75C343.762 105.457 343.894 105.223 344.113 105.047C344.333 104.856 344.575 104.761 344.838 104.761C345.161 104.761 345.439 104.886 345.673 105.135C345.908 105.369 346.025 105.633 346.025 105.926C346.025 105.97 346.018 106.006 346.003 106.036C345.988 106.065 345.981 106.102 345.981 106.146L344.179 116.363Z" fill="#FFF7F6"/>
<path d="M172.348 105.185C171.868 104.96 171.489 104.564 171.286 104.074C168.373 97.1203 163.47 91.1821 157.193 87.0058C150.916 82.8295 143.545 80.6014 136.005 80.6014C128.466 80.6014 121.095 82.8295 114.818 87.0058C108.541 91.1821 103.638 97.1203 100.725 104.074C100.522 104.564 100.143 104.96 99.6626 105.185C93.4099 108.075 88.1102 112.687 84.3844 118.481C80.6585 124.275 78.6608 131.011 78.6251 137.899C78.572 157.375 94.3608 173.62 113.82 174.114C120.899 174.301 127.875 172.396 133.875 168.637V193.25C133.875 193.814 134.099 194.354 134.498 194.753C134.896 195.151 135.437 195.375 136 195.375C136.564 195.375 137.104 195.151 137.503 194.753C137.901 194.354 138.125 193.814 138.125 193.25V168.637C143.854 172.235 150.485 174.137 157.25 174.125H158.185C177.64 173.631 193.428 157.385 193.375 137.91C193.342 131.021 191.347 124.284 187.623 118.488C183.899 112.692 178.601 108.077 172.348 105.185ZM158.074 169.875C151.494 170.06 145.021 168.184 139.56 164.509C139.112 164.213 138.631 163.972 138.125 163.792V139.312L162.451 127.152C162.955 126.9 163.339 126.457 163.517 125.922C163.696 125.387 163.654 124.803 163.402 124.299C163.15 123.795 162.708 123.411 162.173 123.233C161.638 123.054 161.054 123.096 160.549 123.348L138.125 134.563V116.75C138.125 116.186 137.901 115.646 137.503 115.247C137.104 114.849 136.564 114.625 136 114.625C135.437 114.625 134.896 114.849 134.498 115.247C134.099 115.646 133.875 116.186 133.875 116.75V147.313L111.451 136.098C110.947 135.846 110.363 135.804 109.828 135.983C109.293 136.161 108.85 136.545 108.598 137.049C108.346 137.553 108.305 138.137 108.483 138.672C108.661 139.207 109.045 139.65 109.549 139.902L133.875 152.062V163.792C133.37 163.972 132.888 164.213 132.441 164.509C126.981 168.186 120.507 170.063 113.927 169.875C106.726 169.694 99.7998 167.079 94.2757 162.457C88.7516 157.835 84.9557 151.479 83.5066 144.423C82.0574 137.368 83.0405 130.03 86.2956 123.605C89.5507 117.18 94.8859 112.046 101.432 109.042C102.873 108.374 104.011 107.189 104.619 105.721C107.207 99.537 111.565 94.2557 117.146 90.5413C122.726 86.8269 129.28 84.8451 135.984 84.8451C142.688 84.8451 149.242 86.8269 154.823 90.5413C160.403 94.2557 164.762 99.537 167.349 105.721C167.958 107.189 169.095 108.374 170.537 109.042C177.08 112.045 182.415 117.176 185.67 123.598C188.926 130.02 189.912 137.355 188.467 144.408C187.022 151.462 183.231 157.819 177.712 162.443C172.193 167.067 165.271 169.687 158.074 169.875Z" fill="white"/>
<path d="M86.7614 194.993C86.7761 195.077 86.8211 195.153 86.8879 195.206C86.9548 195.259 87.0388 195.285 87.124 195.281C93.6227 194.918 98.5568 192.403 100.324 188.553C101.532 185.911 101.118 182.996 99.1531 180.315L100.809 178.229C100.866 178.156 100.893 178.064 100.882 177.972C100.872 177.881 100.825 177.797 100.753 177.739C100.68 177.682 100.588 177.656 100.496 177.666C100.404 177.677 100.321 177.723 100.263 177.796L98.6074 179.882C97.0047 179.198 95.432 178.942 93.9763 179.11C92.6417 179.262 91.3753 179.781 90.3181 180.61C86.9698 183.205 85.6397 188.582 86.7614 194.993ZM90.7477 181.16C92.7892 179.578 95.4067 179.332 98.1573 180.449L91.0761 189.369C91.0186 189.441 90.9923 189.534 91.0028 189.626C91.0134 189.717 91.06 189.801 91.1324 189.859C91.2048 189.916 91.297 189.942 91.3888 189.932C91.4806 189.921 91.5645 189.875 91.6219 189.802L98.7021 180.882C100.415 183.307 100.77 185.912 99.6913 188.26C98.0613 191.813 93.4778 194.16 87.3951 194.567C86.4108 188.55 87.6567 183.554 90.7477 181.16Z" fill="white"/>
<path d="M193.161 190.68C193.244 190.663 193.319 190.616 193.37 190.548C193.421 190.479 193.445 190.395 193.438 190.31C192.898 183.823 190.248 178.96 186.351 177.299C183.677 176.165 180.774 176.659 178.148 178.696L176.017 177.098C175.943 177.043 175.85 177.019 175.759 177.032C175.667 177.045 175.585 177.094 175.529 177.168C175.474 177.242 175.45 177.335 175.463 177.426C175.476 177.518 175.525 177.6 175.599 177.656L177.73 179.254C177.09 180.874 176.878 182.454 177.085 183.904C177.274 185.234 177.828 186.486 178.686 187.52C181.372 190.795 186.783 191.977 193.161 190.68ZM179.224 187.075C177.586 185.078 177.268 182.468 178.31 179.688L187.42 186.521C187.494 186.577 187.587 186.601 187.679 186.588C187.77 186.574 187.853 186.526 187.908 186.452C187.964 186.378 187.987 186.285 187.974 186.193C187.961 186.102 187.912 186.019 187.839 185.964L178.727 179.131C181.104 177.353 183.698 176.926 186.075 177.94C189.672 179.472 192.144 183.989 192.717 190.058C186.73 191.207 181.701 190.099 179.224 187.075Z" fill="white"/>
<path d="M239.627 178.395C239.638 178.31 239.618 178.225 239.57 178.154C239.522 178.083 239.45 178.033 239.368 178.012C233.069 176.406 227.614 177.32 224.774 180.456C222.831 182.61 222.35 185.511 223.416 188.655L221.213 190.144C221.136 190.196 221.084 190.276 221.066 190.367C221.049 190.457 221.068 190.551 221.119 190.628C221.171 190.704 221.251 190.757 221.342 190.774C221.432 190.792 221.526 190.773 221.603 190.721L223.806 189.231C225.127 190.364 226.549 191.079 227.985 191.357C229.302 191.613 230.664 191.498 231.92 191.026C235.889 189.56 238.77 184.838 239.627 178.395ZM231.676 190.374C229.257 191.267 226.69 190.716 224.405 188.826L233.828 182.456C233.905 182.404 233.958 182.324 233.975 182.234C233.993 182.143 233.973 182.049 233.922 181.973C233.87 181.896 233.79 181.843 233.7 181.826C233.609 181.808 233.515 181.828 233.439 181.879L224.016 188.25C223.113 185.426 223.557 182.838 225.289 180.926C227.909 178.03 232.979 177.171 238.895 178.61C238.026 184.636 235.339 189.022 231.676 190.374Z" fill="white"/>
</svg>
