<svg width="146" height="135" viewBox="0 0 146 135" fill="none" xmlns="http://www.w3.org/2000/svg">
<g clip-path="url(#clip0_152_19)">
<path d="M84.2038 34.8833C83.5159 34.5487 82.8777 34.4181 82.281 34.5609C78.7668 35.3935 79.7614 45.1599 79.4796 58.3259C79.2061 71.1614 79.9147 83.9968 79.952 96.8323C80.4576 97.1874 80.9342 97.5873 81.4232 98.0036C82.6747 99.0647 84.1665 99.8728 85.4139 100.934C87.3947 102.619 89.1891 104.725 90.2251 107.035C90.4738 106.856 90.6976 106.66 90.8757 106.44C91.9035 105.178 90.9379 104.028 91.7667 101.722C92.7157 99.0688 95.0529 97.62 95.5337 97.2486C103.051 91.4369 96.0475 40.6379 84.2038 34.8833Z" stroke="#075607" stroke-width="2" stroke-miterlimit="10"/>
<path d="M74.0052 64.6151C73.682 60.689 73.7897 56.3547 74.0052 47.6862C74.1917 40.2053 74.66 36.1526 72.3642 34.8752C72.2689 34.8221 71.1831 34.2385 70.2507 34.6466C68.5682 35.3813 68.734 38.7483 68.7671 42.4255C68.8252 48.8656 68.9205 58.8769 66.6578 59.4238C66.2476 59.5217 65.8704 59.2809 65.5058 59.0483C63.9891 58.077 63.8274 55.8282 63.9683 50.9307C64.0554 47.8494 64.1134 44.7722 64.2253 41.6908C64.3247 38.9034 64.4159 36.5403 62.9448 35.5731C62.7251 35.4262 62.1242 35.0344 61.5358 35.1976C60.9639 35.3609 59.6751 36.2587 59.7414 47.8086C59.7787 54.1753 60.1972 57.9668 58.3324 58.7953C58.2122 58.8483 57.6652 59.0932 57.1099 58.8932C55.212 58.2076 55.9206 53.3223 55.5145 44.1886C55.241 38.03 54.7022 35.4139 53.2767 35.0017C52.6717 34.8262 52.0998 35.1037 51.8967 35.2017C49.4807 36.373 49.7625 40.8379 49.6009 49.0575C49.4932 54.6039 49.2155 60.6726 49.1326 62.3255C48.6892 70.9859 48.1961 72.949 49.8371 75.1365C52.3443 78.479 55.8046 76.9853 57.8144 80.1687C59.4389 82.7398 58.3987 85.6375 57.8683 88.1434C59.4265 88.2781 60.968 88.5556 62.5096 88.9107C63.7901 89.2045 65.166 89.5351 66.3221 90.2003C66.3221 87.6659 64.88 84.1805 66.7283 80.4013C68.5226 76.7364 71.8503 77.5526 73.7649 73.7652C74.9998 71.3246 74.4113 69.6187 74.0011 64.6151H74.0052Z" stroke="#075607" stroke-width="2" stroke-miterlimit="10"/>
<path d="M92.5664 21.0031C100.971 30.2144 107.696 41.2582 111.48 53.5713C118.206 75.6548 115.263 99.0117 103.913 119.397C102.653 121.52 100.971 123.646 100.129 125.768C99.288 127.466 97.6056 128.315 96.8804 130.074" stroke="#075607" stroke-width="2" stroke-miterlimit="10"/>
<path d="M118.766 37.8055C123.399 49.1146 125.359 61.4971 124.571 73.655C123.581 88.9433 118.161 103.746 109.172 116.255C105.575 121.259 101.443 125.895 96.8809 130.074" stroke="#075607" stroke-width="2" stroke-miterlimit="10"/>
<path d="M138.151 75.5365C137.053 87.5884 132.557 99.1913 125.334 108.811C118.334 118.136 108.886 125.523 98.1902 129.947C86.906 134.612 74.3454 135.902 62.4313 133.18C52.2162 130.849 42.6932 125.813 34.5045 119.242C28.5661 114.476 23.6679 108.978 19.7932 102.318C18.9271 100.828 18.119 99.2974 17.373 97.7384" stroke="#075607" stroke-width="2" stroke-miterlimit="10"/>
<path d="M92.6084 20.8382C94.1062 19.2519 93.2294 16.0511 90.65 13.6888C88.0706 11.3266 84.7654 10.6975 83.2676 12.2837C81.7698 13.87 82.6467 17.0709 85.2261 19.4331C87.8055 21.7954 91.1107 22.4244 92.6084 20.8382Z" stroke="#075607" stroke-width="2" stroke-miterlimit="10"/>
<path d="M106.895 25.2063C107.578 21.8561 106.356 18.7892 104.166 18.3562C101.976 17.9233 99.6468 20.2882 98.9639 23.6385C98.2811 26.9887 99.5029 30.0556 101.693 30.4885C103.883 30.9215 106.212 28.5565 106.895 25.2063Z" stroke="#075607" stroke-width="2" stroke-miterlimit="10"/>
<path d="M107.802 48.7022C109.3 47.1159 108.423 43.915 105.843 41.5528C103.264 39.1905 99.9587 38.5615 98.461 40.1477C96.9632 41.7339 97.84 44.9348 100.419 47.2971C102.999 49.6593 106.304 50.2884 107.802 48.7022Z" stroke="#075607" stroke-width="2" stroke-miterlimit="10"/>
<path d="M113.615 72.7552C115.113 71.1689 114.236 67.968 111.657 65.6058C109.077 63.2436 105.772 62.6145 104.274 64.2007C102.777 65.787 103.654 68.9879 106.233 71.3501C108.812 73.7123 112.118 74.3414 113.615 72.7552Z" stroke="#075607" stroke-width="2" stroke-miterlimit="10"/>
<path d="M111.899 92.7263C113.937 91.8434 114.454 88.5836 113.052 85.4453C111.651 82.3071 108.862 80.4788 106.824 81.3617C104.785 82.2447 104.269 85.5045 105.67 88.6427C107.072 91.7809 109.86 93.6092 111.899 92.7263Z" stroke="#075607" stroke-width="2" stroke-miterlimit="10"/>
<path d="M122.371 63.1115C124.409 62.2285 124.925 58.9687 123.524 55.8305C122.123 52.6923 119.334 50.864 117.295 51.7469C115.257 52.6298 114.741 55.8896 116.142 59.0279C117.543 62.1661 120.332 63.9944 122.371 63.1115Z" stroke="#075607" stroke-width="2" stroke-miterlimit="10"/>
<path d="M118.37 37.9866C120.408 37.1037 120.924 33.8439 119.523 30.7057C118.122 27.5674 115.333 25.7391 113.294 26.6221C111.256 27.505 110.74 30.7648 112.141 33.903C113.543 37.0413 116.331 38.8696 118.37 37.9866Z" stroke="#075607" stroke-width="2" stroke-miterlimit="10"/>
<path d="M130.127 45.1511C131.382 41.9558 130.714 38.7234 128.635 37.9313C126.556 37.1391 123.853 39.0873 122.598 42.2826C121.343 45.4779 122.011 48.7103 124.09 49.5025C126.169 50.2946 128.872 48.3464 130.127 45.1511Z" stroke="#075607" stroke-width="2" stroke-miterlimit="10"/>
<path d="M131.816 83.1655C133.66 80.2422 133.629 76.9378 131.745 75.7849C129.862 74.632 126.839 76.0673 124.994 78.9906C123.15 81.9139 123.181 85.2183 125.065 86.3712C126.949 87.5241 129.971 86.0888 131.816 83.1655Z" stroke="#075607" stroke-width="2" stroke-miterlimit="10"/>
<path d="M143.199 92.6364C145.634 90.1401 146.321 86.8972 144.732 85.3932C143.142 83.8892 139.88 84.6936 137.444 87.1899C135.008 89.6863 134.321 92.9292 135.911 94.4332C137.5 95.9372 140.763 95.1328 143.199 92.6364Z" stroke="#075607" stroke-width="2" stroke-miterlimit="10"/>
<path d="M138.673 75.1832C140.901 75.0001 142.474 72.0948 142.186 68.6941C141.898 65.2933 139.858 62.6849 137.629 62.8681C135.401 63.0512 133.828 65.9565 134.116 69.3572C134.405 72.758 136.445 75.3664 138.673 75.1832Z" stroke="#075607" stroke-width="2" stroke-miterlimit="10"/>
<path d="M129.11 100.693C129.33 97.2871 127.7 94.4129 125.468 94.2731C123.237 94.1333 121.249 96.7808 121.029 100.186C120.809 103.592 122.44 106.466 124.671 106.606C126.903 106.746 128.89 104.098 129.11 100.693Z" stroke="#075607" stroke-width="2" stroke-miterlimit="10"/>
<path d="M27.5762 113.292C36.4817 105.831 50.4347 103.652 62.208 107.807C74.8763 112.28 82.4392 123.177 80.3009 134.188" stroke="#075607" stroke-width="2" stroke-miterlimit="10"/>
<path d="M91.958 108.754C96.4377 115.467 98.0953 123.295 96.0689 130.792" stroke="#075607" stroke-width="2" stroke-miterlimit="10"/>
<path d="M91.5469 107.99C91.8991 108.492 92.2389 108.998 92.5663 109.513" stroke="#075607" stroke-width="2" stroke-miterlimit="10"/>
<path d="M66.2812 90.4166C74.8636 92.9837 82.7911 97.7057 88.6177 104.281" stroke="#075607" stroke-width="2" stroke-miterlimit="10"/>
<path d="M17.373 98.1955C24.5713 93.5225 32.275 89.8494 41.2552 88.625C49.3817 87.8087 57.5123 87.8087 65.158 90.0983" stroke="#075607" stroke-width="2" stroke-miterlimit="10"/>
<path d="M62.1787 89.2372C63.1318 89.5433 64.1596 89.8534 65.3655 90.1759C66.4595 90.4656 67.5535 90.7472 68.5896 90.9799" stroke="#075607" stroke-width="2" stroke-miterlimit="10"/>
<path d="M88.1455 103.762C89.484 105.505 91.0298 107.55 92.4968 109.517" stroke="#075607" stroke-width="2" stroke-miterlimit="10"/>
</g>
<path d="M13.4983 73.6491C13.3122 73.6466 13.1986 73.5663 13.1578 73.4082C13.1028 73.2355 13.0762 73.0776 13.0782 72.9344C13.0805 72.7625 13.1324 72.6271 13.234 72.5282C13.3358 72.415 13.473 72.3309 13.6456 72.2759L24.1739 67.4533L10.4479 63.9609C10.348 63.931 10.2842 63.88 10.2565 63.808C10.2145 63.7358 10.1943 63.6424 10.1958 63.5278C10.1975 63.3989 10.2568 63.2493 10.3737 63.079C10.4762 62.9085 10.5989 62.8385 10.7418 62.8691L25.8212 66.3795C26.0345 66.497 26.1254 66.6629 26.0939 66.8773C26.0624 67.0918 25.9807 67.3055 25.8489 67.5187C25.7029 67.7316 25.5425 67.9371 25.368 68.1353C25.1937 68.3192 25.0628 68.4607 24.9756 68.5598L13.6275 73.6293C13.613 73.6434 13.5914 73.6503 13.5628 73.6499L13.4983 73.6491Z" fill="#075607"/>
<path d="M26.6073 61.1737C25.7175 60.8999 24.7734 60.6319 23.7751 60.3697C22.7811 60.0938 21.778 59.8227 20.7661 59.5563C19.7446 59.2719 18.75 58.9734 17.7823 58.6606C16.8145 58.3479 15.9231 58.0062 15.1081 57.6355C15.1028 57.6039 15.1149 57.5402 15.1444 57.4444C15.1644 57.3306 15.1807 57.2532 15.1934 57.2122C15.2523 57.0205 15.3329 56.8805 15.435 56.792C15.5277 56.6857 15.6767 56.6641 15.882 56.7273C16.6897 56.9758 17.5706 57.2543 18.5247 57.5628C19.4692 57.8535 20.4322 58.1573 21.4137 58.4742C22.3856 58.7733 23.3507 59.0703 24.309 59.3651C25.2673 59.66 26.1408 59.9138 26.9295 60.1265C27.1664 60.1844 27.3023 60.2786 27.337 60.4092C27.3897 60.5303 27.3928 60.6662 27.3465 60.8167C27.296 60.981 27.2128 61.1053 27.0969 61.1895C26.9948 61.278 26.8316 61.2727 26.6073 61.1737ZM11.7657 57.1016C11.6014 57.0511 11.5088 56.9626 11.4877 56.8362C11.4666 56.7099 11.4772 56.5782 11.5193 56.4414C11.6035 56.1676 11.7452 56.0238 11.9442 56.0101C12.1432 55.9964 12.3591 56.0254 12.5918 56.097C12.7171 56.2255 12.7951 56.3618 12.8256 56.5061C12.8424 56.6462 12.8161 56.7804 12.7466 56.9089C12.6676 57.0195 12.545 57.1016 12.3786 57.1553C12.2164 57.1953 12.0121 57.1774 11.7657 57.1016Z" fill="#075607"/>
<path d="M28.2144 57.1939C27.6474 56.8437 26.9148 56.462 26.0166 56.0488C25.124 55.6224 24.1609 55.1971 23.1272 54.7729C22.0992 54.3356 21.0298 53.904 19.9191 53.4782C18.8083 53.0523 17.7513 52.6649 16.7479 52.3159C15.7314 51.9613 14.8147 51.6647 13.9979 51.4261C13.1866 51.1744 12.5373 50.9994 12.0499 50.901C12.0213 50.7487 12.0041 50.6246 11.9982 50.5287C11.9847 50.4141 12.0032 50.2974 12.0536 50.1788C12.0929 50.0865 12.1463 50.0159 12.2139 49.9668C12.2683 49.9121 12.3566 49.8874 12.4789 49.8927C15.1742 50.7281 17.853 51.6575 20.515 52.681C23.1826 53.6914 25.8259 54.7225 28.4448 55.7743C28.5634 55.8248 28.7281 55.8948 28.939 55.9845C29.1367 56.0687 29.2393 56.1201 29.2469 56.1389C29.2607 56.3627 29.2367 56.547 29.175 56.692C29.1002 56.8314 29.0046 56.9464 28.8882 57.0369C28.7587 57.1219 28.6338 57.1777 28.5135 57.2044C28.3932 57.231 28.2935 57.2275 28.2144 57.1939Z" fill="#075607"/>
<path d="M29.3222 46.8281C29.5119 47.1331 29.7186 47.5019 29.942 47.9346C30.1736 48.3555 30.3631 48.7996 30.5105 49.2668C30.6661 49.7222 30.746 50.1864 30.7503 50.6592C30.7546 51.1321 30.6225 51.563 30.354 51.952C30.232 52.1288 30.1167 52.258 30.0081 52.3397C29.8958 52.4015 29.77 52.4451 29.6305 52.4707C29.4992 52.4845 29.3502 52.4861 29.1835 52.4754C29.0249 52.453 28.8424 52.4401 28.6358 52.4368C28.0338 52.0735 27.3987 51.6699 26.7304 51.2261C26.0585 50.7624 25.4169 50.2673 24.8056 49.741C24.1825 49.2065 23.6333 48.6533 23.1578 48.0815C22.6904 47.4979 22.3562 46.9105 22.1552 46.3192C21.9623 45.7162 21.9402 45.1179 22.0888 44.5244C22.2374 43.9308 22.6202 43.351 23.2372 42.7848C22.9315 42.5217 22.4936 42.2107 21.9233 41.8518C21.353 41.493 20.7451 41.1257 20.0996 40.7497C19.4541 40.3738 18.8321 40.0142 18.2338 39.6708C17.6236 39.3193 17.1318 39.0233 16.7582 38.7829C16.6521 38.7097 16.608 38.6096 16.626 38.4828C16.6403 38.336 16.6822 38.1996 16.7518 38.0736C16.8213 37.9476 16.8986 37.8356 16.9836 37.7377C17.0768 37.6279 17.1474 37.5635 17.1953 37.5444C18.629 38.5687 20.0512 39.5591 21.4621 40.5155C22.8612 41.4637 24.2603 42.412 25.6594 43.3602C27.0548 44.2886 28.4444 45.2128 29.828 46.133C31.2117 47.0532 32.5872 47.9852 33.9546 48.929C34.0843 49.0185 34.2117 49.1238 34.3369 49.245C34.482 49.3626 34.4894 49.5157 34.3593 49.7043C34.3104 49.775 34.238 49.8295 34.1421 49.8676C34.0579 49.914 33.9664 49.9204 33.8676 49.8871L29.3222 46.8281ZM23.6697 44.0492C23.3939 44.3984 23.3053 44.8419 23.4039 45.3799C23.4989 45.8979 23.7125 46.4456 24.0449 47.0231C24.3854 47.5888 24.8074 48.1498 25.311 48.7062C25.8027 49.2545 26.3134 49.7375 26.8431 50.1552C27.369 50.5531 27.8767 50.8513 28.3662 51.0499C28.8638 51.2367 29.2787 51.2533 29.6109 51.0997C29.7899 50.8404 29.8565 50.5296 29.8107 50.1673C29.7531 49.7969 29.6302 49.4075 29.4421 48.9993C29.254 48.591 29.0143 48.1819 28.7229 47.7719C28.4198 47.3539 28.118 46.9716 27.8177 46.625C27.5255 46.2667 27.2483 45.9623 26.9862 45.7118C26.7204 45.4413 26.5109 45.2532 26.3576 45.1474C26.2398 45.066 26.0552 44.93 25.804 44.7392C25.5528 44.5484 25.2894 44.3753 25.0138 44.2199C24.7382 44.0645 24.4717 43.9589 24.2144 43.9031C23.9652 43.8355 23.7836 43.8842 23.6697 44.0492Z" fill="#075607"/>
<path d="M39.0277 40.1684C38.6932 39.9431 38.2537 39.6201 37.7092 39.1994C37.1647 38.7787 36.5763 38.3211 35.9441 37.8266C35.301 37.3229 34.6313 36.8062 33.9351 36.2766C33.2482 35.736 32.5895 35.2286 31.959 34.7543C31.3286 34.28 30.7437 33.8628 30.2044 33.5026C29.6744 33.1315 29.2383 32.8488 28.8963 32.6546C28.6771 32.4702 28.5926 32.3149 28.6427 32.1886C28.6818 32.053 28.766 31.9086 28.8951 31.7551C28.9135 31.7332 28.955 31.6839 29.0196 31.6072C29.0841 31.5305 29.1357 31.4803 29.1743 31.4566C29.5861 31.6346 30.0642 31.934 30.6087 32.3547C31.1515 32.7552 31.7344 33.2082 32.3573 33.7136C32.9895 34.2081 33.639 34.7265 34.3058 35.2688C34.9818 35.8002 35.6388 36.2875 36.2767 36.7306C35.54 35.8487 34.9282 35.1187 34.4413 34.5405C33.9636 33.9514 33.5918 33.4701 33.3258 33.0965C33.0581 32.7028 32.8743 32.3984 32.7745 32.1834C32.6729 31.9482 32.6362 31.7582 32.6644 31.6135C32.7018 31.4577 32.7767 31.3242 32.8891 31.2129C32.9997 31.0814 33.1288 30.9279 33.2764 30.7526C33.4424 30.5553 33.6528 30.461 33.9077 30.4695C34.1718 30.4671 34.452 30.5344 34.7485 30.6716C35.0541 30.7977 35.3633 30.9642 35.6759 31.1711C35.9977 31.367 36.3095 31.5638 36.6111 31.7615C36.9018 31.9499 37.1706 32.1199 37.4174 32.2714C37.6735 32.412 37.8823 32.4754 38.0437 32.4615C37.4632 31.5051 36.9984 30.7116 36.6493 30.0809C36.3002 29.4502 36.0376 28.9391 35.8616 28.5477C35.6746 28.147 35.5615 27.8366 35.5222 27.6163C35.4829 27.3961 35.4892 27.2329 35.541 27.1267C35.5819 27.0114 35.641 26.9301 35.7182 26.8828C35.8047 26.8245 35.8802 26.757 35.9447 26.6803C36.1937 26.3844 36.5362 26.2888 36.9722 26.3936C37.6129 26.6332 38.1856 26.9091 38.6903 27.2215C39.184 27.5246 39.6437 27.8458 40.0693 28.1853C40.4841 28.5155 40.8731 28.8429 41.2365 29.1674C41.6092 29.4809 41.9801 29.7742 42.3492 30.0474C42.7276 30.3096 43.1235 30.5398 43.537 30.738C43.9598 30.9252 44.4324 31.0421 44.9548 31.0886C45.0564 31.3238 45.1032 31.5129 45.0951 31.6559C45.0762 31.7897 45.0021 31.9333 44.873 32.0867C44.7624 32.2182 44.6217 32.2964 44.451 32.3213C44.2694 32.3369 44.0852 32.3223 43.8983 32.2774C43.7005 32.2233 43.512 32.1582 43.3326 32.0822C43.1625 31.9952 43.0088 31.922 42.8715 31.8627C41.2674 30.5879 40.0074 29.6493 39.0915 29.0472C38.1738 28.4248 37.6147 28.1883 37.4141 28.3377C37.2135 28.4872 37.3778 29.0372 37.9069 29.9878C38.4343 30.9183 39.3402 32.2888 40.6245 34.0994C40.6516 34.1784 40.643 34.2554 40.5986 34.3304C40.5542 34.4054 40.4998 34.4812 40.4352 34.5579C40.3799 34.6237 40.32 34.6949 40.2554 34.7716C40.1891 34.8282 40.1338 34.8939 40.0894 34.9689C38.2478 33.8874 36.898 33.1446 36.0398 32.7408C35.1799 32.3168 34.7537 32.2671 34.7614 32.5917C34.769 32.9163 35.1856 33.6225 36.0112 34.7102C36.8258 35.7888 37.9961 37.2788 39.522 39.1805L39.0277 40.1684Z" fill="#075607"/>
<path d="M52.3253 26.2644C52.043 26.0112 51.723 25.6967 51.3655 25.3208C51.0106 24.9248 50.6501 24.5332 50.2838 24.1459C49.9089 23.7472 49.5443 23.3857 49.1899 23.0614C48.8469 22.7284 48.5217 22.4898 48.2143 22.3456C48.5339 23.9736 48.7313 25.2987 48.8065 26.3209C48.873 27.3317 48.8478 28.1153 48.731 28.6718C48.6169 29.2082 48.4415 29.5574 48.2048 29.7193C47.968 29.8812 47.7019 29.9215 47.4063 29.8403C47.1107 29.7591 46.8161 29.5962 46.5224 29.3517C46.2314 29.0871 45.9748 28.8324 45.7527 28.5874C45.562 28.3365 45.3504 27.9397 45.1178 27.3969C44.8853 26.854 44.6623 26.241 44.4488 25.5577C44.2268 24.863 44.0346 24.1365 43.8722 23.3784C43.7213 22.6117 43.6265 21.8832 43.5878 21.1931C43.5491 20.5029 43.5824 19.884 43.6878 19.3362C43.7932 18.7883 44.0113 18.3888 44.342 18.1375C44.7717 17.685 45.2133 17.5204 45.6667 17.6436C46.1228 17.7467 46.5367 18.1967 46.9084 18.9936C47.4803 19.7463 47.9984 20.369 48.4627 20.8616C48.9385 21.3456 49.3968 21.8068 49.8379 22.2452C50.2903 22.6749 50.7487 23.1361 51.213 23.6288C51.6887 24.1128 52.2125 24.7311 52.7845 25.4838C52.8885 25.6206 52.9624 25.7533 53.0061 25.882C53.0526 25.9905 52.9505 26.1401 52.6996 26.3308C52.6654 26.3568 52.5981 26.3629 52.4977 26.3492C52.4088 26.3269 52.3513 26.2986 52.3253 26.2644ZM45.5913 19.3199C45.3272 19.2327 45.1431 19.3456 45.0391 19.6585C44.9351 19.9714 44.8933 20.3899 44.9138 20.914C44.9343 21.4381 45.001 22.035 45.1141 22.7046C45.2272 23.3742 45.3617 24.0365 45.5176 24.6916C45.6736 25.3466 45.8407 25.9571 46.019 26.5232C46.1886 27.0779 46.3533 27.5194 46.5129 27.8479C46.8249 28.2584 47.0652 28.4445 47.234 28.4062C47.3941 28.3565 47.4961 28.1711 47.5399 27.85C47.5837 27.5289 47.5897 27.1106 47.5578 26.5952C47.5373 26.0711 47.4881 25.5328 47.4101 24.9804C47.3436 24.4194 47.2686 23.8827 47.1851 23.3705C47.1131 22.8496 47.0475 22.4318 46.9882 22.117C46.9088 21.7995 46.8197 21.5165 46.7207 21.2679C46.6218 21.0193 46.5201 20.7908 46.4156 20.5823C46.3139 20.3538 46.1894 20.1426 46.0421 19.9487C45.9062 19.7462 45.7559 19.5366 45.5913 19.3199Z" fill="#075607"/>
<path d="M58.1673 18.5598C58.2543 18.9083 58.3379 19.3228 58.4178 19.8031C58.5092 20.2748 58.5533 20.7555 58.5503 21.2454C58.5587 21.7266 58.4924 22.1929 58.3515 22.6443C58.2105 23.0957 57.9526 23.4653 57.5778 23.7532C57.4074 23.8841 57.258 23.9717 57.1296 24.0162C57.0038 24.0405 56.8706 24.0435 56.73 24.025C56.6008 23.9979 56.4585 23.9536 56.3031 23.8924C56.1591 23.8224 55.9893 23.7542 55.7937 23.6877C55.3321 23.1572 54.8514 22.5783 54.3515 21.9509C53.8542 21.3034 53.3954 20.6354 52.975 19.947C52.5459 19.2471 52.1927 18.5522 51.9155 17.8621C51.6497 17.1632 51.5118 16.5016 51.5018 15.8772C51.5032 15.2441 51.6656 14.6678 51.9891 14.1485C52.3126 13.6291 52.8548 13.1947 53.6157 12.845C53.4055 12.5008 53.0841 12.0705 52.6513 11.554C52.2185 11.0376 51.7526 10.5015 51.2535 9.94568C50.7544 9.38989 50.2728 8.85682 49.8086 8.34647C49.3357 7.82475 48.9583 7.39219 48.6765 7.04877C48.598 6.94654 48.5867 6.83781 48.6427 6.72258C48.7013 6.58726 48.783 6.4703 48.8879 6.3717C48.9928 6.2731 49.1007 6.19022 49.2117 6.12307C49.334 6.04718 49.4209 6.00752 49.4724 6.00406C50.5228 7.41871 51.5727 8.79756 52.6223 10.1406C53.6631 11.4723 54.7039 12.804 55.7447 14.1356C56.7881 15.4472 57.8272 16.7532 58.8619 18.0534C59.8966 19.3536 60.92 20.6626 61.932 21.9803C62.028 22.1052 62.1169 22.2446 62.1989 22.3984C62.301 22.5548 62.2611 22.7027 62.0794 22.8423C62.0112 22.8947 61.9256 22.9243 61.8225 22.9312C61.7282 22.9495 61.6392 22.9276 61.5554 22.8655L58.1673 18.5598ZM53.6396 14.1812C53.27 14.4289 53.0496 14.8239 52.9785 15.3662C52.91 15.8883 52.9453 16.4752 53.0845 17.1268C53.2351 17.7696 53.4647 18.4331 53.7734 19.1171C54.0732 19.7897 54.4112 20.4061 54.7871 20.9662C55.1657 21.5062 55.5575 21.9457 55.9624 22.2849C56.3787 22.6153 56.7686 22.7584 57.1319 22.7141C57.3818 22.5222 57.5405 22.2468 57.608 21.8879C57.6668 21.5177 57.6693 21.1094 57.6155 20.6631C57.5617 20.2168 57.459 19.7539 57.3074 19.2744C57.1471 18.7835 56.9772 18.327 56.7976 17.9051C56.6294 17.4744 56.4589 17.0997 56.2863 16.7808C56.1162 16.4418 55.9745 16.1985 55.8611 16.0508C55.7739 15.9372 55.64 15.7511 55.4594 15.4925C55.2788 15.2339 55.0812 14.9883 54.8666 14.7559C54.6519 14.5234 54.4307 14.3412 54.2028 14.2091C53.9864 14.0684 53.7986 14.0591 53.6396 14.1812Z" fill="#075607"/>
<defs>
<clipPath id="clip0_152_19">
<rect width="129" height="124" fill="white" transform="translate(17 11)"/>
</clipPath>
</defs>
</svg>
