<svg width="585" height="205" viewBox="0 0 585 205" fill="none" xmlns="http://www.w3.org/2000/svg">
<rect width="585" height="205" rx="96" fill="#59A64C"/>
<path d="M213.795 111.453C213.795 113.049 213.429 114.478 212.696 115.737C211.964 116.982 211.019 118.037 209.862 118.901C208.705 119.751 207.416 120.403 205.995 120.857C204.588 121.311 203.197 121.538 201.82 121.538C199.242 121.538 196.861 121.069 194.679 120.132C192.496 119.194 190.555 117.817 188.856 116.001V116.528C188.856 116.997 188.863 117.458 188.878 117.913C188.893 118.367 188.915 118.821 188.944 119.275V119.363C188.944 119.656 188.841 119.912 188.636 120.132C188.446 120.352 188.189 120.476 187.867 120.505C187.53 120.505 187.252 120.403 187.032 120.198C186.812 119.993 186.688 119.729 186.659 119.407C186.629 118.938 186.607 118.469 186.593 118C186.578 117.517 186.571 117.041 186.571 116.572C186.571 115.078 186.644 113.701 186.791 112.441C186.937 111.167 187.135 109.907 187.384 108.662C187.457 108.384 187.589 108.157 187.779 107.981C187.984 107.805 188.226 107.717 188.504 107.717C188.841 107.717 189.12 107.849 189.339 108.113C189.559 108.362 189.669 108.618 189.669 108.882C189.669 108.911 189.669 108.948 189.669 108.992C189.669 109.021 189.654 109.058 189.625 109.102C189.552 109.438 189.486 109.753 189.427 110.046C189.383 110.325 189.332 110.603 189.273 110.881C189.229 111.145 189.186 111.423 189.142 111.716C189.112 111.995 189.076 112.31 189.032 112.661C190.672 114.771 192.547 116.396 194.657 117.539C196.766 118.667 199.139 119.231 201.776 119.231C202.523 119.231 203.321 119.165 204.171 119.033C205.035 118.901 205.826 118.667 206.544 118.33C207.276 117.979 207.877 117.517 208.346 116.946C208.829 116.36 209.071 115.62 209.071 114.727C209.071 114.097 208.902 113.525 208.565 113.013C208.229 112.485 207.789 112.017 207.247 111.606C206.705 111.196 206.09 110.837 205.401 110.53C204.728 110.208 204.046 109.929 203.358 109.695C202.669 109.46 202.01 109.27 201.38 109.124C200.765 108.962 200.238 108.838 199.798 108.75C198.758 108.53 197.726 108.289 196.7 108.025C195.675 107.747 194.701 107.417 193.778 107.036C192.855 106.655 191.998 106.208 191.207 105.696C190.416 105.183 189.728 104.583 189.142 103.894C188.57 103.191 188.116 102.378 187.779 101.455C187.457 100.532 187.296 99.4702 187.296 98.269C187.296 97.0972 187.45 96.0205 187.757 95.0391C188.08 94.043 188.519 93.1494 189.076 92.3584C189.632 91.5674 190.284 90.8789 191.031 90.293C191.793 89.6924 192.621 89.1943 193.514 88.7988C194.408 88.3887 195.345 88.0884 196.327 87.8979C197.323 87.6929 198.326 87.5903 199.337 87.5903C199.952 87.5903 200.604 87.6416 201.292 87.7441C201.996 87.832 202.691 87.9639 203.38 88.1396C204.068 88.3008 204.742 88.4985 205.401 88.7329C206.075 88.9526 206.698 89.2017 207.269 89.48C207.84 89.7437 208.346 90.0293 208.785 90.3369C209.225 90.6299 209.576 90.9302 209.84 91.2378C210.045 90.6812 210.265 90.1318 210.499 89.5898C210.748 89.0332 211.004 88.4766 211.268 87.9199C211.385 87.7148 211.532 87.561 211.708 87.4585C211.898 87.3413 212.096 87.2827 212.301 87.2827C212.638 87.2827 212.916 87.4072 213.136 87.6562C213.355 87.8906 213.465 88.1543 213.465 88.4473C213.465 88.6084 213.421 88.7769 213.333 88.9526C212.572 90.5347 211.942 92.124 211.444 93.7207C210.96 95.3027 210.616 96.9067 210.411 98.5327C210.382 98.8257 210.257 99.0674 210.038 99.2578C209.833 99.4336 209.583 99.5215 209.291 99.5215C208.954 99.5215 208.675 99.397 208.456 99.1479C208.236 98.8989 208.126 98.6499 208.126 98.4009V98.269C208.302 96.7163 208.617 95.1855 209.071 93.6768C208.983 93.4131 208.756 93.1348 208.39 92.8418C208.023 92.5342 207.569 92.2412 207.027 91.9629C206.5 91.6846 205.899 91.4209 205.226 91.1719C204.552 90.9082 203.863 90.6812 203.16 90.4907C202.457 90.3003 201.754 90.1465 201.051 90.0293C200.348 89.9121 199.703 89.8535 199.117 89.8535C198.224 89.8535 197.367 89.9487 196.546 90.1392C195.726 90.3296 194.994 90.6372 194.349 91.062C193.719 91.4868 193.207 92.0361 192.811 92.71C192.416 93.3691 192.21 94.1675 192.196 95.105C192.254 95.9253 192.474 96.6357 192.855 97.2363C193.25 97.8223 193.734 98.335 194.305 98.7744C194.891 99.2139 195.55 99.5874 196.283 99.895C197.015 100.188 197.755 100.444 198.502 100.664C199.264 100.869 200.003 101.052 200.721 101.213C201.439 101.36 202.091 101.499 202.677 101.631C204.156 101.982 205.57 102.378 206.917 102.817C208.265 103.257 209.444 103.835 210.455 104.553C211.48 105.271 212.293 106.187 212.894 107.3C213.495 108.398 213.795 109.783 213.795 111.453ZM244.601 99.4336C244.601 98.2471 244.417 97.1997 244.051 96.2915C243.7 95.3687 243.216 94.5703 242.601 93.8965C242 93.208 241.283 92.6294 240.448 92.1606C239.627 91.6772 238.749 91.2891 237.811 90.9961C236.874 90.6885 235.899 90.4614 234.889 90.3149C233.878 90.1685 232.889 90.0732 231.922 90.0293H230.384L229.901 108.574C230.355 108.691 230.846 108.779 231.373 108.838C231.9 108.896 232.457 108.926 233.043 108.926C234.581 108.926 236.046 108.728 237.438 108.333C238.844 107.922 240.074 107.322 241.129 106.531C242.198 105.74 243.041 104.751 243.656 103.564C244.286 102.378 244.601 101.001 244.601 99.4336ZM233.043 111.233C232.457 111.233 231.893 111.211 231.351 111.167C230.824 111.108 230.326 111.021 229.857 110.903L229.681 117.847C230.238 117.891 230.802 117.935 231.373 117.979C231.959 118.022 232.545 118.066 233.131 118.11C233.424 118.154 233.666 118.286 233.856 118.506C234.061 118.726 234.164 118.982 234.164 119.275C234.164 119.612 234.039 119.883 233.79 120.088C233.541 120.293 233.277 120.396 232.999 120.396H232.911C231.739 120.278 230.567 120.19 229.396 120.132C228.238 120.073 227.074 120.044 225.902 120.044C224.745 120.044 223.595 120.073 222.452 120.132C221.324 120.19 220.189 120.278 219.046 120.396H218.958C218.636 120.396 218.358 120.278 218.124 120.044C217.904 119.824 217.794 119.568 217.794 119.275C217.794 118.982 217.889 118.726 218.08 118.506C218.285 118.286 218.534 118.154 218.827 118.11C219.369 118.066 219.911 118.022 220.453 117.979C221.009 117.935 221.559 117.891 222.101 117.847L222.606 90.5786C221.522 90.7544 220.716 90.9302 220.189 91.106C219.676 91.2817 219.405 91.3696 219.376 91.3696C219.2 91.4429 219.061 91.4795 218.958 91.4795C218.636 91.4795 218.358 91.355 218.124 91.106C217.904 90.8569 217.794 90.5859 217.794 90.293C217.794 90.0732 217.853 89.8608 217.97 89.6558C218.102 89.4507 218.285 89.3042 218.519 89.2163C218.563 89.2017 218.834 89.1211 219.332 88.9746C219.83 88.8135 220.548 88.6377 221.485 88.4473C222.438 88.2568 223.617 88.0884 225.023 87.9419C226.429 87.7808 228.07 87.7002 229.945 87.7002C230.267 87.7002 230.597 87.7002 230.934 87.7002C231.285 87.7002 231.629 87.7148 231.966 87.7441C233.241 87.7881 234.493 87.9126 235.724 88.1177C236.954 88.3228 238.126 88.6377 239.239 89.0625C240.353 89.4727 241.371 89.9854 242.293 90.6006C243.231 91.2158 244.044 91.9556 244.732 92.8198C245.421 93.6694 245.956 94.6436 246.336 95.7422C246.717 96.8408 246.908 98.0713 246.908 99.4336C246.908 100.723 246.717 101.909 246.336 102.993C245.956 104.062 245.428 105.037 244.754 105.916C244.095 106.78 243.319 107.549 242.425 108.223C241.532 108.882 240.565 109.438 239.525 109.893C238.5 110.332 237.43 110.669 236.317 110.903C235.218 111.123 234.127 111.233 233.043 111.233ZM277.779 97.5C277.779 96.4746 277.611 95.5811 277.274 94.8193C276.937 94.043 276.461 93.3765 275.846 92.8198C275.245 92.2632 274.52 91.8091 273.67 91.4575C272.821 91.0913 271.891 90.8057 270.88 90.6006C269.869 90.3809 268.785 90.2344 267.628 90.1611C266.485 90.0732 265.306 90.0293 264.09 90.0293C263.753 90.0293 263.446 90.0293 263.167 90.0293C262.889 90.0293 262.625 90.0439 262.376 90.0732L261.981 105.015C262.538 105.132 263.146 105.212 263.805 105.256C264.464 105.3 265.145 105.322 265.848 105.322C266.712 105.322 267.606 105.271 268.529 105.168C269.452 105.066 270.353 104.897 271.231 104.663C272.125 104.429 272.967 104.121 273.758 103.74C274.549 103.345 275.238 102.861 275.824 102.29C276.424 101.704 276.9 101.016 277.252 100.225C277.604 99.4336 277.779 98.5254 277.779 97.5ZM281.427 111.409C281.427 111.438 281.434 111.519 281.449 111.65C281.463 111.768 281.471 111.943 281.471 112.178C281.471 113.364 281.288 114.463 280.921 115.474C280.57 116.484 280.064 117.356 279.405 118.088C278.746 118.806 277.948 119.37 277.01 119.78C276.073 120.19 275.025 120.396 273.868 120.396H273.802C272.733 120.366 271.788 120.19 270.968 119.868C270.162 119.546 269.452 119.121 268.836 118.594C268.236 118.052 267.73 117.422 267.32 116.704C266.91 115.986 266.581 115.217 266.332 114.397C266.083 113.562 265.899 112.698 265.782 111.804C265.68 110.911 265.628 110.024 265.628 109.146C265.628 108.882 265.636 108.625 265.65 108.376C265.665 108.113 265.672 107.878 265.672 107.673C265.013 107.673 264.369 107.644 263.739 107.585C263.124 107.527 262.523 107.454 261.937 107.366L261.607 118.748C261.607 119.099 261.49 119.377 261.256 119.583C261.036 119.773 260.765 119.868 260.443 119.868C260.428 119.868 260.128 119.875 259.542 119.89C258.971 119.89 258.231 119.905 257.323 119.934C256.415 119.963 255.411 120.015 254.312 120.088C253.214 120.161 252.137 120.264 251.083 120.396H250.951C250.614 120.396 250.335 120.278 250.116 120.044C249.896 119.824 249.786 119.568 249.786 119.275C249.786 118.982 249.874 118.726 250.05 118.506C250.24 118.286 250.482 118.154 250.775 118.11C251.317 118.037 251.866 117.979 252.423 117.935C252.994 117.891 253.551 117.847 254.093 117.803L254.598 90.7104C253.514 90.8862 252.694 91.04 252.137 91.1719C251.581 91.3037 251.288 91.3696 251.258 91.3696C251.156 91.4429 251.053 91.4795 250.951 91.4795C250.614 91.4795 250.335 91.3623 250.116 91.1279C249.896 90.8936 249.786 90.6152 249.786 90.293C249.786 90.0439 249.859 89.8242 250.006 89.6338C250.152 89.4287 250.35 89.2896 250.599 89.2163C250.643 89.2017 250.951 89.1138 251.522 88.9526C252.093 88.7915 252.936 88.623 254.049 88.4473C255.177 88.2715 256.568 88.1104 258.224 87.9639C259.894 87.8174 261.849 87.7441 264.09 87.7441C265.526 87.8174 266.91 87.9199 268.243 88.0518C269.591 88.1836 270.858 88.3887 272.044 88.667C273.231 88.9307 274.315 89.2896 275.296 89.7437C276.278 90.1831 277.12 90.7544 277.823 91.4575C278.541 92.1606 279.09 93.0103 279.471 94.0063C279.867 94.9878 280.064 96.1523 280.064 97.5C280.064 98.5693 279.896 99.5801 279.559 100.532C279.237 101.47 278.783 102.327 278.197 103.103C277.611 103.865 276.9 104.531 276.065 105.103C275.245 105.659 274.344 106.099 273.363 106.421C273.333 106.758 273.312 107.102 273.297 107.454C273.282 107.805 273.275 108.164 273.275 108.53C273.275 108.838 273.282 109.27 273.297 109.827C273.312 110.383 273.348 110.991 273.407 111.65C273.465 112.31 273.553 112.983 273.67 113.672C273.802 114.36 273.971 114.99 274.176 115.562C274.396 116.118 274.667 116.58 274.989 116.946C275.311 117.297 275.699 117.473 276.153 117.473C276.739 117.473 277.223 117.275 277.604 116.88C277.984 116.484 278.292 116.008 278.526 115.452C278.761 114.88 278.922 114.294 279.01 113.694C279.112 113.093 279.164 112.588 279.164 112.178C279.164 112.017 279.156 111.885 279.142 111.782C279.127 111.68 279.12 111.584 279.12 111.497C279.12 111.16 279.237 110.889 279.471 110.684C279.72 110.479 279.991 110.376 280.284 110.376C280.577 110.376 280.833 110.479 281.053 110.684C281.273 110.874 281.397 111.116 281.427 111.409ZM302.037 89.3042C302.037 89.5972 301.935 89.8535 301.729 90.0732C301.524 90.2783 301.268 90.3955 300.96 90.4248C300.418 90.4834 299.876 90.5347 299.334 90.5786C298.792 90.6079 298.236 90.6372 297.665 90.6665L296.961 117.759C297.518 117.803 298.082 117.847 298.653 117.891C299.239 117.935 299.825 117.979 300.411 118.022C300.748 118.096 301.004 118.25 301.18 118.484C301.356 118.704 301.444 118.967 301.444 119.275C301.415 119.597 301.283 119.846 301.048 120.022C300.829 120.212 300.572 120.308 300.279 120.308H300.191C299.02 120.19 297.848 120.103 296.676 120.044C295.519 119.985 294.354 119.956 293.182 119.956C292.025 119.956 290.875 119.985 289.732 120.044C288.604 120.103 287.469 120.19 286.327 120.308H286.239C285.902 120.308 285.624 120.198 285.404 119.978C285.184 119.744 285.074 119.48 285.074 119.187C285.074 118.894 285.169 118.638 285.36 118.418C285.565 118.198 285.814 118.066 286.107 118.022C286.649 117.979 287.191 117.935 287.733 117.891C288.29 117.847 288.839 117.803 289.381 117.759L289.886 90.4248C288.626 90.3369 287.352 90.2051 286.063 90.0293C285.77 89.9854 285.528 89.8535 285.338 89.6338C285.162 89.4141 285.074 89.1724 285.074 88.9087C285.074 88.5278 285.206 88.2422 285.47 88.0518C285.733 87.8467 285.99 87.7441 286.239 87.7441H286.371C287.923 87.9639 289.454 88.125 290.963 88.2275C292.472 88.3154 293.973 88.3594 295.467 88.3594C296.375 88.3594 297.269 88.3447 298.148 88.3154C299.027 88.2861 299.906 88.2275 300.785 88.1396H300.873C301.209 88.1396 301.488 88.2568 301.708 88.4912C301.927 88.7256 302.037 88.9966 302.037 89.3042ZM338.709 88.0957C338.709 88.3447 338.636 88.5791 338.49 88.7988C338.358 89.0039 338.167 89.1431 337.918 89.2163C337.406 89.3481 336.9 89.4727 336.402 89.5898C335.904 89.6924 335.399 89.7803 334.886 89.8535C335.267 92.168 335.531 94.4165 335.677 96.5991C335.838 98.7817 335.919 100.942 335.919 103.081C335.919 105.981 335.802 108.779 335.567 111.475C335.348 114.17 335.077 116.814 334.754 119.407C334.667 119.729 334.513 119.971 334.293 120.132C334.088 120.308 333.854 120.396 333.59 120.396C333.092 120.396 332.748 120.161 332.557 119.692C332.147 118.696 331.583 117.473 330.865 116.023C330.162 114.558 329.364 112.991 328.47 111.321C327.591 109.636 326.654 107.893 325.658 106.091C324.676 104.29 323.709 102.546 322.757 100.862C321.82 99.1772 320.934 97.6025 320.099 96.1377C319.264 94.6582 318.553 93.4058 317.967 92.3804L317.308 117.847C317.865 117.891 318.429 117.935 319 117.979C319.586 118.022 320.172 118.066 320.758 118.11C321.051 118.154 321.292 118.286 321.483 118.506C321.688 118.726 321.791 118.982 321.791 119.275C321.791 119.612 321.666 119.883 321.417 120.088C321.168 120.293 320.904 120.396 320.626 120.396H320.538C319.366 120.278 318.194 120.19 317.022 120.132C315.865 120.073 314.701 120.044 313.529 120.044C312.372 120.044 311.222 120.073 310.079 120.132C308.951 120.19 307.816 120.278 306.673 120.396H306.585C306.263 120.396 305.985 120.278 305.75 120.044C305.531 119.824 305.421 119.568 305.421 119.275C305.421 118.982 305.516 118.726 305.707 118.506C305.912 118.286 306.161 118.154 306.454 118.11C306.996 118.066 307.538 118.022 308.08 117.979C308.636 117.935 309.186 117.891 309.728 117.847L310.233 90.1172C308.973 90.0293 307.699 89.8975 306.41 89.7217C306.117 89.6777 305.875 89.5459 305.685 89.3262C305.509 89.0918 305.421 88.8281 305.421 88.5352C305.421 88.1836 305.553 87.9126 305.816 87.7222C306.08 87.5171 306.336 87.4146 306.585 87.4146H306.717C308.285 87.6196 309.815 87.7808 311.31 87.8979C312.818 88.0005 314.32 88.0518 315.814 88.0518H317.44C317.455 88.0518 317.499 88.0591 317.572 88.0737C317.645 88.0737 317.726 88.0884 317.813 88.1177C317.916 88.147 318.019 88.1982 318.121 88.2715C318.238 88.3447 318.341 88.4473 318.429 88.5791C318.487 88.6816 318.678 89.0112 319 89.5679C319.322 90.1245 319.74 90.8496 320.252 91.7432C320.765 92.6367 321.351 93.6694 322.01 94.8413C322.684 96.0132 323.395 97.2656 324.142 98.5986C324.903 99.9316 325.68 101.316 326.471 102.751C327.262 104.187 328.038 105.623 328.8 107.058C329.576 108.479 330.316 109.871 331.019 111.233C331.737 112.581 332.381 113.84 332.953 115.012C333.143 113.093 333.304 111.145 333.436 109.167C333.568 107.19 333.634 105.161 333.634 103.081C333.634 101.001 333.553 98.877 333.392 96.709C333.231 94.541 332.967 92.3145 332.601 90.0293C332.411 90.0586 332.228 90.0732 332.052 90.0732C331.876 90.0732 331.686 90.0732 331.48 90.0732C330.616 90.0732 329.715 90.0293 328.778 89.9414C328.485 89.9121 328.236 89.7876 328.031 89.5679C327.84 89.3335 327.745 89.0698 327.745 88.7769C327.745 88.4546 327.862 88.1836 328.097 87.9639C328.346 87.7441 328.617 87.6343 328.91 87.6343H329.042C329.452 87.6929 329.854 87.7368 330.25 87.7661C330.66 87.7808 331.07 87.7881 331.48 87.7881C332.491 87.7881 333.48 87.7222 334.447 87.5903C335.414 87.4585 336.358 87.2681 337.281 87.019C337.34 86.9897 337.442 86.9751 337.589 86.9751C337.911 86.9751 338.175 87.0923 338.38 87.3267C338.6 87.5464 338.709 87.8027 338.709 88.0957ZM373.866 106.223C373.749 106.223 373.675 106.208 373.646 106.179C372.884 106.047 372.159 105.959 371.471 105.916C370.797 105.857 370.13 105.813 369.471 105.784C370.013 106.414 370.467 107.183 370.833 108.091C371.214 108.984 371.405 110.046 371.405 111.277C371.405 112.449 371.222 113.511 370.855 114.463C370.504 115.4 370.021 116.243 369.405 116.99C368.79 117.722 368.065 118.359 367.23 118.901C366.41 119.429 365.531 119.868 364.593 120.22C363.67 120.571 362.711 120.828 361.715 120.989C360.719 121.165 359.745 121.252 358.792 121.252C356.302 121.179 354.076 120.762 352.113 120C350.15 119.224 348.48 118.14 347.103 116.748C345.726 115.356 344.671 113.672 343.939 111.694C343.221 109.717 342.862 107.476 342.862 104.971C342.862 102.744 343.097 100.767 343.565 99.0381C344.034 97.2949 344.671 95.7715 345.477 94.4678C346.297 93.1494 347.257 92.0435 348.355 91.1499C349.454 90.2417 350.619 89.5093 351.849 88.9526C353.094 88.3813 354.383 87.9712 355.716 87.7222C357.049 87.4585 358.36 87.3267 359.649 87.3267C360.938 87.3267 362.096 87.4658 363.121 87.7441C364.146 88.0078 365.062 88.3447 365.868 88.7549C366.673 89.165 367.362 89.6265 367.933 90.1392C368.519 90.6372 369.002 91.1133 369.383 91.5674L370.592 88.0957C370.68 87.8613 370.826 87.6782 371.031 87.5464C371.236 87.3999 371.449 87.3267 371.668 87.3267C372.035 87.3267 372.32 87.4585 372.525 87.7222C372.73 87.9712 372.833 88.2275 372.833 88.4912C372.833 88.5352 372.826 88.5938 372.811 88.667C372.796 88.7256 372.774 88.7915 372.745 88.8647L369.251 99.082C369.178 99.3018 369.039 99.4849 368.834 99.6313C368.629 99.7632 368.402 99.8291 368.153 99.8291C367.816 99.8291 367.538 99.7119 367.318 99.4775C367.098 99.2285 366.988 98.9575 366.988 98.6646C366.988 98.6206 366.996 98.5693 367.01 98.5107C367.025 98.4521 367.047 98.3862 367.076 98.313L368.482 94.2041C368.116 93.6328 367.669 93.0835 367.142 92.5562C366.629 92.0142 366.058 91.5381 365.428 91.1279C364.813 90.7178 364.161 90.3882 363.473 90.1392C362.784 89.8901 362.096 89.7656 361.407 89.7656C359.649 89.7656 358.097 90.1465 356.749 90.9082C355.401 91.6553 354.266 92.688 353.343 94.0063C352.435 95.3101 351.747 96.8335 351.278 98.5767C350.809 100.32 350.575 102.18 350.575 104.158C350.575 105.037 350.626 106.011 350.729 107.08C350.846 108.149 351.029 109.233 351.278 110.332C351.542 111.431 351.878 112.493 352.289 113.518C352.713 114.543 353.233 115.459 353.849 116.265C354.464 117.07 355.182 117.715 356.002 118.198C356.822 118.682 357.767 118.923 358.836 118.923C360.624 118.923 362.162 118.704 363.451 118.264C364.74 117.825 365.794 117.246 366.615 116.528C367.45 115.811 368.065 114.99 368.46 114.067C368.856 113.145 369.054 112.2 369.054 111.233C369.054 110.383 368.937 109.651 368.702 109.036C368.468 108.406 368.189 107.886 367.867 107.476C367.545 107.051 367.215 106.721 366.878 106.487C366.542 106.252 366.278 106.091 366.087 106.003C365.311 106.106 364.615 106.238 364 106.399C363.399 106.56 362.887 106.714 362.462 106.86C362.052 107.007 361.729 107.139 361.495 107.256C361.275 107.358 361.158 107.41 361.144 107.41C360.982 107.527 360.799 107.585 360.594 107.585C360.257 107.585 359.979 107.468 359.759 107.234C359.54 106.985 359.43 106.714 359.43 106.421C359.43 105.996 359.627 105.659 360.023 105.41C360.067 105.396 360.301 105.286 360.726 105.081C361.151 104.875 361.744 104.656 362.506 104.421C363.282 104.172 364.22 103.953 365.318 103.762C366.432 103.572 367.691 103.477 369.098 103.477C370.606 103.477 372.262 103.63 374.063 103.938C374.327 103.982 374.547 104.114 374.723 104.333C374.913 104.539 375.008 104.78 375.008 105.059C375.008 105.439 374.876 105.732 374.613 105.938C374.349 106.128 374.1 106.223 373.866 106.223Z" fill="#FFF7F6"/>
<path d="M484.312 108.578C478.247 108.574 472.263 109.969 466.824 112.652C460.112 100.146 447.918 93.9211 447.356 93.6517C447.093 93.5202 446.803 93.4518 446.509 93.4518C446.216 93.4518 445.926 93.5202 445.663 93.6517C445.125 93.9211 432.902 100.146 426.195 112.652C420.75 109.966 414.759 108.572 408.688 108.578C408.186 108.578 407.705 108.777 407.351 109.132C406.996 109.486 406.797 109.967 406.797 110.469V129.375C406.809 139.574 410.741 149.378 417.779 156.759C424.817 164.14 434.423 168.534 444.609 169.031V190.598L424.659 180.62C424.436 180.509 424.194 180.443 423.947 180.425C423.699 180.408 423.45 180.439 423.214 180.518C422.979 180.596 422.761 180.721 422.573 180.883C422.385 181.046 422.231 181.244 422.12 181.466C422.009 181.689 421.943 181.931 421.925 182.178C421.908 182.426 421.939 182.675 422.018 182.911C422.096 183.146 422.221 183.364 422.383 183.552C422.546 183.74 422.744 183.894 422.966 184.005L445.654 195.348C445.917 195.48 446.206 195.548 446.5 195.548C446.794 195.548 447.083 195.48 447.346 195.348L470.034 184.005C470.256 183.894 470.454 183.74 470.617 183.552C470.779 183.364 470.904 183.146 470.982 182.911C471.061 182.675 471.092 182.426 471.075 182.178C471.057 181.931 470.991 181.689 470.88 181.466C470.769 181.244 470.615 181.046 470.427 180.883C470.239 180.721 470.021 180.596 469.786 180.518C469.55 180.439 469.301 180.408 469.053 180.425C468.806 180.443 468.564 180.509 468.341 180.62L448.391 190.598V169.031C458.577 168.534 468.183 164.14 475.221 156.759C482.259 149.378 486.191 139.574 486.203 129.375V110.469C486.203 109.967 486.004 109.486 485.649 109.132C485.295 108.777 484.814 108.578 484.312 108.578ZM446.5 97.4991C449.293 99.0919 458.316 104.802 463.516 114.482C455.445 119.465 449.413 127.16 446.5 136.186C443.587 127.16 437.555 119.465 429.484 114.482C434.684 104.83 443.711 99.0967 446.5 97.4991ZM410.578 129.375V112.407C419.761 112.903 428.405 116.898 434.735 123.57C441.064 130.242 444.597 139.085 444.609 148.281V165.25C435.426 164.753 426.782 160.758 420.453 154.086C414.124 147.414 410.59 138.571 410.578 129.375ZM482.422 129.375C482.41 138.571 478.876 147.414 472.547 154.086C466.218 160.758 457.574 164.753 448.391 165.25V148.281C448.403 139.085 451.936 130.242 458.265 123.57C464.595 116.898 473.239 112.903 482.422 112.407V129.375Z" fill="white"/>
</svg>
