<svg width="590" height="205" viewBox="0 0 590 205" fill="none" xmlns="http://www.w3.org/2000/svg">
<rect width="590" height="205" rx="94" fill="#DAB55D"/>
<path d="M207.795 111.453C207.795 113.049 207.429 114.478 206.696 115.737C205.964 116.982 205.019 118.037 203.862 118.901C202.705 119.751 201.416 120.403 199.995 120.857C198.588 121.311 197.197 121.538 195.82 121.538C193.242 121.538 190.861 121.069 188.679 120.132C186.496 119.194 184.555 117.817 182.856 116.001V116.528C182.856 116.997 182.863 117.458 182.878 117.913C182.893 118.367 182.915 118.821 182.944 119.275V119.363C182.944 119.656 182.841 119.912 182.636 120.132C182.446 120.352 182.189 120.476 181.867 120.505C181.53 120.505 181.252 120.403 181.032 120.198C180.812 119.993 180.688 119.729 180.659 119.407C180.629 118.938 180.607 118.469 180.593 118C180.578 117.517 180.571 117.041 180.571 116.572C180.571 115.078 180.644 113.701 180.791 112.441C180.937 111.167 181.135 109.907 181.384 108.662C181.457 108.384 181.589 108.157 181.779 107.981C181.984 107.805 182.226 107.717 182.504 107.717C182.841 107.717 183.12 107.849 183.339 108.113C183.559 108.362 183.669 108.618 183.669 108.882C183.669 108.911 183.669 108.948 183.669 108.992C183.669 109.021 183.654 109.058 183.625 109.102C183.552 109.438 183.486 109.753 183.427 110.046C183.383 110.325 183.332 110.603 183.273 110.881C183.229 111.145 183.186 111.423 183.142 111.716C183.112 111.995 183.076 112.31 183.032 112.661C184.672 114.771 186.547 116.396 188.657 117.539C190.766 118.667 193.139 119.231 195.776 119.231C196.523 119.231 197.321 119.165 198.171 119.033C199.035 118.901 199.826 118.667 200.544 118.33C201.276 117.979 201.877 117.517 202.346 116.946C202.829 116.36 203.071 115.62 203.071 114.727C203.071 114.097 202.902 113.525 202.565 113.013C202.229 112.485 201.789 112.017 201.247 111.606C200.705 111.196 200.09 110.837 199.401 110.53C198.728 110.208 198.046 109.929 197.358 109.695C196.669 109.46 196.01 109.27 195.38 109.124C194.765 108.962 194.238 108.838 193.798 108.75C192.758 108.53 191.726 108.289 190.7 108.025C189.675 107.747 188.701 107.417 187.778 107.036C186.855 106.655 185.998 106.208 185.207 105.696C184.416 105.183 183.728 104.583 183.142 103.894C182.57 103.191 182.116 102.378 181.779 101.455C181.457 100.532 181.296 99.4702 181.296 98.269C181.296 97.0972 181.45 96.0205 181.757 95.0391C182.08 94.043 182.519 93.1494 183.076 92.3584C183.632 91.5674 184.284 90.8789 185.031 90.293C185.793 89.6924 186.621 89.1943 187.514 88.7988C188.408 88.3887 189.345 88.0884 190.327 87.8979C191.323 87.6929 192.326 87.5903 193.337 87.5903C193.952 87.5903 194.604 87.6416 195.292 87.7441C195.996 87.832 196.691 87.9639 197.38 88.1396C198.068 88.3008 198.742 88.4985 199.401 88.7329C200.075 88.9526 200.698 89.2017 201.269 89.48C201.84 89.7437 202.346 90.0293 202.785 90.3369C203.225 90.6299 203.576 90.9302 203.84 91.2378C204.045 90.6812 204.265 90.1318 204.499 89.5898C204.748 89.0332 205.004 88.4766 205.268 87.9199C205.385 87.7148 205.532 87.561 205.708 87.4585C205.898 87.3413 206.096 87.2827 206.301 87.2827C206.638 87.2827 206.916 87.4072 207.136 87.6562C207.355 87.8906 207.465 88.1543 207.465 88.4473C207.465 88.6084 207.421 88.7769 207.333 88.9526C206.572 90.5347 205.942 92.124 205.444 93.7207C204.96 95.3027 204.616 96.9067 204.411 98.5327C204.382 98.8257 204.257 99.0674 204.038 99.2578C203.833 99.4336 203.583 99.5215 203.291 99.5215C202.954 99.5215 202.675 99.397 202.456 99.1479C202.236 98.8989 202.126 98.6499 202.126 98.4009V98.269C202.302 96.7163 202.617 95.1855 203.071 93.6768C202.983 93.4131 202.756 93.1348 202.39 92.8418C202.023 92.5342 201.569 92.2412 201.027 91.9629C200.5 91.6846 199.899 91.4209 199.226 91.1719C198.552 90.9082 197.863 90.6812 197.16 90.4907C196.457 90.3003 195.754 90.1465 195.051 90.0293C194.348 89.9121 193.703 89.8535 193.117 89.8535C192.224 89.8535 191.367 89.9487 190.546 90.1392C189.726 90.3296 188.994 90.6372 188.349 91.062C187.719 91.4868 187.207 92.0361 186.811 92.71C186.416 93.3691 186.21 94.1675 186.196 95.105C186.254 95.9253 186.474 96.6357 186.855 97.2363C187.25 97.8223 187.734 98.335 188.305 98.7744C188.891 99.2139 189.55 99.5874 190.283 99.895C191.015 100.188 191.755 100.444 192.502 100.664C193.264 100.869 194.003 101.052 194.721 101.213C195.439 101.36 196.091 101.499 196.677 101.631C198.156 101.982 199.57 102.378 200.917 102.817C202.265 103.257 203.444 103.835 204.455 104.553C205.48 105.271 206.293 106.187 206.894 107.3C207.495 108.398 207.795 109.783 207.795 111.453ZM242.841 89.0405C242.841 89.3628 242.739 89.6338 242.534 89.8535C242.343 90.0586 242.102 90.1758 241.809 90.2051L238.205 90.4907C238.278 91.1353 238.374 91.9849 238.491 93.0396C238.608 94.0796 238.718 95.2515 238.82 96.5552C238.923 97.8442 239.011 99.2212 239.084 100.686C239.172 102.136 239.223 103.579 239.238 105.015C239.194 106.553 239.069 108.025 238.864 109.431C238.659 110.837 238.352 112.156 237.941 113.386C237.546 114.602 237.026 115.708 236.381 116.704C235.737 117.7 234.953 118.557 234.03 119.275C233.107 119.978 232.023 120.52 230.778 120.901C229.548 121.296 228.142 121.494 226.56 121.494C224.816 121.494 223.308 121.208 222.033 120.637C220.759 120.081 219.675 119.333 218.781 118.396C217.888 117.444 217.163 116.345 216.606 115.1C216.049 113.855 215.61 112.551 215.288 111.189C214.98 109.827 214.768 108.45 214.65 107.058C214.548 105.667 214.497 104.341 214.497 103.081C214.497 101.704 214.526 100.393 214.584 99.1479C214.658 97.9028 214.738 96.7676 214.826 95.7422C214.929 94.7021 215.031 93.7866 215.134 92.9956C215.251 92.1899 215.354 91.5308 215.441 91.0181H212.827C212.49 91.0181 212.211 90.9082 211.992 90.6885C211.772 90.4541 211.662 90.1758 211.662 89.8535C211.662 89.5312 211.772 89.2603 211.992 89.0405C212.211 88.8062 212.49 88.689 212.827 88.689H226.604C226.911 88.689 227.182 88.8062 227.417 89.0405C227.651 89.2603 227.768 89.5312 227.768 89.8535C227.768 90.1758 227.651 90.4541 227.417 90.6885C227.182 90.9082 226.911 91.0181 226.604 91.0181H223.264C223.19 91.4868 223.103 92.146 223 92.9956C222.912 93.8306 222.817 94.7974 222.714 95.896C222.612 96.9946 222.524 98.2031 222.451 99.5215C222.392 100.84 222.363 102.209 222.363 103.63C222.363 104.465 222.377 105.417 222.407 106.487C222.451 107.556 222.546 108.655 222.692 109.783C222.854 110.911 223.073 112.017 223.352 113.101C223.645 114.185 224.04 115.151 224.538 116.001C225.036 116.851 225.651 117.539 226.384 118.066C227.131 118.579 228.024 118.835 229.064 118.835C230.427 118.835 231.599 118.477 232.58 117.759C233.576 117.041 234.389 116.06 235.019 114.814C235.664 113.569 236.14 112.104 236.447 110.42C236.755 108.735 236.909 106.934 236.909 105.015C236.909 103.594 236.872 102.166 236.799 100.73C236.726 99.2798 236.638 97.9175 236.535 96.6431C236.433 95.354 236.323 94.1968 236.206 93.1714C236.088 92.1313 235.993 91.311 235.92 90.7104L232.229 91.0181H232.097C231.774 91.0181 231.503 90.9009 231.284 90.6665C231.064 90.4175 230.954 90.1465 230.954 89.8535C230.954 89.5605 231.049 89.3042 231.24 89.0845C231.445 88.8647 231.694 88.7329 231.987 88.689L241.633 87.9199H241.721C242.028 87.9199 242.292 88.0371 242.512 88.2715C242.731 88.4912 242.841 88.7476 242.841 89.0405ZM289.907 119.363C289.526 119.333 289.145 119.319 288.764 119.319C288.383 119.319 288.002 119.319 287.622 119.319C285.512 119.319 283.432 119.414 281.381 119.604C279.345 119.78 277.324 120.044 275.317 120.396H275.097C274.76 120.396 274.489 120.278 274.284 120.044C274.079 119.824 273.977 119.568 273.977 119.275C273.977 119.011 274.057 118.77 274.218 118.55C274.394 118.33 274.628 118.198 274.921 118.154C275.463 118.037 276.013 117.935 276.569 117.847C277.126 117.759 277.705 117.678 278.305 117.605C278.276 117.166 278.225 116.506 278.151 115.627C278.093 114.749 278.005 113.708 277.888 112.507C277.785 111.306 277.653 109.973 277.492 108.508C277.331 107.043 277.141 105.498 276.921 103.872C276.701 102.246 276.445 100.576 276.152 98.8623C275.859 97.1338 275.522 95.4199 275.141 93.7207C274.746 94.6875 274.306 95.7935 273.823 97.0386C273.354 98.2837 272.863 99.6021 272.351 100.994C271.853 102.371 271.347 103.784 270.834 105.234C270.322 106.685 269.824 108.098 269.34 109.475C268.872 110.852 268.425 112.148 268 113.364C267.59 114.58 267.231 115.649 266.923 116.572C266.616 117.495 266.367 118.235 266.176 118.792C266 119.333 265.913 119.619 265.913 119.648C265.839 119.897 265.7 120.081 265.495 120.198C265.29 120.33 265.07 120.396 264.836 120.396C264.616 120.396 264.411 120.344 264.221 120.242C264.03 120.139 263.891 120 263.803 119.824L253.146 98.9941C252.824 101.426 252.531 103.777 252.268 106.047C252.15 107.014 252.033 108.018 251.916 109.058C251.813 110.083 251.711 111.094 251.608 112.09C251.506 113.071 251.418 114.009 251.345 114.902C251.286 115.796 251.242 116.594 251.213 117.297C251.843 117.327 252.48 117.385 253.125 117.473C253.769 117.546 254.436 117.656 255.124 117.803C255.388 117.847 255.6 117.979 255.761 118.198C255.937 118.403 256.025 118.645 256.025 118.923C256.025 119.304 255.893 119.59 255.629 119.78C255.366 119.956 255.124 120.044 254.904 120.044H254.663C253.813 119.883 252.971 119.766 252.136 119.692C251.315 119.604 250.495 119.561 249.675 119.561C249.045 119.561 248.422 119.583 247.807 119.626C247.207 119.67 246.599 119.751 245.983 119.868H245.808C245.471 119.868 245.192 119.751 244.973 119.517C244.753 119.282 244.643 119.011 244.643 118.704C244.643 118.425 244.731 118.184 244.907 117.979C245.083 117.759 245.31 117.62 245.588 117.561C246.13 117.473 246.672 117.407 247.214 117.363C247.771 117.319 248.32 117.283 248.862 117.253C248.891 116.521 248.95 115.583 249.038 114.441C249.14 113.298 249.257 112.017 249.389 110.596C249.536 109.175 249.711 107.644 249.917 106.003C250.122 104.348 250.356 102.642 250.62 100.884C250.883 99.126 251.176 97.3462 251.499 95.5444C251.835 93.7427 252.202 91.9775 252.597 90.249C251.777 90.2197 250.964 90.1538 250.158 90.0513C249.367 89.9341 248.576 89.7656 247.785 89.5459C247.536 89.4727 247.331 89.3335 247.17 89.1284C247.009 88.9233 246.928 88.6963 246.928 88.4473C246.928 88.1104 247.045 87.832 247.28 87.6123C247.529 87.3926 247.8 87.2827 248.093 87.2827C248.151 87.2827 248.203 87.2827 248.247 87.2827C248.291 87.2827 248.349 87.2974 248.422 87.3267C249.213 87.5317 250.004 87.6929 250.795 87.8101C251.586 87.9126 252.399 87.9639 253.234 87.9639C253.571 87.9639 253.857 87.9565 254.091 87.9419C254.34 87.9272 254.582 87.9199 254.816 87.9199C255.241 87.9199 255.585 88.1104 255.849 88.4912L267.055 109.102C267.48 107.856 267.919 106.575 268.374 105.256C268.842 103.923 269.311 102.612 269.78 101.323C270.263 100.02 270.732 98.7598 271.186 97.5439C271.64 96.3281 272.072 95.2075 272.482 94.1821C272.907 93.1567 273.288 92.2559 273.625 91.4795C273.977 90.7031 274.277 90.1025 274.526 89.6777C274.746 89.3115 275.075 89.1284 275.515 89.1284C276.833 89.0112 278.049 88.9087 279.162 88.8208C280.275 88.7329 281.264 88.6597 282.128 88.6011C282.993 88.5278 283.71 88.4692 284.282 88.4253C284.868 88.3813 285.285 88.3447 285.534 88.3154C285.578 88.3154 285.615 88.3081 285.644 88.2935C285.673 88.2788 285.703 88.2715 285.732 88.2715C286.069 88.2715 286.347 88.396 286.567 88.645C286.787 88.8794 286.896 89.1431 286.896 89.436C286.896 89.729 286.801 89.9854 286.611 90.2051C286.435 90.4102 286.201 90.5347 285.908 90.5786C285.673 90.6226 285.307 90.6812 284.809 90.7544C284.311 90.813 283.688 90.8862 282.941 90.9741C283.029 91.5894 283.161 92.4536 283.337 93.5669C283.527 94.6655 283.725 95.9326 283.93 97.3682C284.15 98.7891 284.377 100.334 284.611 102.004C284.846 103.674 285.073 105.374 285.292 107.102C285.512 108.831 285.703 110.544 285.864 112.244C286.04 113.943 286.171 115.54 286.259 117.034H287.622C288.002 117.034 288.391 117.034 288.786 117.034C289.182 117.034 289.57 117.048 289.951 117.078C290.273 117.078 290.537 117.188 290.742 117.407C290.961 117.612 291.071 117.876 291.071 118.198C291.071 118.535 290.954 118.813 290.72 119.033C290.5 119.253 290.229 119.363 289.907 119.363ZM337.368 119.363C336.987 119.333 336.606 119.319 336.225 119.319C335.844 119.319 335.463 119.319 335.083 119.319C332.973 119.319 330.893 119.414 328.842 119.604C326.806 119.78 324.785 120.044 322.778 120.396H322.558C322.221 120.396 321.95 120.278 321.745 120.044C321.54 119.824 321.438 119.568 321.438 119.275C321.438 119.011 321.518 118.77 321.679 118.55C321.855 118.33 322.089 118.198 322.382 118.154C322.924 118.037 323.474 117.935 324.03 117.847C324.587 117.759 325.166 117.678 325.766 117.605C325.737 117.166 325.686 116.506 325.612 115.627C325.554 114.749 325.466 113.708 325.349 112.507C325.246 111.306 325.114 109.973 324.953 108.508C324.792 107.043 324.602 105.498 324.382 103.872C324.162 102.246 323.906 100.576 323.613 98.8623C323.32 97.1338 322.983 95.4199 322.602 93.7207C322.207 94.6875 321.767 95.7935 321.284 97.0386C320.815 98.2837 320.324 99.6021 319.812 100.994C319.313 102.371 318.808 103.784 318.295 105.234C317.783 106.685 317.285 108.098 316.801 109.475C316.333 110.852 315.886 112.148 315.461 113.364C315.051 114.58 314.692 115.649 314.384 116.572C314.077 117.495 313.828 118.235 313.637 118.792C313.461 119.333 313.374 119.619 313.374 119.648C313.3 119.897 313.161 120.081 312.956 120.198C312.751 120.33 312.531 120.396 312.297 120.396C312.077 120.396 311.872 120.344 311.682 120.242C311.491 120.139 311.352 120 311.264 119.824L300.607 98.9941C300.285 101.426 299.992 103.777 299.729 106.047C299.611 107.014 299.494 108.018 299.377 109.058C299.274 110.083 299.172 111.094 299.069 112.09C298.967 113.071 298.879 114.009 298.806 114.902C298.747 115.796 298.703 116.594 298.674 117.297C299.304 117.327 299.941 117.385 300.585 117.473C301.23 117.546 301.896 117.656 302.585 117.803C302.849 117.847 303.061 117.979 303.222 118.198C303.398 118.403 303.486 118.645 303.486 118.923C303.486 119.304 303.354 119.59 303.09 119.78C302.827 119.956 302.585 120.044 302.365 120.044H302.124C301.274 119.883 300.432 119.766 299.597 119.692C298.776 119.604 297.956 119.561 297.136 119.561C296.506 119.561 295.883 119.583 295.268 119.626C294.667 119.67 294.06 119.751 293.444 119.868H293.269C292.932 119.868 292.653 119.751 292.434 119.517C292.214 119.282 292.104 119.011 292.104 118.704C292.104 118.425 292.192 118.184 292.368 117.979C292.543 117.759 292.771 117.62 293.049 117.561C293.591 117.473 294.133 117.407 294.675 117.363C295.231 117.319 295.781 117.283 296.323 117.253C296.352 116.521 296.411 115.583 296.499 114.441C296.601 113.298 296.718 112.017 296.85 110.596C296.997 109.175 297.172 107.644 297.377 106.003C297.583 104.348 297.817 102.642 298.081 100.884C298.344 99.126 298.637 97.3462 298.959 95.5444C299.296 93.7427 299.663 91.9775 300.058 90.249C299.238 90.2197 298.425 90.1538 297.619 90.0513C296.828 89.9341 296.037 89.7656 295.246 89.5459C294.997 89.4727 294.792 89.3335 294.631 89.1284C294.47 88.9233 294.389 88.6963 294.389 88.4473C294.389 88.1104 294.506 87.832 294.741 87.6123C294.99 87.3926 295.261 87.2827 295.554 87.2827C295.612 87.2827 295.664 87.2827 295.708 87.2827C295.751 87.2827 295.81 87.2974 295.883 87.3267C296.674 87.5317 297.465 87.6929 298.256 87.8101C299.047 87.9126 299.86 87.9639 300.695 87.9639C301.032 87.9639 301.318 87.9565 301.552 87.9419C301.801 87.9272 302.043 87.9199 302.277 87.9199C302.702 87.9199 303.046 88.1104 303.31 88.4912L314.516 109.102C314.941 107.856 315.38 106.575 315.834 105.256C316.303 103.923 316.772 102.612 317.241 101.323C317.724 100.02 318.193 98.7598 318.647 97.5439C319.101 96.3281 319.533 95.2075 319.943 94.1821C320.368 93.1567 320.749 92.2559 321.086 91.4795C321.438 90.7031 321.738 90.1025 321.987 89.6777C322.207 89.3115 322.536 89.1284 322.976 89.1284C324.294 89.0112 325.51 88.9087 326.623 88.8208C327.736 88.7329 328.725 88.6597 329.589 88.6011C330.454 88.5278 331.171 88.4692 331.743 88.4253C332.329 88.3813 332.746 88.3447 332.995 88.3154C333.039 88.3154 333.076 88.3081 333.105 88.2935C333.134 88.2788 333.164 88.2715 333.193 88.2715C333.53 88.2715 333.808 88.396 334.028 88.645C334.248 88.8794 334.357 89.1431 334.357 89.436C334.357 89.729 334.262 89.9854 334.072 90.2051C333.896 90.4102 333.662 90.5347 333.369 90.5786C333.134 90.6226 332.768 90.6812 332.27 90.7544C331.772 90.813 331.149 90.8862 330.402 90.9741C330.49 91.5894 330.622 92.4536 330.798 93.5669C330.988 94.6655 331.186 95.9326 331.391 97.3682C331.611 98.7891 331.838 100.334 332.072 102.004C332.307 103.674 332.534 105.374 332.753 107.102C332.973 108.831 333.164 110.544 333.325 112.244C333.5 113.943 333.632 115.54 333.72 117.034H335.083C335.463 117.034 335.852 117.034 336.247 117.034C336.643 117.034 337.031 117.048 337.412 117.078C337.734 117.078 337.998 117.188 338.203 117.407C338.422 117.612 338.532 117.876 338.532 118.198C338.532 118.535 338.415 118.813 338.181 119.033C337.961 119.253 337.69 119.363 337.368 119.363ZM365.976 119.407C365.932 119.7 365.8 119.934 365.581 120.11C365.361 120.3 365.104 120.396 364.812 120.396H364.768C360.827 120.132 356.982 120 353.232 120C349.423 120 345.754 120.132 342.224 120.396H342.114C341.777 120.366 341.499 120.249 341.279 120.044C341.059 119.839 340.949 119.568 340.949 119.231C340.949 118.938 341.052 118.689 341.257 118.484C341.462 118.264 341.718 118.14 342.026 118.11C342.495 118.066 342.963 118.037 343.432 118.022C343.916 117.993 344.392 117.964 344.86 117.935V91.1499C344.392 91.1206 343.923 91.106 343.454 91.106C343 91.106 342.539 91.106 342.07 91.106C341.762 91.0767 341.499 90.9595 341.279 90.7544C341.059 90.5347 340.949 90.2637 340.949 89.9414C340.949 89.6191 341.066 89.3481 341.301 89.1284C341.535 88.894 341.806 88.7769 342.114 88.7769C342.67 88.8062 343.205 88.8208 343.718 88.8208C344.245 88.8208 344.765 88.8208 345.278 88.8208C348.398 88.8208 351.489 88.7183 354.55 88.5132C357.612 88.3081 360.666 88.0005 363.713 87.5903H363.911C364.204 87.5903 364.453 87.6929 364.658 87.8979C364.863 88.0884 364.987 88.3154 365.031 88.5791L365.976 96.0059V96.1597C365.976 96.4966 365.852 96.7676 365.603 96.9727C365.368 97.1777 365.104 97.2803 364.812 97.2803C364.533 97.2803 364.284 97.1924 364.064 97.0166C363.859 96.8262 363.728 96.5845 363.669 96.2915L362.878 90.0293C361.179 90.2637 359.472 90.4541 357.758 90.6006C356.059 90.7324 354.345 90.8423 352.617 90.9302V105.41C352.968 105.396 353.437 105.374 354.023 105.344C354.609 105.315 355.239 105.271 355.913 105.212C356.601 105.154 357.297 105.088 358 105.015C358.718 104.927 359.384 104.824 360 104.707H360.219C360.527 104.707 360.798 104.824 361.032 105.059C361.267 105.278 361.384 105.535 361.384 105.828C361.384 106.121 361.296 106.37 361.12 106.575C360.944 106.78 360.717 106.919 360.439 106.992C359.765 107.124 359.04 107.234 358.264 107.322C357.502 107.41 356.755 107.483 356.022 107.542C355.305 107.585 354.646 107.622 354.045 107.651C353.444 107.681 352.968 107.703 352.617 107.717V117.715H353.232C354.975 117.715 356.726 117.737 358.483 117.781C360.256 117.825 362.036 117.905 363.823 118.022L364.614 112.134C364.672 111.841 364.804 111.606 365.009 111.431C365.229 111.24 365.478 111.145 365.756 111.145C366.108 111.145 366.386 111.27 366.591 111.519C366.811 111.768 366.921 112.017 366.921 112.266V112.441L365.976 119.407ZM398.254 97.5C398.254 96.4746 398.085 95.5811 397.749 94.8193C397.412 94.043 396.936 93.3765 396.32 92.8198C395.72 92.2632 394.995 91.8091 394.145 91.4575C393.295 91.0913 392.365 90.8057 391.354 90.6006C390.344 90.3809 389.26 90.2344 388.103 90.1611C386.96 90.0732 385.781 90.0293 384.565 90.0293C384.228 90.0293 383.92 90.0293 383.642 90.0293C383.364 90.0293 383.1 90.0439 382.851 90.0732L382.456 105.015C383.012 105.132 383.62 105.212 384.279 105.256C384.938 105.3 385.62 105.322 386.323 105.322C387.187 105.322 388.081 105.271 389.003 105.168C389.926 105.066 390.827 104.897 391.706 104.663C392.6 104.429 393.442 104.121 394.233 103.74C395.024 103.345 395.712 102.861 396.298 102.29C396.899 101.704 397.375 101.016 397.727 100.225C398.078 99.4336 398.254 98.5254 398.254 97.5ZM401.901 111.409C401.901 111.438 401.909 111.519 401.923 111.65C401.938 111.768 401.945 111.943 401.945 112.178C401.945 113.364 401.762 114.463 401.396 115.474C401.044 116.484 400.539 117.356 399.88 118.088C399.221 118.806 398.422 119.37 397.485 119.78C396.547 120.19 395.5 120.396 394.343 120.396H394.277C393.208 120.366 392.263 120.19 391.442 119.868C390.637 119.546 389.926 119.121 389.311 118.594C388.71 118.052 388.205 117.422 387.795 116.704C387.385 115.986 387.055 115.217 386.806 114.397C386.557 113.562 386.374 112.698 386.257 111.804C386.154 110.911 386.103 110.024 386.103 109.146C386.103 108.882 386.11 108.625 386.125 108.376C386.14 108.113 386.147 107.878 386.147 107.673C385.488 107.673 384.843 107.644 384.213 107.585C383.598 107.527 382.998 107.454 382.412 107.366L382.082 118.748C382.082 119.099 381.965 119.377 381.73 119.583C381.511 119.773 381.24 119.868 380.917 119.868C380.903 119.868 380.603 119.875 380.017 119.89C379.445 119.89 378.706 119.905 377.797 119.934C376.889 119.963 375.886 120.015 374.787 120.088C373.688 120.161 372.612 120.264 371.557 120.396H371.425C371.088 120.396 370.81 120.278 370.59 120.044C370.371 119.824 370.261 119.568 370.261 119.275C370.261 118.982 370.349 118.726 370.524 118.506C370.715 118.286 370.957 118.154 371.25 118.11C371.792 118.037 372.341 117.979 372.897 117.935C373.469 117.891 374.025 117.847 374.567 117.803L375.073 90.7104C373.989 90.8862 373.168 91.04 372.612 91.1719C372.055 91.3037 371.762 91.3696 371.733 91.3696C371.63 91.4429 371.528 91.4795 371.425 91.4795C371.088 91.4795 370.81 91.3623 370.59 91.1279C370.371 90.8936 370.261 90.6152 370.261 90.293C370.261 90.0439 370.334 89.8242 370.48 89.6338C370.627 89.4287 370.825 89.2896 371.074 89.2163C371.118 89.2017 371.425 89.1138 371.997 88.9526C372.568 88.7915 373.41 88.623 374.523 88.4473C375.651 88.2715 377.043 88.1104 378.698 87.9639C380.368 87.8174 382.324 87.7441 384.565 87.7441C386 87.8174 387.385 87.9199 388.718 88.0518C390.065 88.1836 391.333 88.3887 392.519 88.667C393.706 88.9307 394.79 89.2896 395.771 89.7437C396.752 90.1831 397.595 90.7544 398.298 91.4575C399.016 92.1606 399.565 93.0103 399.946 94.0063C400.341 94.9878 400.539 96.1523 400.539 97.5C400.539 98.5693 400.371 99.5801 400.034 100.532C399.711 101.47 399.257 102.327 398.671 103.103C398.085 103.865 397.375 104.531 396.54 105.103C395.72 105.659 394.819 106.099 393.837 106.421C393.808 106.758 393.786 107.102 393.771 107.454C393.757 107.805 393.75 108.164 393.75 108.53C393.75 108.838 393.757 109.27 393.771 109.827C393.786 110.383 393.823 110.991 393.881 111.65C393.94 112.31 394.028 112.983 394.145 113.672C394.277 114.36 394.445 114.99 394.65 115.562C394.87 116.118 395.141 116.58 395.463 116.946C395.786 117.297 396.174 117.473 396.628 117.473C397.214 117.473 397.697 117.275 398.078 116.88C398.459 116.484 398.767 116.008 399.001 115.452C399.235 114.88 399.396 114.294 399.484 113.694C399.587 113.093 399.638 112.588 399.638 112.178C399.638 112.017 399.631 111.885 399.616 111.782C399.602 111.68 399.594 111.584 399.594 111.497C399.594 111.16 399.711 110.889 399.946 110.684C400.195 110.479 400.466 110.376 400.759 110.376C401.052 110.376 401.308 110.479 401.528 110.684C401.748 110.874 401.872 111.116 401.901 111.409Z" fill="#FFF7F6"/>
<path d="M482.453 31.4688V19.1875C482.453 18.6446 482.669 18.124 483.053 17.7401C483.437 17.3563 483.957 17.1406 484.5 17.1406C485.043 17.1406 485.563 17.3563 485.947 17.7401C486.331 18.124 486.547 18.6446 486.547 19.1875V31.4688C486.547 32.0116 486.331 32.5322 485.947 32.9161C485.563 33.3 485.043 33.5156 484.5 33.5156C483.957 33.5156 483.437 33.3 483.053 32.9161C482.669 32.5322 482.453 32.0116 482.453 31.4688ZM515.203 76.5C515.203 82.5725 513.402 88.5086 510.029 93.5577C506.655 98.6068 501.86 102.542 496.25 104.866C490.639 107.19 484.466 107.798 478.51 106.613C472.554 105.428 467.084 102.504 462.79 98.2104C458.496 93.9165 455.572 88.4457 454.387 82.4899C453.202 76.5341 453.81 70.3607 456.134 64.7504C458.458 59.1402 462.393 54.345 467.442 50.9713C472.491 47.5976 478.427 45.7969 484.5 45.7969C492.64 45.8064 500.444 49.0442 506.2 54.8001C511.956 60.556 515.194 68.3599 515.203 76.5ZM511.109 76.5C511.109 71.2372 509.549 66.0925 506.625 61.7166C503.701 57.3407 499.545 53.9301 494.683 51.9161C489.821 49.9021 484.47 49.3752 479.309 50.4019C474.147 51.4286 469.406 53.9629 465.684 57.6843C461.963 61.4057 459.429 66.1471 458.402 71.3088C457.375 76.4705 457.902 81.8207 459.916 86.683C461.93 91.5452 465.341 95.701 469.717 98.6249C474.093 101.549 479.237 103.109 484.5 103.109C491.555 103.101 498.318 100.295 503.307 95.3067C508.295 90.3182 511.101 83.5547 511.109 76.5ZM450.302 45.1982C450.686 45.5822 451.207 45.798 451.75 45.798C452.293 45.798 452.814 45.5822 453.198 45.1982C453.582 44.8141 453.798 44.2932 453.798 43.75C453.798 43.2068 453.582 42.6859 453.198 42.3018L445.011 34.1143C444.627 33.7303 444.106 33.5145 443.562 33.5145C443.019 33.5145 442.498 33.7303 442.114 34.1143C441.73 34.4984 441.514 35.0193 441.514 35.5625C441.514 36.1057 441.73 36.6266 442.114 37.0107L450.302 45.1982ZM450.302 107.802L442.114 115.989C441.924 116.18 441.773 116.405 441.67 116.654C441.567 116.902 441.514 117.169 441.514 117.438C441.514 117.706 441.567 117.973 441.67 118.221C441.773 118.47 441.924 118.695 442.114 118.886C442.305 119.076 442.53 119.227 442.779 119.33C443.027 119.433 443.294 119.486 443.562 119.486C443.831 119.486 444.098 119.433 444.346 119.33C444.595 119.227 444.82 119.076 445.011 118.886L453.198 110.698C453.582 110.314 453.798 109.793 453.798 109.25C453.798 108.707 453.582 108.186 453.198 107.802C452.814 107.418 452.293 107.202 451.75 107.202C451.207 107.202 450.686 107.418 450.302 107.802ZM517.25 45.7969C517.519 45.7971 517.785 45.7443 518.034 45.6416C518.282 45.5389 518.508 45.3882 518.698 45.1982L526.886 37.0107C527.076 36.8205 527.227 36.5947 527.33 36.3462C527.433 36.0978 527.486 35.8314 527.486 35.5625C527.486 35.2936 527.433 35.0272 527.33 34.7788C527.227 34.5303 527.076 34.3045 526.886 34.1143C526.695 33.9242 526.47 33.7733 526.221 33.6704C525.973 33.5675 525.706 33.5145 525.438 33.5145C525.169 33.5145 524.902 33.5675 524.654 33.6704C524.405 33.7733 524.18 33.9242 523.989 34.1143L515.802 42.3018C515.515 42.5881 515.32 42.953 515.241 43.3502C515.162 43.7475 515.202 44.1593 515.357 44.5335C515.512 44.9077 515.775 45.2275 516.112 45.4524C516.449 45.6773 516.845 45.7972 517.25 45.7969ZM518.698 107.802C518.314 107.418 517.793 107.202 517.25 107.202C516.707 107.202 516.186 107.418 515.802 107.802C515.418 108.186 515.202 108.707 515.202 109.25C515.202 109.793 515.418 110.314 515.802 110.698L523.989 118.886C524.18 119.076 524.405 119.227 524.654 119.33C524.902 119.433 525.169 119.486 525.438 119.486C525.706 119.486 525.973 119.433 526.221 119.33C526.47 119.227 526.695 119.076 526.886 118.886C527.076 118.695 527.227 118.47 527.33 118.221C527.433 117.973 527.486 117.706 527.486 117.438C527.486 117.169 527.433 116.902 527.33 116.654C527.227 116.405 527.076 116.18 526.886 115.989L518.698 107.802ZM439.469 74.4531H427.188C426.645 74.4531 426.124 74.6688 425.74 75.0526C425.356 75.4365 425.141 75.9571 425.141 76.5C425.141 77.0429 425.356 77.5635 425.74 77.9474C426.124 78.3312 426.645 78.5469 427.188 78.5469H439.469C440.012 78.5469 440.532 78.3312 440.916 77.9474C441.3 77.5635 441.516 77.0429 441.516 76.5C441.516 75.9571 441.3 75.4365 440.916 75.0526C440.532 74.6688 440.012 74.4531 439.469 74.4531ZM484.5 119.484C483.957 119.484 483.437 119.7 483.053 120.084C482.669 120.468 482.453 120.988 482.453 121.531V133.812C482.453 134.355 482.669 134.876 483.053 135.26C483.437 135.644 483.957 135.859 484.5 135.859C485.043 135.859 485.563 135.644 485.947 135.26C486.331 134.876 486.547 134.355 486.547 133.812V121.531C486.547 120.988 486.331 120.468 485.947 120.084C485.563 119.7 485.043 119.484 484.5 119.484ZM541.812 74.4531H529.531C528.988 74.4531 528.468 74.6688 528.084 75.0526C527.7 75.4365 527.484 75.9571 527.484 76.5C527.484 77.0429 527.7 77.5635 528.084 77.9474C528.468 78.3312 528.988 78.5469 529.531 78.5469H541.812C542.355 78.5469 542.876 78.3312 543.26 77.9474C543.644 77.5635 543.859 77.0429 543.859 76.5C543.859 75.9571 543.644 75.4365 543.26 75.0526C542.876 74.6688 542.355 74.4531 541.812 74.4531Z" fill="white"/>
</svg>
