<svg width="585" height="205" viewBox="0 0 585 205" fill="none" xmlns="http://www.w3.org/2000/svg">
<rect width="585" height="205" rx="93" fill="#B1421B"/>
<path d="M250.686 103.049C250.656 103.342 250.532 103.591 250.312 103.796C250.092 103.987 249.836 104.082 249.543 104.082C249.191 104.082 248.906 103.958 248.686 103.708C248.481 103.445 248.378 103.174 248.378 102.896V102.808L249.147 94.8975C247.155 95.1025 245.163 95.271 243.171 95.4028C241.193 95.5347 239.208 95.6226 237.216 95.6665L237.041 109.707C238.242 109.707 239.377 109.648 240.446 109.531C241.516 109.399 242.556 109.246 243.566 109.07C243.625 109.041 243.698 109.026 243.786 109.026C244.064 109.026 244.306 109.114 244.511 109.29C244.731 109.465 244.863 109.692 244.907 109.971C244.907 110.352 244.819 110.659 244.643 110.894C244.467 111.128 244.24 111.267 243.962 111.311C242.629 111.56 241.406 111.736 240.292 111.838C239.179 111.941 238.081 111.992 236.997 111.992L236.909 122.429C237.539 122.458 238.198 122.488 238.886 122.517C239.575 122.546 240.292 122.598 241.04 122.671C241.376 122.7 241.633 122.847 241.809 123.11C241.984 123.359 242.072 123.63 242.072 123.923C242.043 124.216 241.918 124.465 241.699 124.67C241.494 124.861 241.245 124.956 240.952 124.956H240.864C239.736 124.868 238.688 124.802 237.722 124.758C236.77 124.714 235.839 124.692 234.931 124.692C234.228 124.692 233.525 124.707 232.822 124.736C232.133 124.766 231.423 124.81 230.69 124.868C229.973 124.927 229.226 125 228.449 125.088C227.673 125.176 226.86 125.278 226.01 125.396H225.878C225.542 125.396 225.263 125.278 225.043 125.044C224.824 124.824 224.714 124.553 224.714 124.231C224.714 123.967 224.802 123.726 224.978 123.506C225.168 123.286 225.41 123.154 225.703 123.11C226.904 122.935 228.061 122.803 229.174 122.715L229.482 95.6665C228.94 95.6372 228.398 95.6152 227.856 95.6006C227.314 95.5859 226.757 95.564 226.186 95.5347C225.893 95.5054 225.637 95.3809 225.417 95.1611C225.212 94.9414 225.109 94.6704 225.109 94.3481C225.109 94.0405 225.227 93.7769 225.461 93.5571C225.695 93.3374 225.974 93.2275 226.296 93.2275H226.34C227.556 93.3008 228.771 93.3521 229.987 93.3813C231.218 93.396 232.441 93.4033 233.657 93.4033C235.415 93.4033 237.048 93.3813 238.557 93.3374C240.065 93.2935 241.486 93.2275 242.819 93.1396C244.167 93.0518 245.456 92.9492 246.687 92.832C247.917 92.7002 249.125 92.561 250.312 92.4146H250.444C250.781 92.4146 251.052 92.5317 251.257 92.7661C251.462 92.9858 251.564 93.2422 251.564 93.5352V93.689L250.686 103.049ZM272.856 113.442C272.314 111.787 271.743 110.264 271.142 108.872C270.542 107.466 269.948 106.206 269.362 105.093C268.791 103.965 268.242 102.983 267.714 102.148C267.202 101.299 266.762 100.603 266.396 100.061C265.034 102.375 263.811 104.639 262.727 106.851C261.657 109.048 260.705 111.245 259.87 113.442C261.042 113.574 262.17 113.684 263.254 113.772C264.338 113.845 265.415 113.882 266.484 113.882C267.539 113.882 268.586 113.845 269.626 113.772C270.681 113.684 271.757 113.574 272.856 113.442ZM287.841 125.505C287.812 125.505 287.783 125.498 287.753 125.483C287.724 125.483 287.695 125.469 287.666 125.439C286.333 125.234 285.014 125.088 283.71 125C282.421 124.912 281.132 124.868 279.843 124.868C278.569 124.868 277.309 124.912 276.064 125C274.833 125.088 273.603 125.234 272.373 125.439C272.343 125.469 272.314 125.483 272.285 125.483C272.255 125.498 272.226 125.505 272.197 125.505C271.875 125.505 271.596 125.381 271.362 125.132C271.142 124.883 271.032 124.612 271.032 124.319C271.032 124.055 271.12 123.813 271.296 123.594C271.486 123.374 271.728 123.242 272.021 123.198C272.607 123.081 273.2 122.993 273.801 122.935C274.401 122.861 275.017 122.788 275.646 122.715C275.573 122.437 275.485 122.092 275.383 121.682C275.28 121.257 275.141 120.759 274.965 120.188C274.804 119.617 274.606 118.958 274.372 118.21C274.152 117.449 273.889 116.592 273.581 115.64C272.336 115.815 271.135 115.955 269.978 116.057C268.82 116.145 267.656 116.189 266.484 116.189C265.297 116.189 264.096 116.145 262.88 116.057C261.665 115.955 260.39 115.815 259.057 115.64C258.281 117.954 257.651 120.247 257.167 122.517C258.076 122.546 258.984 122.62 259.892 122.737C260.815 122.839 261.752 122.993 262.705 123.198C262.968 123.242 263.181 123.374 263.342 123.594C263.518 123.813 263.605 124.055 263.605 124.319C263.605 124.656 263.474 124.934 263.21 125.154C262.961 125.388 262.697 125.505 262.419 125.505C262.375 125.505 262.338 125.491 262.309 125.461C262.28 125.447 262.243 125.439 262.199 125.439C261.232 125.234 260.28 125.081 259.343 124.978C258.42 124.875 257.497 124.824 256.574 124.824C255.666 124.824 254.772 124.875 253.894 124.978C253.015 125.081 252.121 125.234 251.213 125.439C251.169 125.439 251.132 125.447 251.103 125.461C251.074 125.491 251.037 125.505 250.993 125.505C250.656 125.505 250.378 125.388 250.158 125.154C249.938 124.919 249.829 124.641 249.829 124.319C249.829 124.055 249.909 123.821 250.07 123.616C250.231 123.411 250.451 123.271 250.729 123.198C251.389 123.037 252.048 122.913 252.707 122.825C253.381 122.737 254.069 122.664 254.772 122.605C255.271 120.188 255.922 117.771 256.728 115.354C257.534 112.937 258.493 110.498 259.606 108.037C260.734 105.562 262.023 103.049 263.474 100.5C264.924 97.9517 266.557 95.3296 268.374 92.6343C268.505 92.4585 268.652 92.334 268.813 92.2607C268.989 92.1875 269.157 92.1509 269.318 92.1509C269.494 92.1509 269.663 92.1875 269.824 92.2607C269.985 92.3193 270.117 92.4146 270.219 92.5464C273.295 96.4722 275.932 100.925 278.129 105.906C280.341 110.872 282.158 116.46 283.579 122.671C285.073 122.803 286.56 122.979 288.039 123.198C288.332 123.242 288.566 123.374 288.742 123.594C288.933 123.813 289.028 124.055 289.028 124.319C289.028 124.641 288.896 124.919 288.632 125.154C288.383 125.388 288.12 125.505 287.841 125.505ZM314.692 124.363C314.648 124.656 314.516 124.883 314.296 125.044C314.077 125.22 313.828 125.308 313.549 125.308H313.417C312.817 125.249 312.099 125.198 311.264 125.154C310.429 125.11 309.514 125.073 308.518 125.044C307.536 125.015 306.489 124.993 305.375 124.978C304.277 124.963 303.164 124.956 302.036 124.956C300.908 124.956 299.794 124.963 298.696 124.978C297.597 124.993 296.557 125.015 295.576 125.044C294.609 125.073 293.708 125.11 292.873 125.154C292.053 125.198 291.357 125.249 290.786 125.308H290.698C290.405 125.308 290.148 125.212 289.929 125.022C289.709 124.832 289.577 124.553 289.533 124.187C289.533 123.894 289.628 123.638 289.819 123.418C290.024 123.198 290.273 123.066 290.566 123.022C290.991 122.979 291.474 122.942 292.016 122.913C292.573 122.883 293.181 122.847 293.84 122.803L294.345 95.0293C293.085 94.9414 291.811 94.8096 290.522 94.6338C290.229 94.5898 289.987 94.458 289.797 94.2383C289.621 94.0186 289.533 93.7695 289.533 93.4912C289.577 93.1104 289.709 92.8247 289.929 92.6343C290.148 92.4292 290.405 92.3267 290.698 92.3267H290.83C292.368 92.561 293.891 92.7295 295.4 92.832C296.923 92.9199 298.432 92.9639 299.926 92.9639C300.834 92.9639 301.728 92.9492 302.607 92.9199C303.486 92.8906 304.365 92.832 305.244 92.7441H305.332C305.668 92.7441 305.947 92.8613 306.167 93.0957C306.386 93.3154 306.496 93.5864 306.496 93.9087C306.496 94.2017 306.394 94.458 306.188 94.6777C305.983 94.8828 305.727 95 305.419 95.0293C304.877 95.0732 304.328 95.1172 303.771 95.1611C303.229 95.1904 302.68 95.2197 302.124 95.249L301.398 122.671H302.036C303.032 122.671 304.021 122.678 305.002 122.693C305.983 122.708 306.928 122.729 307.836 122.759C308.759 122.773 309.624 122.795 310.429 122.825C311.235 122.854 311.96 122.891 312.604 122.935L314.23 113.75C314.274 113.457 314.406 113.223 314.626 113.047C314.846 112.856 315.087 112.761 315.351 112.761C315.673 112.761 315.952 112.886 316.186 113.135C316.42 113.369 316.538 113.633 316.538 113.926C316.538 113.97 316.53 114.006 316.516 114.036C316.501 114.065 316.494 114.102 316.494 114.146L314.692 124.363ZM344.179 124.363C344.135 124.656 344.003 124.883 343.784 125.044C343.564 125.22 343.315 125.308 343.037 125.308H342.905C342.304 125.249 341.586 125.198 340.751 125.154C339.917 125.11 339.001 125.073 338.005 125.044C337.023 125.015 335.976 124.993 334.863 124.978C333.764 124.963 332.651 124.956 331.523 124.956C330.395 124.956 329.282 124.963 328.183 124.978C327.084 124.993 326.044 125.015 325.063 125.044C324.096 125.073 323.195 125.11 322.36 125.154C321.54 125.198 320.844 125.249 320.273 125.308H320.185C319.892 125.308 319.636 125.212 319.416 125.022C319.196 124.832 319.064 124.553 319.021 124.187C319.021 123.894 319.116 123.638 319.306 123.418C319.511 123.198 319.76 123.066 320.053 123.022C320.478 122.979 320.961 122.942 321.503 122.913C322.06 122.883 322.668 122.847 323.327 122.803L323.833 95.0293C322.573 94.9414 321.298 94.8096 320.009 94.6338C319.716 94.5898 319.475 94.458 319.284 94.2383C319.108 94.0186 319.021 93.7695 319.021 93.4912C319.064 93.1104 319.196 92.8247 319.416 92.6343C319.636 92.4292 319.892 92.3267 320.185 92.3267H320.317C321.855 92.561 323.378 92.7295 324.887 92.832C326.411 92.9199 327.919 92.9639 329.414 92.9639C330.322 92.9639 331.215 92.9492 332.094 92.9199C332.973 92.8906 333.852 92.832 334.731 92.7441H334.819C335.156 92.7441 335.434 92.8613 335.654 93.0957C335.874 93.3154 335.983 93.5864 335.983 93.9087C335.983 94.2017 335.881 94.458 335.676 94.6777C335.471 94.8828 335.214 95 334.907 95.0293C334.365 95.0732 333.815 95.1172 333.259 95.1611C332.717 95.1904 332.167 95.2197 331.611 95.249L330.886 122.671H331.523C332.519 122.671 333.508 122.678 334.489 122.693C335.471 122.708 336.416 122.729 337.324 122.759C338.247 122.773 339.111 122.795 339.917 122.825C340.722 122.854 341.447 122.891 342.092 122.935L343.718 113.75C343.762 113.457 343.894 113.223 344.113 113.047C344.333 112.856 344.575 112.761 344.838 112.761C345.161 112.761 345.439 112.886 345.673 113.135C345.908 113.369 346.025 113.633 346.025 113.926C346.025 113.97 346.018 114.006 346.003 114.036C345.988 114.065 345.981 114.102 345.981 114.146L344.179 124.363Z" fill="#FFF7F6"/>
<path d="M481.348 75.1847C480.868 74.9601 480.489 74.5641 480.286 74.0744C477.373 67.1203 472.47 61.1821 466.193 57.0058C459.916 52.8296 452.545 50.6015 445.005 50.6015C437.466 50.6015 430.095 52.8296 423.817 57.0058C417.54 61.1821 412.638 67.1203 409.725 74.0744C409.522 74.5641 409.143 74.9601 408.662 75.1847C402.41 78.0751 397.11 82.6873 393.384 88.4812C389.658 94.2751 387.661 101.011 387.625 107.899C387.572 127.375 403.361 143.62 422.82 144.114C429.898 144.301 436.874 142.396 442.875 138.637V163.25C442.875 163.814 443.099 164.354 443.497 164.753C443.896 165.151 444.436 165.375 445 165.375C445.563 165.375 446.104 165.151 446.502 164.753C446.901 164.354 447.125 163.814 447.125 163.25V138.637C452.854 142.235 459.485 144.137 466.25 144.125H467.185C486.639 143.631 502.428 127.385 502.375 107.91C502.342 101.021 500.347 94.2836 496.623 88.4878C492.899 82.6919 487.6 78.0774 481.348 75.1847ZM467.073 139.875C460.494 140.06 454.02 138.184 448.559 134.509C448.112 134.213 447.63 133.972 447.125 133.792V109.312L471.451 97.1519C471.955 96.8997 472.339 96.4574 472.517 95.9224C472.695 95.3874 472.654 94.8035 472.402 94.2991C472.15 93.7947 471.707 93.4111 471.172 93.2328C470.637 93.0544 470.053 93.0959 469.549 93.3481L447.125 104.563V86.75C447.125 86.1864 446.901 85.6459 446.502 85.2474C446.104 84.8489 445.563 84.625 445 84.625C444.436 84.625 443.896 84.8489 443.497 85.2474C443.099 85.6459 442.875 86.1864 442.875 86.75V117.313L420.451 106.098C419.946 105.846 419.362 105.804 418.827 105.983C418.292 106.161 417.85 106.545 417.598 107.049C417.346 107.553 417.304 108.137 417.483 108.672C417.661 109.207 418.045 109.65 418.549 109.902L442.875 122.062V133.792C442.369 133.972 441.888 134.213 441.441 134.509C435.98 138.186 429.507 140.063 422.926 139.875C415.726 139.694 408.8 137.079 403.275 132.457C397.751 127.835 393.955 121.479 392.506 114.423C391.057 107.368 392.04 100.03 395.295 93.6048C398.55 87.1797 403.886 82.0464 410.431 79.0416C411.873 78.3738 413.011 77.1886 413.619 75.7213C416.207 69.537 420.565 64.2557 426.145 60.5413C431.726 56.8269 438.28 54.8452 444.984 54.8452C451.688 54.8452 458.242 56.8269 463.823 60.5413C469.403 64.2557 473.761 69.537 476.349 75.7213C476.957 77.1886 478.095 78.3738 479.536 79.0416C486.08 82.045 491.414 87.1756 494.67 93.5976C497.926 100.02 498.912 107.355 497.466 114.408C496.021 121.462 492.231 127.819 486.712 132.443C481.193 137.067 474.271 139.687 467.073 139.875Z" fill="white"/>
<path d="M395.761 164.993C395.776 165.077 395.821 165.153 395.887 165.206C395.954 165.259 396.038 165.285 396.123 165.281C402.622 164.918 407.556 162.403 409.324 158.553C410.531 155.911 410.117 152.996 408.153 150.315L409.808 148.229C409.866 148.157 409.892 148.064 409.882 147.972C409.871 147.881 409.825 147.797 409.752 147.739C409.68 147.682 409.588 147.656 409.496 147.666C409.404 147.677 409.32 147.723 409.263 147.796L407.607 149.882C406.004 149.198 404.432 148.943 402.976 149.11C401.641 149.262 400.375 149.781 399.318 150.61C395.969 153.205 394.639 158.582 395.761 164.993ZM399.747 151.16C401.789 149.578 404.406 149.332 407.157 150.45L400.076 159.369C400.018 159.442 399.992 159.534 400.002 159.626C400.013 159.717 400.06 159.801 400.132 159.859C400.204 159.916 400.297 159.942 400.388 159.932C400.48 159.921 400.564 159.875 400.621 159.802L407.702 150.882C409.414 153.307 409.77 155.912 408.691 158.26C407.061 161.813 402.477 164.16 396.395 164.567C395.41 158.551 396.656 153.554 399.747 151.16Z" fill="white"/>
<path d="M502.161 160.68C502.244 160.663 502.319 160.616 502.37 160.548C502.421 160.479 502.446 160.395 502.439 160.31C501.898 153.823 499.248 148.96 495.351 147.299C492.677 146.165 489.774 146.659 487.148 148.696L485.017 147.098C484.943 147.043 484.85 147.019 484.759 147.032C484.667 147.045 484.585 147.094 484.529 147.168C484.474 147.242 484.45 147.335 484.463 147.426C484.476 147.518 484.525 147.6 484.599 147.656L486.731 149.253C486.091 150.874 485.878 152.453 486.086 153.904C486.274 155.234 486.828 156.486 487.686 157.52C490.372 160.795 495.783 161.977 502.161 160.68ZM488.224 157.075C486.587 155.078 486.268 152.468 487.31 149.688L496.421 156.521C496.495 156.577 496.588 156.601 496.679 156.587C496.77 156.574 496.853 156.526 496.908 156.452C496.964 156.378 496.988 156.285 496.975 156.193C496.962 156.102 496.913 156.019 496.839 155.964L487.727 149.131C490.105 147.353 492.699 146.926 495.075 147.94C498.672 149.472 501.144 153.989 501.717 160.058C495.731 161.207 490.702 160.099 488.224 157.075Z" fill="white"/>
<path d="M534.627 149.395C534.638 149.31 534.618 149.225 534.57 149.154C534.522 149.083 534.45 149.033 534.368 149.012C528.069 147.406 522.614 148.32 519.774 151.456C517.831 153.61 517.35 156.511 518.416 159.655L516.213 161.144C516.136 161.196 516.084 161.276 516.066 161.367C516.049 161.457 516.068 161.551 516.119 161.628C516.171 161.704 516.251 161.757 516.342 161.774C516.432 161.792 516.526 161.773 516.603 161.721L518.806 160.231C520.127 161.364 521.549 162.079 522.985 162.357C524.302 162.613 525.664 162.498 526.92 162.026C530.889 160.56 533.77 155.838 534.627 149.395ZM526.676 161.374C524.257 162.267 521.69 161.716 519.405 159.826L528.828 153.456C528.905 153.404 528.958 153.324 528.975 153.234C528.993 153.143 528.973 153.049 528.922 152.973C528.87 152.896 528.79 152.843 528.7 152.826C528.609 152.808 528.515 152.828 528.439 152.879L519.016 159.25C518.113 156.426 518.557 153.838 520.289 151.926C522.909 149.03 527.979 148.171 533.895 149.61C533.026 155.636 530.339 160.022 526.676 161.374Z" fill="white"/>
</svg>
