<svg width="585" height="205" viewBox="0 0 585 205" fill="none" xmlns="http://www.w3.org/2000/svg">
<rect width="585" height="205" rx="96" fill="#59A64C"/>
<path d="M218.795 115.453C218.795 117.049 218.429 118.478 217.696 119.737C216.964 120.982 216.019 122.037 214.862 122.901C213.705 123.751 212.416 124.403 210.995 124.857C209.588 125.311 208.197 125.538 206.82 125.538C204.242 125.538 201.861 125.069 199.679 124.132C197.496 123.194 195.555 121.817 193.856 120.001V120.528C193.856 120.997 193.863 121.458 193.878 121.913C193.893 122.367 193.915 122.821 193.944 123.275V123.363C193.944 123.656 193.841 123.912 193.636 124.132C193.446 124.352 193.189 124.476 192.867 124.505C192.53 124.505 192.252 124.403 192.032 124.198C191.812 123.993 191.688 123.729 191.659 123.407C191.629 122.938 191.607 122.469 191.593 122C191.578 121.517 191.571 121.041 191.571 120.572C191.571 119.078 191.644 117.701 191.791 116.441C191.937 115.167 192.135 113.907 192.384 112.662C192.457 112.384 192.589 112.157 192.779 111.981C192.984 111.805 193.226 111.717 193.504 111.717C193.841 111.717 194.12 111.849 194.339 112.113C194.559 112.362 194.669 112.618 194.669 112.882C194.669 112.911 194.669 112.948 194.669 112.992C194.669 113.021 194.654 113.058 194.625 113.102C194.552 113.438 194.486 113.753 194.427 114.046C194.383 114.325 194.332 114.603 194.273 114.881C194.229 115.145 194.186 115.423 194.142 115.716C194.112 115.995 194.076 116.31 194.032 116.661C195.672 118.771 197.547 120.396 199.657 121.539C201.766 122.667 204.139 123.231 206.776 123.231C207.523 123.231 208.321 123.165 209.171 123.033C210.035 122.901 210.826 122.667 211.544 122.33C212.276 121.979 212.877 121.517 213.346 120.946C213.829 120.36 214.071 119.62 214.071 118.727C214.071 118.097 213.902 117.525 213.565 117.013C213.229 116.485 212.789 116.017 212.247 115.606C211.705 115.196 211.09 114.837 210.401 114.53C209.728 114.208 209.046 113.929 208.358 113.695C207.669 113.46 207.01 113.27 206.38 113.124C205.765 112.962 205.238 112.838 204.798 112.75C203.758 112.53 202.726 112.289 201.7 112.025C200.675 111.747 199.701 111.417 198.778 111.036C197.855 110.655 196.998 110.208 196.207 109.696C195.416 109.183 194.728 108.583 194.142 107.894C193.57 107.191 193.116 106.378 192.779 105.455C192.457 104.532 192.296 103.47 192.296 102.269C192.296 101.097 192.45 100.021 192.757 99.0391C193.08 98.043 193.519 97.1494 194.076 96.3584C194.632 95.5674 195.284 94.8789 196.031 94.293C196.793 93.6924 197.621 93.1943 198.514 92.7988C199.408 92.3887 200.345 92.0884 201.327 91.8979C202.323 91.6929 203.326 91.5903 204.337 91.5903C204.952 91.5903 205.604 91.6416 206.292 91.7441C206.996 91.832 207.691 91.9639 208.38 92.1396C209.068 92.3008 209.742 92.4985 210.401 92.7329C211.075 92.9526 211.698 93.2017 212.269 93.48C212.84 93.7437 213.346 94.0293 213.785 94.3369C214.225 94.6299 214.576 94.9302 214.84 95.2378C215.045 94.6812 215.265 94.1318 215.499 93.5898C215.748 93.0332 216.004 92.4766 216.268 91.9199C216.385 91.7148 216.532 91.561 216.708 91.4585C216.898 91.3413 217.096 91.2827 217.301 91.2827C217.638 91.2827 217.916 91.4072 218.136 91.6562C218.355 91.8906 218.465 92.1543 218.465 92.4473C218.465 92.6084 218.421 92.7769 218.333 92.9526C217.572 94.5347 216.942 96.124 216.444 97.7207C215.96 99.3027 215.616 100.907 215.411 102.533C215.382 102.826 215.257 103.067 215.038 103.258C214.833 103.434 214.583 103.521 214.291 103.521C213.954 103.521 213.675 103.397 213.456 103.148C213.236 102.899 213.126 102.65 213.126 102.401V102.269C213.302 100.716 213.617 99.1855 214.071 97.6768C213.983 97.4131 213.756 97.1348 213.39 96.8418C213.023 96.5342 212.569 96.2412 212.027 95.9629C211.5 95.6846 210.899 95.4209 210.226 95.1719C209.552 94.9082 208.863 94.6812 208.16 94.4907C207.457 94.3003 206.754 94.1465 206.051 94.0293C205.348 93.9121 204.703 93.8535 204.117 93.8535C203.224 93.8535 202.367 93.9487 201.546 94.1392C200.726 94.3296 199.994 94.6372 199.349 95.062C198.719 95.4868 198.207 96.0361 197.811 96.71C197.416 97.3691 197.21 98.1675 197.196 99.105C197.254 99.9253 197.474 100.636 197.855 101.236C198.25 101.822 198.734 102.335 199.305 102.774C199.891 103.214 200.55 103.587 201.283 103.895C202.015 104.188 202.755 104.444 203.502 104.664C204.264 104.869 205.003 105.052 205.721 105.213C206.439 105.36 207.091 105.499 207.677 105.631C209.156 105.982 210.57 106.378 211.917 106.817C213.265 107.257 214.444 107.835 215.455 108.553C216.48 109.271 217.293 110.187 217.894 111.3C218.495 112.398 218.795 113.783 218.795 115.453ZM249.601 103.434C249.601 102.247 249.417 101.2 249.051 100.292C248.7 99.3687 248.216 98.5703 247.601 97.8965C247 97.208 246.283 96.6294 245.448 96.1606C244.627 95.6772 243.749 95.2891 242.811 94.9961C241.874 94.6885 240.899 94.4614 239.889 94.3149C238.878 94.1685 237.889 94.0732 236.922 94.0293H235.384L234.901 112.574C235.355 112.691 235.846 112.779 236.373 112.838C236.9 112.896 237.457 112.926 238.043 112.926C239.581 112.926 241.046 112.728 242.438 112.333C243.844 111.922 245.074 111.322 246.129 110.531C247.198 109.74 248.041 108.751 248.656 107.564C249.286 106.378 249.601 105.001 249.601 103.434ZM238.043 115.233C237.457 115.233 236.893 115.211 236.351 115.167C235.824 115.108 235.326 115.021 234.857 114.903L234.681 121.847C235.238 121.891 235.802 121.935 236.373 121.979C236.959 122.022 237.545 122.066 238.131 122.11C238.424 122.154 238.666 122.286 238.856 122.506C239.061 122.726 239.164 122.982 239.164 123.275C239.164 123.612 239.039 123.883 238.79 124.088C238.541 124.293 238.277 124.396 237.999 124.396H237.911C236.739 124.278 235.567 124.19 234.396 124.132C233.238 124.073 232.074 124.044 230.902 124.044C229.745 124.044 228.595 124.073 227.452 124.132C226.324 124.19 225.189 124.278 224.046 124.396H223.958C223.636 124.396 223.358 124.278 223.124 124.044C222.904 123.824 222.794 123.568 222.794 123.275C222.794 122.982 222.889 122.726 223.08 122.506C223.285 122.286 223.534 122.154 223.827 122.11C224.369 122.066 224.911 122.022 225.453 121.979C226.009 121.935 226.559 121.891 227.101 121.847L227.606 94.5786C226.522 94.7544 225.716 94.9302 225.189 95.106C224.676 95.2817 224.405 95.3696 224.376 95.3696C224.2 95.4429 224.061 95.4795 223.958 95.4795C223.636 95.4795 223.358 95.355 223.124 95.106C222.904 94.8569 222.794 94.5859 222.794 94.293C222.794 94.0732 222.853 93.8608 222.97 93.6558C223.102 93.4507 223.285 93.3042 223.519 93.2163C223.563 93.2017 223.834 93.1211 224.332 92.9746C224.83 92.8135 225.548 92.6377 226.485 92.4473C227.438 92.2568 228.617 92.0884 230.023 91.9419C231.429 91.7808 233.07 91.7002 234.945 91.7002C235.267 91.7002 235.597 91.7002 235.934 91.7002C236.285 91.7002 236.629 91.7148 236.966 91.7441C238.241 91.7881 239.493 91.9126 240.724 92.1177C241.954 92.3228 243.126 92.6377 244.239 93.0625C245.353 93.4727 246.371 93.9854 247.293 94.6006C248.231 95.2158 249.044 95.9556 249.732 96.8198C250.421 97.6694 250.956 98.6436 251.336 99.7422C251.717 100.841 251.908 102.071 251.908 103.434C251.908 104.723 251.717 105.909 251.336 106.993C250.956 108.062 250.428 109.037 249.754 109.916C249.095 110.78 248.319 111.549 247.425 112.223C246.532 112.882 245.565 113.438 244.525 113.893C243.5 114.332 242.43 114.669 241.317 114.903C240.218 115.123 239.127 115.233 238.043 115.233ZM282.779 101.5C282.779 100.475 282.611 99.5811 282.274 98.8193C281.937 98.043 281.461 97.3765 280.846 96.8198C280.245 96.2632 279.52 95.8091 278.67 95.4575C277.821 95.0913 276.891 94.8057 275.88 94.6006C274.869 94.3809 273.785 94.2344 272.628 94.1611C271.485 94.0732 270.306 94.0293 269.09 94.0293C268.753 94.0293 268.446 94.0293 268.167 94.0293C267.889 94.0293 267.625 94.0439 267.376 94.0732L266.981 109.015C267.538 109.132 268.146 109.212 268.805 109.256C269.464 109.3 270.145 109.322 270.848 109.322C271.712 109.322 272.606 109.271 273.529 109.168C274.452 109.066 275.353 108.897 276.231 108.663C277.125 108.429 277.967 108.121 278.758 107.74C279.549 107.345 280.238 106.861 280.824 106.29C281.424 105.704 281.9 105.016 282.252 104.225C282.604 103.434 282.779 102.525 282.779 101.5ZM286.427 115.409C286.427 115.438 286.434 115.519 286.449 115.65C286.463 115.768 286.471 115.943 286.471 116.178C286.471 117.364 286.288 118.463 285.921 119.474C285.57 120.484 285.064 121.356 284.405 122.088C283.746 122.806 282.948 123.37 282.01 123.78C281.073 124.19 280.025 124.396 278.868 124.396H278.802C277.733 124.366 276.788 124.19 275.968 123.868C275.162 123.546 274.452 123.121 273.836 122.594C273.236 122.052 272.73 121.422 272.32 120.704C271.91 119.986 271.581 119.217 271.332 118.397C271.083 117.562 270.899 116.698 270.782 115.804C270.68 114.911 270.628 114.024 270.628 113.146C270.628 112.882 270.636 112.625 270.65 112.376C270.665 112.113 270.672 111.878 270.672 111.673C270.013 111.673 269.369 111.644 268.739 111.585C268.124 111.527 267.523 111.454 266.937 111.366L266.607 122.748C266.607 123.099 266.49 123.377 266.256 123.583C266.036 123.773 265.765 123.868 265.443 123.868C265.428 123.868 265.128 123.875 264.542 123.89C263.971 123.89 263.231 123.905 262.323 123.934C261.415 123.963 260.411 124.015 259.312 124.088C258.214 124.161 257.137 124.264 256.083 124.396H255.951C255.614 124.396 255.335 124.278 255.116 124.044C254.896 123.824 254.786 123.568 254.786 123.275C254.786 122.982 254.874 122.726 255.05 122.506C255.24 122.286 255.482 122.154 255.775 122.11C256.317 122.037 256.866 121.979 257.423 121.935C257.994 121.891 258.551 121.847 259.093 121.803L259.598 94.7104C258.514 94.8862 257.694 95.04 257.137 95.1719C256.581 95.3037 256.288 95.3696 256.258 95.3696C256.156 95.4429 256.053 95.4795 255.951 95.4795C255.614 95.4795 255.335 95.3623 255.116 95.1279C254.896 94.8936 254.786 94.6152 254.786 94.293C254.786 94.0439 254.859 93.8242 255.006 93.6338C255.152 93.4287 255.35 93.2896 255.599 93.2163C255.643 93.2017 255.951 93.1138 256.522 92.9526C257.093 92.7915 257.936 92.623 259.049 92.4473C260.177 92.2715 261.568 92.1104 263.224 91.9639C264.894 91.8174 266.849 91.7441 269.09 91.7441C270.526 91.8174 271.91 91.9199 273.243 92.0518C274.591 92.1836 275.858 92.3887 277.044 92.667C278.231 92.9307 279.315 93.2896 280.296 93.7437C281.278 94.1831 282.12 94.7544 282.823 95.4575C283.541 96.1606 284.09 97.0103 284.471 98.0063C284.867 98.9878 285.064 100.152 285.064 101.5C285.064 102.569 284.896 103.58 284.559 104.532C284.237 105.47 283.783 106.327 283.197 107.103C282.611 107.865 281.9 108.531 281.065 109.103C280.245 109.659 279.344 110.099 278.363 110.421C278.333 110.758 278.312 111.102 278.297 111.454C278.282 111.805 278.275 112.164 278.275 112.53C278.275 112.838 278.282 113.27 278.297 113.827C278.312 114.383 278.348 114.991 278.407 115.65C278.465 116.31 278.553 116.983 278.67 117.672C278.802 118.36 278.971 118.99 279.176 119.562C279.396 120.118 279.667 120.58 279.989 120.946C280.311 121.297 280.699 121.473 281.153 121.473C281.739 121.473 282.223 121.275 282.604 120.88C282.984 120.484 283.292 120.008 283.526 119.452C283.761 118.88 283.922 118.294 284.01 117.694C284.112 117.093 284.164 116.588 284.164 116.178C284.164 116.017 284.156 115.885 284.142 115.782C284.127 115.68 284.12 115.584 284.12 115.497C284.12 115.16 284.237 114.889 284.471 114.684C284.72 114.479 284.991 114.376 285.284 114.376C285.577 114.376 285.833 114.479 286.053 114.684C286.273 114.874 286.397 115.116 286.427 115.409ZM307.037 93.3042C307.037 93.5972 306.935 93.8535 306.729 94.0732C306.524 94.2783 306.268 94.3955 305.96 94.4248C305.418 94.4834 304.876 94.5347 304.334 94.5786C303.792 94.6079 303.236 94.6372 302.665 94.6665L301.961 121.759C302.518 121.803 303.082 121.847 303.653 121.891C304.239 121.935 304.825 121.979 305.411 122.022C305.748 122.096 306.004 122.25 306.18 122.484C306.356 122.704 306.444 122.967 306.444 123.275C306.415 123.597 306.283 123.846 306.048 124.022C305.829 124.212 305.572 124.308 305.279 124.308H305.191C304.02 124.19 302.848 124.103 301.676 124.044C300.519 123.985 299.354 123.956 298.182 123.956C297.025 123.956 295.875 123.985 294.732 124.044C293.604 124.103 292.469 124.19 291.327 124.308H291.239C290.902 124.308 290.624 124.198 290.404 123.978C290.184 123.744 290.074 123.48 290.074 123.187C290.074 122.894 290.169 122.638 290.36 122.418C290.565 122.198 290.814 122.066 291.107 122.022C291.649 121.979 292.191 121.935 292.733 121.891C293.29 121.847 293.839 121.803 294.381 121.759L294.886 94.4248C293.626 94.3369 292.352 94.2051 291.063 94.0293C290.77 93.9854 290.528 93.8535 290.338 93.6338C290.162 93.4141 290.074 93.1724 290.074 92.9087C290.074 92.5278 290.206 92.2422 290.47 92.0518C290.733 91.8467 290.99 91.7441 291.239 91.7441H291.371C292.923 91.9639 294.454 92.125 295.963 92.2275C297.472 92.3154 298.973 92.3594 300.467 92.3594C301.375 92.3594 302.269 92.3447 303.148 92.3154C304.027 92.2861 304.906 92.2275 305.785 92.1396H305.873C306.209 92.1396 306.488 92.2568 306.708 92.4912C306.927 92.7256 307.037 92.9966 307.037 93.3042ZM343.709 92.0957C343.709 92.3447 343.636 92.5791 343.49 92.7988C343.358 93.0039 343.167 93.1431 342.918 93.2163C342.406 93.3481 341.9 93.4727 341.402 93.5898C340.904 93.6924 340.399 93.7803 339.886 93.8535C340.267 96.168 340.531 98.4165 340.677 100.599C340.838 102.782 340.919 104.942 340.919 107.081C340.919 109.981 340.802 112.779 340.567 115.475C340.348 118.17 340.077 120.814 339.754 123.407C339.667 123.729 339.513 123.971 339.293 124.132C339.088 124.308 338.854 124.396 338.59 124.396C338.092 124.396 337.748 124.161 337.557 123.692C337.147 122.696 336.583 121.473 335.865 120.023C335.162 118.558 334.364 116.991 333.47 115.321C332.591 113.636 331.654 111.893 330.658 110.091C329.676 108.29 328.709 106.546 327.757 104.862C326.82 103.177 325.934 101.603 325.099 100.138C324.264 98.6582 323.553 97.4058 322.967 96.3804L322.308 121.847C322.865 121.891 323.429 121.935 324 121.979C324.586 122.022 325.172 122.066 325.758 122.11C326.051 122.154 326.292 122.286 326.483 122.506C326.688 122.726 326.791 122.982 326.791 123.275C326.791 123.612 326.666 123.883 326.417 124.088C326.168 124.293 325.904 124.396 325.626 124.396H325.538C324.366 124.278 323.194 124.19 322.022 124.132C320.865 124.073 319.701 124.044 318.529 124.044C317.372 124.044 316.222 124.073 315.079 124.132C313.951 124.19 312.816 124.278 311.673 124.396H311.585C311.263 124.396 310.985 124.278 310.75 124.044C310.531 123.824 310.421 123.568 310.421 123.275C310.421 122.982 310.516 122.726 310.707 122.506C310.912 122.286 311.161 122.154 311.454 122.11C311.996 122.066 312.538 122.022 313.08 121.979C313.636 121.935 314.186 121.891 314.728 121.847L315.233 94.1172C313.973 94.0293 312.699 93.8975 311.41 93.7217C311.117 93.6777 310.875 93.5459 310.685 93.3262C310.509 93.0918 310.421 92.8281 310.421 92.5352C310.421 92.1836 310.553 91.9126 310.816 91.7222C311.08 91.5171 311.336 91.4146 311.585 91.4146H311.717C313.285 91.6196 314.815 91.7808 316.31 91.8979C317.818 92.0005 319.32 92.0518 320.814 92.0518H322.44C322.455 92.0518 322.499 92.0591 322.572 92.0737C322.645 92.0737 322.726 92.0884 322.813 92.1177C322.916 92.147 323.019 92.1982 323.121 92.2715C323.238 92.3447 323.341 92.4473 323.429 92.5791C323.487 92.6816 323.678 93.0112 324 93.5679C324.322 94.1245 324.74 94.8496 325.252 95.7432C325.765 96.6367 326.351 97.6694 327.01 98.8413C327.684 100.013 328.395 101.266 329.142 102.599C329.903 103.932 330.68 105.316 331.471 106.751C332.262 108.187 333.038 109.623 333.8 111.058C334.576 112.479 335.316 113.871 336.019 115.233C336.737 116.581 337.381 117.84 337.953 119.012C338.143 117.093 338.304 115.145 338.436 113.167C338.568 111.19 338.634 109.161 338.634 107.081C338.634 105.001 338.553 102.877 338.392 100.709C338.231 98.541 337.967 96.3145 337.601 94.0293C337.411 94.0586 337.228 94.0732 337.052 94.0732C336.876 94.0732 336.686 94.0732 336.48 94.0732C335.616 94.0732 334.715 94.0293 333.778 93.9414C333.485 93.9121 333.236 93.7876 333.031 93.5679C332.84 93.3335 332.745 93.0698 332.745 92.7769C332.745 92.4546 332.862 92.1836 333.097 91.9639C333.346 91.7441 333.617 91.6343 333.91 91.6343H334.042C334.452 91.6929 334.854 91.7368 335.25 91.7661C335.66 91.7808 336.07 91.7881 336.48 91.7881C337.491 91.7881 338.48 91.7222 339.447 91.5903C340.414 91.4585 341.358 91.2681 342.281 91.019C342.34 90.9897 342.442 90.9751 342.589 90.9751C342.911 90.9751 343.175 91.0923 343.38 91.3267C343.6 91.5464 343.709 91.8027 343.709 92.0957ZM378.866 110.223C378.749 110.223 378.675 110.208 378.646 110.179C377.884 110.047 377.159 109.959 376.471 109.916C375.797 109.857 375.13 109.813 374.471 109.784C375.013 110.414 375.467 111.183 375.833 112.091C376.214 112.984 376.405 114.046 376.405 115.277C376.405 116.449 376.222 117.511 375.855 118.463C375.504 119.4 375.021 120.243 374.405 120.99C373.79 121.722 373.065 122.359 372.23 122.901C371.41 123.429 370.531 123.868 369.593 124.22C368.67 124.571 367.711 124.828 366.715 124.989C365.719 125.165 364.745 125.252 363.792 125.252C361.302 125.179 359.076 124.762 357.113 124C355.15 123.224 353.48 122.14 352.103 120.748C350.726 119.356 349.671 117.672 348.939 115.694C348.221 113.717 347.862 111.476 347.862 108.971C347.862 106.744 348.097 104.767 348.565 103.038C349.034 101.295 349.671 99.7715 350.477 98.4678C351.297 97.1494 352.257 96.0435 353.355 95.1499C354.454 94.2417 355.619 93.5093 356.849 92.9526C358.094 92.3813 359.383 91.9712 360.716 91.7222C362.049 91.4585 363.36 91.3267 364.649 91.3267C365.938 91.3267 367.096 91.4658 368.121 91.7441C369.146 92.0078 370.062 92.3447 370.868 92.7549C371.673 93.165 372.362 93.6265 372.933 94.1392C373.519 94.6372 374.002 95.1133 374.383 95.5674L375.592 92.0957C375.68 91.8613 375.826 91.6782 376.031 91.5464C376.236 91.3999 376.449 91.3267 376.668 91.3267C377.035 91.3267 377.32 91.4585 377.525 91.7222C377.73 91.9712 377.833 92.2275 377.833 92.4912C377.833 92.5352 377.826 92.5938 377.811 92.667C377.796 92.7256 377.774 92.7915 377.745 92.8647L374.251 103.082C374.178 103.302 374.039 103.485 373.834 103.631C373.629 103.763 373.402 103.829 373.153 103.829C372.816 103.829 372.538 103.712 372.318 103.478C372.098 103.229 371.988 102.958 371.988 102.665C371.988 102.621 371.996 102.569 372.01 102.511C372.025 102.452 372.047 102.386 372.076 102.313L373.482 98.2041C373.116 97.6328 372.669 97.0835 372.142 96.5562C371.629 96.0142 371.058 95.5381 370.428 95.1279C369.813 94.7178 369.161 94.3882 368.473 94.1392C367.784 93.8901 367.096 93.7656 366.407 93.7656C364.649 93.7656 363.097 94.1465 361.749 94.9082C360.401 95.6553 359.266 96.688 358.343 98.0063C357.435 99.3101 356.747 100.833 356.278 102.577C355.809 104.32 355.575 106.18 355.575 108.158C355.575 109.037 355.626 110.011 355.729 111.08C355.846 112.149 356.029 113.233 356.278 114.332C356.542 115.431 356.878 116.493 357.289 117.518C357.713 118.543 358.233 119.459 358.849 120.265C359.464 121.07 360.182 121.715 361.002 122.198C361.822 122.682 362.767 122.923 363.836 122.923C365.624 122.923 367.162 122.704 368.451 122.264C369.74 121.825 370.794 121.246 371.615 120.528C372.45 119.811 373.065 118.99 373.46 118.067C373.856 117.145 374.054 116.2 374.054 115.233C374.054 114.383 373.937 113.651 373.702 113.036C373.468 112.406 373.189 111.886 372.867 111.476C372.545 111.051 372.215 110.721 371.878 110.487C371.542 110.252 371.278 110.091 371.087 110.003C370.311 110.106 369.615 110.238 369 110.399C368.399 110.56 367.887 110.714 367.462 110.86C367.052 111.007 366.729 111.139 366.495 111.256C366.275 111.358 366.158 111.41 366.144 111.41C365.982 111.527 365.799 111.585 365.594 111.585C365.257 111.585 364.979 111.468 364.759 111.234C364.54 110.985 364.43 110.714 364.43 110.421C364.43 109.996 364.627 109.659 365.023 109.41C365.067 109.396 365.301 109.286 365.726 109.081C366.151 108.875 366.744 108.656 367.506 108.421C368.282 108.172 369.22 107.953 370.318 107.762C371.432 107.572 372.691 107.477 374.098 107.477C375.606 107.477 377.262 107.63 379.063 107.938C379.327 107.982 379.547 108.114 379.723 108.333C379.913 108.539 380.008 108.78 380.008 109.059C380.008 109.439 379.876 109.732 379.613 109.938C379.349 110.128 379.1 110.223 378.866 110.223Z" fill="#FFF7F6"/>
<path d="M496.312 72.5781C490.247 72.5744 484.263 73.9686 478.824 76.6524C472.112 64.1459 459.918 57.9211 459.356 57.6517C459.093 57.5202 458.803 57.4518 458.509 57.4518C458.216 57.4518 457.926 57.5202 457.663 57.6517C457.125 57.9211 444.902 64.1459 438.195 76.6524C432.75 73.9658 426.759 72.5715 420.688 72.5781C420.186 72.5781 419.705 72.7773 419.351 73.1319C418.996 73.4865 418.797 73.9673 418.797 74.4688V93.375C418.809 103.574 422.741 113.378 429.779 120.759C436.817 128.14 446.423 132.534 456.609 133.031V154.598L436.659 144.62C436.436 144.509 436.194 144.443 435.947 144.425C435.699 144.408 435.45 144.439 435.214 144.518C434.979 144.596 434.761 144.721 434.573 144.883C434.385 145.046 434.231 145.244 434.12 145.466C434.009 145.689 433.943 145.931 433.925 146.178C433.908 146.426 433.939 146.675 434.018 146.911C434.096 147.146 434.221 147.364 434.383 147.552C434.546 147.74 434.744 147.894 434.966 148.005L457.654 159.348C457.917 159.48 458.206 159.548 458.5 159.548C458.794 159.548 459.083 159.48 459.346 159.348L482.034 148.005C482.256 147.894 482.454 147.74 482.617 147.552C482.779 147.364 482.904 147.146 482.982 146.911C483.061 146.675 483.092 146.426 483.075 146.178C483.057 145.931 482.991 145.689 482.88 145.466C482.769 145.244 482.615 145.046 482.427 144.883C482.239 144.721 482.021 144.596 481.786 144.518C481.55 144.439 481.301 144.408 481.053 144.425C480.806 144.443 480.564 144.509 480.341 144.62L460.391 154.598V133.031C470.577 132.534 480.183 128.14 487.221 120.759C494.259 113.378 498.191 103.574 498.203 93.375V74.4688C498.203 73.9673 498.004 73.4865 497.649 73.1319C497.295 72.7773 496.814 72.5781 496.312 72.5781ZM458.5 61.4991C461.293 63.0919 470.316 68.8016 475.516 78.4816C467.445 83.4652 461.413 91.1595 458.5 100.186C455.587 91.1595 449.555 83.4652 441.484 78.4816C446.684 68.83 455.711 63.0967 458.5 61.4991ZM422.578 93.375V76.4067C431.761 76.9033 440.405 80.898 446.735 87.57C453.064 94.2421 456.597 103.085 456.609 112.281V129.25C447.426 128.753 438.782 124.758 432.453 118.086C426.124 111.414 422.59 102.571 422.578 93.375ZM494.422 93.375C494.41 102.571 490.876 111.414 484.547 118.086C478.218 124.758 469.574 128.753 460.391 129.25V112.281C460.403 103.085 463.936 94.2421 470.265 87.57C476.595 80.898 485.239 76.9033 494.422 76.4067V93.375Z" fill="white"/>
</svg>
