<svg width="590" height="205" viewBox="0 0 590 205" fill="none" xmlns="http://www.w3.org/2000/svg">
<rect width="590" height="205" rx="94" fill="#DAB55D"/>
<path d="M207.795 115.453C207.795 117.049 207.429 118.478 206.696 119.737C205.964 120.982 205.019 122.037 203.862 122.901C202.705 123.751 201.416 124.403 199.995 124.857C198.588 125.311 197.197 125.538 195.82 125.538C193.242 125.538 190.861 125.069 188.679 124.132C186.496 123.194 184.555 121.817 182.856 120.001V120.528C182.856 120.997 182.863 121.458 182.878 121.913C182.893 122.367 182.915 122.821 182.944 123.275V123.363C182.944 123.656 182.841 123.912 182.636 124.132C182.446 124.352 182.189 124.476 181.867 124.505C181.53 124.505 181.252 124.403 181.032 124.198C180.812 123.993 180.688 123.729 180.659 123.407C180.629 122.938 180.607 122.469 180.593 122C180.578 121.517 180.571 121.041 180.571 120.572C180.571 119.078 180.644 117.701 180.791 116.441C180.937 115.167 181.135 113.907 181.384 112.662C181.457 112.384 181.589 112.157 181.779 111.981C181.984 111.805 182.226 111.717 182.504 111.717C182.841 111.717 183.12 111.849 183.339 112.113C183.559 112.362 183.669 112.618 183.669 112.882C183.669 112.911 183.669 112.948 183.669 112.992C183.669 113.021 183.654 113.058 183.625 113.102C183.552 113.438 183.486 113.753 183.427 114.046C183.383 114.325 183.332 114.603 183.273 114.881C183.229 115.145 183.186 115.423 183.142 115.716C183.112 115.995 183.076 116.31 183.032 116.661C184.672 118.771 186.547 120.396 188.657 121.539C190.766 122.667 193.139 123.231 195.776 123.231C196.523 123.231 197.321 123.165 198.171 123.033C199.035 122.901 199.826 122.667 200.544 122.33C201.276 121.979 201.877 121.517 202.346 120.946C202.829 120.36 203.071 119.62 203.071 118.727C203.071 118.097 202.902 117.525 202.565 117.013C202.229 116.485 201.789 116.017 201.247 115.606C200.705 115.196 200.09 114.837 199.401 114.53C198.728 114.208 198.046 113.929 197.358 113.695C196.669 113.46 196.01 113.27 195.38 113.124C194.765 112.962 194.238 112.838 193.798 112.75C192.758 112.53 191.726 112.289 190.7 112.025C189.675 111.747 188.701 111.417 187.778 111.036C186.855 110.655 185.998 110.208 185.207 109.696C184.416 109.183 183.728 108.583 183.142 107.894C182.57 107.191 182.116 106.378 181.779 105.455C181.457 104.532 181.296 103.47 181.296 102.269C181.296 101.097 181.45 100.021 181.757 99.0391C182.08 98.043 182.519 97.1494 183.076 96.3584C183.632 95.5674 184.284 94.8789 185.031 94.293C185.793 93.6924 186.621 93.1943 187.514 92.7988C188.408 92.3887 189.345 92.0884 190.327 91.8979C191.323 91.6929 192.326 91.5903 193.337 91.5903C193.952 91.5903 194.604 91.6416 195.292 91.7441C195.996 91.832 196.691 91.9639 197.38 92.1396C198.068 92.3008 198.742 92.4985 199.401 92.7329C200.075 92.9526 200.698 93.2017 201.269 93.48C201.84 93.7437 202.346 94.0293 202.785 94.3369C203.225 94.6299 203.576 94.9302 203.84 95.2378C204.045 94.6812 204.265 94.1318 204.499 93.5898C204.748 93.0332 205.004 92.4766 205.268 91.9199C205.385 91.7148 205.532 91.561 205.708 91.4585C205.898 91.3413 206.096 91.2827 206.301 91.2827C206.638 91.2827 206.916 91.4072 207.136 91.6562C207.355 91.8906 207.465 92.1543 207.465 92.4473C207.465 92.6084 207.421 92.7769 207.333 92.9526C206.572 94.5347 205.942 96.124 205.444 97.7207C204.96 99.3027 204.616 100.907 204.411 102.533C204.382 102.826 204.257 103.067 204.038 103.258C203.833 103.434 203.583 103.521 203.291 103.521C202.954 103.521 202.675 103.397 202.456 103.148C202.236 102.899 202.126 102.65 202.126 102.401V102.269C202.302 100.716 202.617 99.1855 203.071 97.6768C202.983 97.4131 202.756 97.1348 202.39 96.8418C202.023 96.5342 201.569 96.2412 201.027 95.9629C200.5 95.6846 199.899 95.4209 199.226 95.1719C198.552 94.9082 197.863 94.6812 197.16 94.4907C196.457 94.3003 195.754 94.1465 195.051 94.0293C194.348 93.9121 193.703 93.8535 193.117 93.8535C192.224 93.8535 191.367 93.9487 190.546 94.1392C189.726 94.3296 188.994 94.6372 188.349 95.062C187.719 95.4868 187.207 96.0361 186.811 96.71C186.416 97.3691 186.21 98.1675 186.196 99.105C186.254 99.9253 186.474 100.636 186.855 101.236C187.25 101.822 187.734 102.335 188.305 102.774C188.891 103.214 189.55 103.587 190.283 103.895C191.015 104.188 191.755 104.444 192.502 104.664C193.264 104.869 194.003 105.052 194.721 105.213C195.439 105.36 196.091 105.499 196.677 105.631C198.156 105.982 199.57 106.378 200.917 106.817C202.265 107.257 203.444 107.835 204.455 108.553C205.48 109.271 206.293 110.187 206.894 111.3C207.495 112.398 207.795 113.783 207.795 115.453ZM242.841 93.0405C242.841 93.3628 242.739 93.6338 242.534 93.8535C242.343 94.0586 242.102 94.1758 241.809 94.2051L238.205 94.4907C238.278 95.1353 238.374 95.9849 238.491 97.0396C238.608 98.0796 238.718 99.2515 238.82 100.555C238.923 101.844 239.011 103.221 239.084 104.686C239.172 106.136 239.223 107.579 239.238 109.015C239.194 110.553 239.069 112.025 238.864 113.431C238.659 114.837 238.352 116.156 237.941 117.386C237.546 118.602 237.026 119.708 236.381 120.704C235.737 121.7 234.953 122.557 234.03 123.275C233.107 123.978 232.023 124.52 230.778 124.901C229.548 125.296 228.142 125.494 226.56 125.494C224.816 125.494 223.308 125.208 222.033 124.637C220.759 124.081 219.675 123.333 218.781 122.396C217.888 121.444 217.163 120.345 216.606 119.1C216.049 117.855 215.61 116.551 215.288 115.189C214.98 113.827 214.768 112.45 214.65 111.058C214.548 109.667 214.497 108.341 214.497 107.081C214.497 105.704 214.526 104.393 214.584 103.148C214.658 101.903 214.738 100.768 214.826 99.7422C214.929 98.7021 215.031 97.7866 215.134 96.9956C215.251 96.1899 215.354 95.5308 215.441 95.0181H212.827C212.49 95.0181 212.211 94.9082 211.992 94.6885C211.772 94.4541 211.662 94.1758 211.662 93.8535C211.662 93.5312 211.772 93.2603 211.992 93.0405C212.211 92.8062 212.49 92.689 212.827 92.689H226.604C226.911 92.689 227.182 92.8062 227.417 93.0405C227.651 93.2603 227.768 93.5312 227.768 93.8535C227.768 94.1758 227.651 94.4541 227.417 94.6885C227.182 94.9082 226.911 95.0181 226.604 95.0181H223.264C223.19 95.4868 223.103 96.146 223 96.9956C222.912 97.8306 222.817 98.7974 222.714 99.896C222.612 100.995 222.524 102.203 222.451 103.521C222.392 104.84 222.363 106.209 222.363 107.63C222.363 108.465 222.377 109.417 222.407 110.487C222.451 111.556 222.546 112.655 222.692 113.783C222.854 114.911 223.073 116.017 223.352 117.101C223.645 118.185 224.04 119.151 224.538 120.001C225.036 120.851 225.651 121.539 226.384 122.066C227.131 122.579 228.024 122.835 229.064 122.835C230.427 122.835 231.599 122.477 232.58 121.759C233.576 121.041 234.389 120.06 235.019 118.814C235.664 117.569 236.14 116.104 236.447 114.42C236.755 112.735 236.909 110.934 236.909 109.015C236.909 107.594 236.872 106.166 236.799 104.73C236.726 103.28 236.638 101.917 236.535 100.643C236.433 99.354 236.323 98.1968 236.206 97.1714C236.088 96.1313 235.993 95.311 235.92 94.7104L232.229 95.0181H232.097C231.774 95.0181 231.503 94.9009 231.284 94.6665C231.064 94.4175 230.954 94.1465 230.954 93.8535C230.954 93.5605 231.049 93.3042 231.24 93.0845C231.445 92.8647 231.694 92.7329 231.987 92.689L241.633 91.9199H241.721C242.028 91.9199 242.292 92.0371 242.512 92.2715C242.731 92.4912 242.841 92.7476 242.841 93.0405ZM289.907 123.363C289.526 123.333 289.145 123.319 288.764 123.319C288.383 123.319 288.002 123.319 287.622 123.319C285.512 123.319 283.432 123.414 281.381 123.604C279.345 123.78 277.324 124.044 275.317 124.396H275.097C274.76 124.396 274.489 124.278 274.284 124.044C274.079 123.824 273.977 123.568 273.977 123.275C273.977 123.011 274.057 122.77 274.218 122.55C274.394 122.33 274.628 122.198 274.921 122.154C275.463 122.037 276.013 121.935 276.569 121.847C277.126 121.759 277.705 121.678 278.305 121.605C278.276 121.166 278.225 120.506 278.151 119.627C278.093 118.749 278.005 117.708 277.888 116.507C277.785 115.306 277.653 113.973 277.492 112.508C277.331 111.043 277.141 109.498 276.921 107.872C276.701 106.246 276.445 104.576 276.152 102.862C275.859 101.134 275.522 99.4199 275.141 97.7207C274.746 98.6875 274.306 99.7935 273.823 101.039C273.354 102.284 272.863 103.602 272.351 104.994C271.853 106.371 271.347 107.784 270.834 109.234C270.322 110.685 269.824 112.098 269.34 113.475C268.872 114.852 268.425 116.148 268 117.364C267.59 118.58 267.231 119.649 266.923 120.572C266.616 121.495 266.367 122.235 266.176 122.792C266 123.333 265.913 123.619 265.913 123.648C265.839 123.897 265.7 124.081 265.495 124.198C265.29 124.33 265.07 124.396 264.836 124.396C264.616 124.396 264.411 124.344 264.221 124.242C264.03 124.139 263.891 124 263.803 123.824L253.146 102.994C252.824 105.426 252.531 107.777 252.268 110.047C252.15 111.014 252.033 112.018 251.916 113.058C251.813 114.083 251.711 115.094 251.608 116.09C251.506 117.071 251.418 118.009 251.345 118.902C251.286 119.796 251.242 120.594 251.213 121.297C251.843 121.327 252.48 121.385 253.125 121.473C253.769 121.546 254.436 121.656 255.124 121.803C255.388 121.847 255.6 121.979 255.761 122.198C255.937 122.403 256.025 122.645 256.025 122.923C256.025 123.304 255.893 123.59 255.629 123.78C255.366 123.956 255.124 124.044 254.904 124.044H254.663C253.813 123.883 252.971 123.766 252.136 123.692C251.315 123.604 250.495 123.561 249.675 123.561C249.045 123.561 248.422 123.583 247.807 123.626C247.207 123.67 246.599 123.751 245.983 123.868H245.808C245.471 123.868 245.192 123.751 244.973 123.517C244.753 123.282 244.643 123.011 244.643 122.704C244.643 122.425 244.731 122.184 244.907 121.979C245.083 121.759 245.31 121.62 245.588 121.561C246.13 121.473 246.672 121.407 247.214 121.363C247.771 121.319 248.32 121.283 248.862 121.253C248.891 120.521 248.95 119.583 249.038 118.441C249.14 117.298 249.257 116.017 249.389 114.596C249.536 113.175 249.711 111.644 249.917 110.003C250.122 108.348 250.356 106.642 250.62 104.884C250.883 103.126 251.176 101.346 251.499 99.5444C251.835 97.7427 252.202 95.9775 252.597 94.249C251.777 94.2197 250.964 94.1538 250.158 94.0513C249.367 93.9341 248.576 93.7656 247.785 93.5459C247.536 93.4727 247.331 93.3335 247.17 93.1284C247.009 92.9233 246.928 92.6963 246.928 92.4473C246.928 92.1104 247.045 91.832 247.28 91.6123C247.529 91.3926 247.8 91.2827 248.093 91.2827C248.151 91.2827 248.203 91.2827 248.247 91.2827C248.291 91.2827 248.349 91.2974 248.422 91.3267C249.213 91.5317 250.004 91.6929 250.795 91.8101C251.586 91.9126 252.399 91.9639 253.234 91.9639C253.571 91.9639 253.857 91.9565 254.091 91.9419C254.34 91.9272 254.582 91.9199 254.816 91.9199C255.241 91.9199 255.585 92.1104 255.849 92.4912L267.055 113.102C267.48 111.856 267.919 110.575 268.374 109.256C268.842 107.923 269.311 106.612 269.78 105.323C270.263 104.02 270.732 102.76 271.186 101.544C271.64 100.328 272.072 99.2075 272.482 98.1821C272.907 97.1567 273.288 96.2559 273.625 95.4795C273.977 94.7031 274.277 94.1025 274.526 93.6777C274.746 93.3115 275.075 93.1284 275.515 93.1284C276.833 93.0112 278.049 92.9087 279.162 92.8208C280.275 92.7329 281.264 92.6597 282.128 92.6011C282.993 92.5278 283.71 92.4692 284.282 92.4253C284.868 92.3813 285.285 92.3447 285.534 92.3154C285.578 92.3154 285.615 92.3081 285.644 92.2935C285.673 92.2788 285.703 92.2715 285.732 92.2715C286.069 92.2715 286.347 92.396 286.567 92.645C286.787 92.8794 286.896 93.1431 286.896 93.436C286.896 93.729 286.801 93.9854 286.611 94.2051C286.435 94.4102 286.201 94.5347 285.908 94.5786C285.673 94.6226 285.307 94.6812 284.809 94.7544C284.311 94.813 283.688 94.8862 282.941 94.9741C283.029 95.5894 283.161 96.4536 283.337 97.5669C283.527 98.6655 283.725 99.9326 283.93 101.368C284.15 102.789 284.377 104.334 284.611 106.004C284.846 107.674 285.073 109.374 285.292 111.102C285.512 112.831 285.703 114.544 285.864 116.244C286.04 117.943 286.171 119.54 286.259 121.034H287.622C288.002 121.034 288.391 121.034 288.786 121.034C289.182 121.034 289.57 121.048 289.951 121.078C290.273 121.078 290.537 121.188 290.742 121.407C290.961 121.612 291.071 121.876 291.071 122.198C291.071 122.535 290.954 122.813 290.72 123.033C290.5 123.253 290.229 123.363 289.907 123.363ZM337.368 123.363C336.987 123.333 336.606 123.319 336.225 123.319C335.844 123.319 335.463 123.319 335.083 123.319C332.973 123.319 330.893 123.414 328.842 123.604C326.806 123.78 324.785 124.044 322.778 124.396H322.558C322.221 124.396 321.95 124.278 321.745 124.044C321.54 123.824 321.438 123.568 321.438 123.275C321.438 123.011 321.518 122.77 321.679 122.55C321.855 122.33 322.089 122.198 322.382 122.154C322.924 122.037 323.474 121.935 324.03 121.847C324.587 121.759 325.166 121.678 325.766 121.605C325.737 121.166 325.686 120.506 325.612 119.627C325.554 118.749 325.466 117.708 325.349 116.507C325.246 115.306 325.114 113.973 324.953 112.508C324.792 111.043 324.602 109.498 324.382 107.872C324.162 106.246 323.906 104.576 323.613 102.862C323.32 101.134 322.983 99.4199 322.602 97.7207C322.207 98.6875 321.767 99.7935 321.284 101.039C320.815 102.284 320.324 103.602 319.812 104.994C319.313 106.371 318.808 107.784 318.295 109.234C317.783 110.685 317.285 112.098 316.801 113.475C316.333 114.852 315.886 116.148 315.461 117.364C315.051 118.58 314.692 119.649 314.384 120.572C314.077 121.495 313.828 122.235 313.637 122.792C313.461 123.333 313.374 123.619 313.374 123.648C313.3 123.897 313.161 124.081 312.956 124.198C312.751 124.33 312.531 124.396 312.297 124.396C312.077 124.396 311.872 124.344 311.682 124.242C311.491 124.139 311.352 124 311.264 123.824L300.607 102.994C300.285 105.426 299.992 107.777 299.729 110.047C299.611 111.014 299.494 112.018 299.377 113.058C299.274 114.083 299.172 115.094 299.069 116.09C298.967 117.071 298.879 118.009 298.806 118.902C298.747 119.796 298.703 120.594 298.674 121.297C299.304 121.327 299.941 121.385 300.585 121.473C301.23 121.546 301.896 121.656 302.585 121.803C302.849 121.847 303.061 121.979 303.222 122.198C303.398 122.403 303.486 122.645 303.486 122.923C303.486 123.304 303.354 123.59 303.09 123.78C302.827 123.956 302.585 124.044 302.365 124.044H302.124C301.274 123.883 300.432 123.766 299.597 123.692C298.776 123.604 297.956 123.561 297.136 123.561C296.506 123.561 295.883 123.583 295.268 123.626C294.667 123.67 294.06 123.751 293.444 123.868H293.269C292.932 123.868 292.653 123.751 292.434 123.517C292.214 123.282 292.104 123.011 292.104 122.704C292.104 122.425 292.192 122.184 292.368 121.979C292.543 121.759 292.771 121.62 293.049 121.561C293.591 121.473 294.133 121.407 294.675 121.363C295.231 121.319 295.781 121.283 296.323 121.253C296.352 120.521 296.411 119.583 296.499 118.441C296.601 117.298 296.718 116.017 296.85 114.596C296.997 113.175 297.172 111.644 297.377 110.003C297.583 108.348 297.817 106.642 298.081 104.884C298.344 103.126 298.637 101.346 298.959 99.5444C299.296 97.7427 299.663 95.9775 300.058 94.249C299.238 94.2197 298.425 94.1538 297.619 94.0513C296.828 93.9341 296.037 93.7656 295.246 93.5459C294.997 93.4727 294.792 93.3335 294.631 93.1284C294.47 92.9233 294.389 92.6963 294.389 92.4473C294.389 92.1104 294.506 91.832 294.741 91.6123C294.99 91.3926 295.261 91.2827 295.554 91.2827C295.612 91.2827 295.664 91.2827 295.708 91.2827C295.751 91.2827 295.81 91.2974 295.883 91.3267C296.674 91.5317 297.465 91.6929 298.256 91.8101C299.047 91.9126 299.86 91.9639 300.695 91.9639C301.032 91.9639 301.318 91.9565 301.552 91.9419C301.801 91.9272 302.043 91.9199 302.277 91.9199C302.702 91.9199 303.046 92.1104 303.31 92.4912L314.516 113.102C314.941 111.856 315.38 110.575 315.834 109.256C316.303 107.923 316.772 106.612 317.241 105.323C317.724 104.02 318.193 102.76 318.647 101.544C319.101 100.328 319.533 99.2075 319.943 98.1821C320.368 97.1567 320.749 96.2559 321.086 95.4795C321.438 94.7031 321.738 94.1025 321.987 93.6777C322.207 93.3115 322.536 93.1284 322.976 93.1284C324.294 93.0112 325.51 92.9087 326.623 92.8208C327.736 92.7329 328.725 92.6597 329.589 92.6011C330.454 92.5278 331.171 92.4692 331.743 92.4253C332.329 92.3813 332.746 92.3447 332.995 92.3154C333.039 92.3154 333.076 92.3081 333.105 92.2935C333.134 92.2788 333.164 92.2715 333.193 92.2715C333.53 92.2715 333.808 92.396 334.028 92.645C334.248 92.8794 334.357 93.1431 334.357 93.436C334.357 93.729 334.262 93.9854 334.072 94.2051C333.896 94.4102 333.662 94.5347 333.369 94.5786C333.134 94.6226 332.768 94.6812 332.27 94.7544C331.772 94.813 331.149 94.8862 330.402 94.9741C330.49 95.5894 330.622 96.4536 330.798 97.5669C330.988 98.6655 331.186 99.9326 331.391 101.368C331.611 102.789 331.838 104.334 332.072 106.004C332.307 107.674 332.534 109.374 332.753 111.102C332.973 112.831 333.164 114.544 333.325 116.244C333.5 117.943 333.632 119.54 333.72 121.034H335.083C335.463 121.034 335.852 121.034 336.247 121.034C336.643 121.034 337.031 121.048 337.412 121.078C337.734 121.078 337.998 121.188 338.203 121.407C338.422 121.612 338.532 121.876 338.532 122.198C338.532 122.535 338.415 122.813 338.181 123.033C337.961 123.253 337.69 123.363 337.368 123.363ZM365.976 123.407C365.932 123.7 365.8 123.934 365.581 124.11C365.361 124.3 365.104 124.396 364.812 124.396H364.768C360.827 124.132 356.982 124 353.232 124C349.423 124 345.754 124.132 342.224 124.396H342.114C341.777 124.366 341.499 124.249 341.279 124.044C341.059 123.839 340.949 123.568 340.949 123.231C340.949 122.938 341.052 122.689 341.257 122.484C341.462 122.264 341.718 122.14 342.026 122.11C342.495 122.066 342.963 122.037 343.432 122.022C343.916 121.993 344.392 121.964 344.86 121.935V95.1499C344.392 95.1206 343.923 95.106 343.454 95.106C343 95.106 342.539 95.106 342.07 95.106C341.762 95.0767 341.499 94.9595 341.279 94.7544C341.059 94.5347 340.949 94.2637 340.949 93.9414C340.949 93.6191 341.066 93.3481 341.301 93.1284C341.535 92.894 341.806 92.7769 342.114 92.7769C342.67 92.8062 343.205 92.8208 343.718 92.8208C344.245 92.8208 344.765 92.8208 345.278 92.8208C348.398 92.8208 351.489 92.7183 354.55 92.5132C357.612 92.3081 360.666 92.0005 363.713 91.5903H363.911C364.204 91.5903 364.453 91.6929 364.658 91.8979C364.863 92.0884 364.987 92.3154 365.031 92.5791L365.976 100.006V100.16C365.976 100.497 365.852 100.768 365.603 100.973C365.368 101.178 365.104 101.28 364.812 101.28C364.533 101.28 364.284 101.192 364.064 101.017C363.859 100.826 363.728 100.584 363.669 100.292L362.878 94.0293C361.179 94.2637 359.472 94.4541 357.758 94.6006C356.059 94.7324 354.345 94.8423 352.617 94.9302V109.41C352.968 109.396 353.437 109.374 354.023 109.344C354.609 109.315 355.239 109.271 355.913 109.212C356.601 109.154 357.297 109.088 358 109.015C358.718 108.927 359.384 108.824 360 108.707H360.219C360.527 108.707 360.798 108.824 361.032 109.059C361.267 109.278 361.384 109.535 361.384 109.828C361.384 110.121 361.296 110.37 361.12 110.575C360.944 110.78 360.717 110.919 360.439 110.992C359.765 111.124 359.04 111.234 358.264 111.322C357.502 111.41 356.755 111.483 356.022 111.542C355.305 111.585 354.646 111.622 354.045 111.651C353.444 111.681 352.968 111.703 352.617 111.717V121.715H353.232C354.975 121.715 356.726 121.737 358.483 121.781C360.256 121.825 362.036 121.905 363.823 122.022L364.614 116.134C364.672 115.841 364.804 115.606 365.009 115.431C365.229 115.24 365.478 115.145 365.756 115.145C366.108 115.145 366.386 115.27 366.591 115.519C366.811 115.768 366.921 116.017 366.921 116.266V116.441L365.976 123.407ZM398.254 101.5C398.254 100.475 398.085 99.5811 397.749 98.8193C397.412 98.043 396.936 97.3765 396.32 96.8198C395.72 96.2632 394.995 95.8091 394.145 95.4575C393.295 95.0913 392.365 94.8057 391.354 94.6006C390.344 94.3809 389.26 94.2344 388.103 94.1611C386.96 94.0732 385.781 94.0293 384.565 94.0293C384.228 94.0293 383.92 94.0293 383.642 94.0293C383.364 94.0293 383.1 94.0439 382.851 94.0732L382.456 109.015C383.012 109.132 383.62 109.212 384.279 109.256C384.938 109.3 385.62 109.322 386.323 109.322C387.187 109.322 388.081 109.271 389.003 109.168C389.926 109.066 390.827 108.897 391.706 108.663C392.6 108.429 393.442 108.121 394.233 107.74C395.024 107.345 395.712 106.861 396.298 106.29C396.899 105.704 397.375 105.016 397.727 104.225C398.078 103.434 398.254 102.525 398.254 101.5ZM401.901 115.409C401.901 115.438 401.909 115.519 401.923 115.65C401.938 115.768 401.945 115.943 401.945 116.178C401.945 117.364 401.762 118.463 401.396 119.474C401.044 120.484 400.539 121.356 399.88 122.088C399.221 122.806 398.422 123.37 397.485 123.78C396.547 124.19 395.5 124.396 394.343 124.396H394.277C393.208 124.366 392.263 124.19 391.442 123.868C390.637 123.546 389.926 123.121 389.311 122.594C388.71 122.052 388.205 121.422 387.795 120.704C387.385 119.986 387.055 119.217 386.806 118.397C386.557 117.562 386.374 116.698 386.257 115.804C386.154 114.911 386.103 114.024 386.103 113.146C386.103 112.882 386.11 112.625 386.125 112.376C386.14 112.113 386.147 111.878 386.147 111.673C385.488 111.673 384.843 111.644 384.213 111.585C383.598 111.527 382.998 111.454 382.412 111.366L382.082 122.748C382.082 123.099 381.965 123.377 381.73 123.583C381.511 123.773 381.24 123.868 380.917 123.868C380.903 123.868 380.603 123.875 380.017 123.89C379.445 123.89 378.706 123.905 377.797 123.934C376.889 123.963 375.886 124.015 374.787 124.088C373.688 124.161 372.612 124.264 371.557 124.396H371.425C371.088 124.396 370.81 124.278 370.59 124.044C370.371 123.824 370.261 123.568 370.261 123.275C370.261 122.982 370.349 122.726 370.524 122.506C370.715 122.286 370.957 122.154 371.25 122.11C371.792 122.037 372.341 121.979 372.897 121.935C373.469 121.891 374.025 121.847 374.567 121.803L375.073 94.7104C373.989 94.8862 373.168 95.04 372.612 95.1719C372.055 95.3037 371.762 95.3696 371.733 95.3696C371.63 95.4429 371.528 95.4795 371.425 95.4795C371.088 95.4795 370.81 95.3623 370.59 95.1279C370.371 94.8936 370.261 94.6152 370.261 94.293C370.261 94.0439 370.334 93.8242 370.48 93.6338C370.627 93.4287 370.825 93.2896 371.074 93.2163C371.118 93.2017 371.425 93.1138 371.997 92.9526C372.568 92.7915 373.41 92.623 374.523 92.4473C375.651 92.2715 377.043 92.1104 378.698 91.9639C380.368 91.8174 382.324 91.7441 384.565 91.7441C386 91.8174 387.385 91.9199 388.718 92.0518C390.065 92.1836 391.333 92.3887 392.519 92.667C393.706 92.9307 394.79 93.2896 395.771 93.7437C396.752 94.1831 397.595 94.7544 398.298 95.4575C399.016 96.1606 399.565 97.0103 399.946 98.0063C400.341 98.9878 400.539 100.152 400.539 101.5C400.539 102.569 400.371 103.58 400.034 104.532C399.711 105.47 399.257 106.327 398.671 107.103C398.085 107.865 397.375 108.531 396.54 109.103C395.72 109.659 394.819 110.099 393.837 110.421C393.808 110.758 393.786 111.102 393.771 111.454C393.757 111.805 393.75 112.164 393.75 112.53C393.75 112.838 393.757 113.27 393.771 113.827C393.786 114.383 393.823 114.991 393.881 115.65C393.94 116.31 394.028 116.983 394.145 117.672C394.277 118.36 394.445 118.99 394.65 119.562C394.87 120.118 395.141 120.58 395.463 120.946C395.786 121.297 396.174 121.473 396.628 121.473C397.214 121.473 397.697 121.275 398.078 120.88C398.459 120.484 398.767 120.008 399.001 119.452C399.235 118.88 399.396 118.294 399.484 117.694C399.587 117.093 399.638 116.588 399.638 116.178C399.638 116.017 399.631 115.885 399.616 115.782C399.602 115.68 399.594 115.584 399.594 115.497C399.594 115.16 399.711 114.889 399.946 114.684C400.195 114.479 400.466 114.376 400.759 114.376C401.052 114.376 401.308 114.479 401.528 114.684C401.748 114.874 401.872 115.116 401.901 115.409Z" fill="#FFF7F6"/>
<path d="M486.453 62.4688V50.1875C486.453 49.6446 486.669 49.124 487.053 48.7401C487.437 48.3563 487.957 48.1406 488.5 48.1406C489.043 48.1406 489.563 48.3563 489.947 48.7401C490.331 49.124 490.547 49.6446 490.547 50.1875V62.4688C490.547 63.0116 490.331 63.5322 489.947 63.9161C489.563 64.3 489.043 64.5156 488.5 64.5156C487.957 64.5156 487.437 64.3 487.053 63.9161C486.669 63.5322 486.453 63.0116 486.453 62.4688ZM519.203 107.5C519.203 113.573 517.402 119.509 514.029 124.558C510.655 129.607 505.86 133.542 500.25 135.866C494.639 138.19 488.466 138.798 482.51 137.613C476.554 136.428 471.084 133.504 466.79 129.21C462.496 124.916 459.572 119.446 458.387 113.49C457.202 107.534 457.81 101.361 460.134 95.7504C462.458 90.1402 466.393 85.345 471.442 81.9713C476.491 78.5976 482.427 76.7969 488.5 76.7969C496.64 76.8064 504.444 80.0442 510.2 85.8001C515.956 91.556 519.194 99.3599 519.203 107.5ZM515.109 107.5C515.109 102.237 513.549 97.0925 510.625 92.7166C507.701 88.3407 503.545 84.9301 498.683 82.9161C493.821 80.9021 488.47 80.3752 483.309 81.4019C478.147 82.4286 473.406 84.9629 469.684 88.6843C465.963 92.4057 463.429 97.1471 462.402 102.309C461.375 107.47 461.902 112.821 463.916 117.683C465.93 122.545 469.341 126.701 473.717 129.625C478.093 132.549 483.237 134.109 488.5 134.109C495.555 134.101 502.318 131.295 507.307 126.307C512.295 121.318 515.101 114.555 515.109 107.5ZM454.302 76.1982C454.686 76.5822 455.207 76.798 455.75 76.798C456.293 76.798 456.814 76.5822 457.198 76.1982C457.582 75.8141 457.798 75.2932 457.798 74.75C457.798 74.2068 457.582 73.6859 457.198 73.3018L449.011 65.1143C448.627 64.7303 448.106 64.5145 447.562 64.5145C447.019 64.5145 446.498 64.7303 446.114 65.1143C445.73 65.4984 445.514 66.0193 445.514 66.5625C445.514 67.1057 445.73 67.6266 446.114 68.0107L454.302 76.1982ZM454.302 138.802L446.114 146.989C445.924 147.18 445.773 147.405 445.67 147.654C445.567 147.902 445.514 148.169 445.514 148.438C445.514 148.706 445.567 148.973 445.67 149.221C445.773 149.47 445.924 149.695 446.114 149.886C446.305 150.076 446.53 150.227 446.779 150.33C447.027 150.433 447.294 150.486 447.562 150.486C447.831 150.486 448.098 150.433 448.346 150.33C448.595 150.227 448.82 150.076 449.011 149.886L457.198 141.698C457.582 141.314 457.798 140.793 457.798 140.25C457.798 139.707 457.582 139.186 457.198 138.802C456.814 138.418 456.293 138.202 455.75 138.202C455.207 138.202 454.686 138.418 454.302 138.802ZM521.25 76.7969C521.519 76.7971 521.785 76.7443 522.034 76.6416C522.282 76.5389 522.508 76.3882 522.698 76.1982L530.886 68.0107C531.076 67.8205 531.227 67.5947 531.33 67.3462C531.433 67.0978 531.486 66.8314 531.486 66.5625C531.486 66.2936 531.433 66.0272 531.33 65.7788C531.227 65.5303 531.076 65.3045 530.886 65.1143C530.695 64.9242 530.47 64.7733 530.221 64.6704C529.973 64.5675 529.706 64.5145 529.438 64.5145C529.169 64.5145 528.902 64.5675 528.654 64.6704C528.405 64.7733 528.18 64.9242 527.989 65.1143L519.802 73.3018C519.515 73.5881 519.32 73.953 519.241 74.3502C519.162 74.7475 519.202 75.1593 519.357 75.5335C519.512 75.9077 519.775 76.2275 520.112 76.4524C520.449 76.6773 520.845 76.7972 521.25 76.7969ZM522.698 138.802C522.314 138.418 521.793 138.202 521.25 138.202C520.707 138.202 520.186 138.418 519.802 138.802C519.418 139.186 519.202 139.707 519.202 140.25C519.202 140.793 519.418 141.314 519.802 141.698L527.989 149.886C528.18 150.076 528.405 150.227 528.654 150.33C528.902 150.433 529.169 150.486 529.438 150.486C529.706 150.486 529.973 150.433 530.221 150.33C530.47 150.227 530.695 150.076 530.886 149.886C531.076 149.695 531.227 149.47 531.33 149.221C531.433 148.973 531.486 148.706 531.486 148.438C531.486 148.169 531.433 147.902 531.33 147.654C531.227 147.405 531.076 147.18 530.886 146.989L522.698 138.802ZM443.469 105.453H431.188C430.645 105.453 430.124 105.669 429.74 106.053C429.356 106.437 429.141 106.957 429.141 107.5C429.141 108.043 429.356 108.563 429.74 108.947C430.124 109.331 430.645 109.547 431.188 109.547H443.469C444.012 109.547 444.532 109.331 444.916 108.947C445.3 108.563 445.516 108.043 445.516 107.5C445.516 106.957 445.3 106.437 444.916 106.053C444.532 105.669 444.012 105.453 443.469 105.453ZM488.5 150.484C487.957 150.484 487.437 150.7 487.053 151.084C486.669 151.468 486.453 151.988 486.453 152.531V164.812C486.453 165.355 486.669 165.876 487.053 166.26C487.437 166.644 487.957 166.859 488.5 166.859C489.043 166.859 489.563 166.644 489.947 166.26C490.331 165.876 490.547 165.355 490.547 164.812V152.531C490.547 151.988 490.331 151.468 489.947 151.084C489.563 150.7 489.043 150.484 488.5 150.484ZM545.812 105.453H533.531C532.988 105.453 532.468 105.669 532.084 106.053C531.7 106.437 531.484 106.957 531.484 107.5C531.484 108.043 531.7 108.563 532.084 108.947C532.468 109.331 532.988 109.547 533.531 109.547H545.812C546.355 109.547 546.876 109.331 547.26 108.947C547.644 108.563 547.859 108.043 547.859 107.5C547.859 106.957 547.644 106.437 547.26 106.053C546.876 105.669 546.355 105.453 545.812 105.453Z" fill="white"/>
</svg>
