<svg width="590" height="205" viewBox="0 0 590 205" fill="none" xmlns="http://www.w3.org/2000/svg">
<rect width="590" height="205" rx="93" fill="#599FB0"/>
<path d="M244.792 89.0405C244.792 89.3188 244.696 89.5679 244.506 89.7876C244.33 89.9927 244.11 90.1172 243.847 90.1611C243.144 90.3223 242.44 90.4541 241.737 90.5566C241.049 90.6592 240.338 90.7251 239.606 90.7544C239.196 93.8013 238.786 96.5039 238.375 98.8623C237.98 101.221 237.57 103.337 237.145 105.212C236.72 107.073 236.281 108.735 235.827 110.2C235.373 111.665 234.889 113.027 234.376 114.287C233.878 115.547 233.344 116.755 232.772 117.913C232.216 119.055 231.615 120.234 230.971 121.45C230.883 121.611 230.751 121.743 230.575 121.846C230.414 121.963 230.231 122.021 230.026 122.021C229.572 122.021 229.228 121.86 228.993 121.538C228.085 120.22 227.265 118.901 226.532 117.583C225.8 116.265 225.141 114.998 224.555 113.782C223.983 112.551 223.478 111.394 223.039 110.31C222.599 109.211 222.226 108.23 221.918 107.366C221.039 109.915 220.124 112.31 219.171 114.551C218.219 116.777 217.157 118.938 215.985 121.033C215.897 121.208 215.758 121.355 215.568 121.472C215.392 121.604 215.202 121.67 214.997 121.67C214.572 121.67 214.242 121.472 214.008 121.077C212.733 119.011 211.613 116.917 210.646 114.792C209.679 112.654 208.837 110.566 208.119 108.53C207.416 106.494 206.815 104.546 206.317 102.686C205.819 100.811 205.409 99.0967 205.087 97.5439C204.779 95.9912 204.538 94.6362 204.362 93.479C204.201 92.3218 204.083 91.4282 204.01 90.7983C203.644 90.769 203.285 90.7397 202.934 90.7104C202.582 90.6812 202.238 90.6519 201.901 90.6226C201.608 90.5786 201.359 90.4468 201.154 90.2271C200.963 89.9927 200.868 89.729 200.868 89.436C200.912 89.0845 201.044 88.8135 201.264 88.623C201.483 88.418 201.74 88.3154 202.033 88.3154H202.121C203.791 88.4912 205.504 88.5791 207.262 88.5791C208.668 88.5791 210.067 88.5278 211.459 88.4253C212.865 88.3081 214.228 88.1396 215.546 87.9199H215.722C216.059 87.9199 216.337 88.0371 216.557 88.2715C216.776 88.4912 216.886 88.7476 216.886 89.0405C216.886 89.3335 216.791 89.5898 216.601 89.8096C216.425 90.0293 216.19 90.1611 215.897 90.2051C215.238 90.293 214.572 90.3809 213.898 90.4688C213.239 90.5566 212.558 90.6372 211.854 90.7104C211.913 91.2524 212.001 91.9702 212.118 92.8638C212.25 93.7427 212.418 94.7461 212.624 95.874C212.829 96.9873 213.078 98.2031 213.371 99.5215C213.678 100.825 214.037 102.18 214.447 103.586C214.872 104.978 215.348 106.399 215.875 107.849C216.417 109.285 217.025 110.698 217.699 112.09C218.388 110.464 219.032 108.816 219.633 107.146C220.248 105.461 220.79 103.77 221.259 102.07C221.728 100.371 222.123 98.6719 222.445 96.9727C222.768 95.2588 222.987 93.5449 223.104 91.8311C223.134 91.5381 223.244 91.2964 223.434 91.106C223.639 90.9009 223.888 90.7837 224.181 90.7544C224.474 90.7544 224.73 90.8423 224.95 91.0181C225.17 91.1938 225.316 91.4209 225.39 91.6992C225.697 93.3984 226.071 95.0977 226.51 96.7969C226.95 98.4814 227.462 100.195 228.048 101.938C228.649 103.667 229.323 105.425 230.07 107.212C230.817 108.999 231.645 110.83 232.553 112.705C232.992 111.577 233.41 110.332 233.805 108.97C234.215 107.607 234.611 106.055 234.992 104.312C235.373 102.568 235.753 100.591 236.134 98.3789C236.515 96.167 236.896 93.6401 237.277 90.7983C236.618 90.769 235.958 90.7251 235.299 90.6665C234.655 90.5933 233.988 90.498 233.3 90.3809C233.036 90.3369 232.809 90.2124 232.619 90.0073C232.443 89.7876 232.355 89.5386 232.355 89.2603C232.355 88.8794 232.479 88.5938 232.729 88.4033C232.992 88.1982 233.249 88.0957 233.498 88.0957H233.717C235.182 88.3594 236.654 88.4912 238.134 88.4912C239.013 88.4912 239.884 88.4473 240.749 88.3594C241.613 88.2715 242.477 88.125 243.341 87.9199H243.605C243.927 87.9199 244.206 88.0371 244.44 88.2715C244.674 88.4912 244.792 88.7476 244.792 89.0405ZM262.128 89.3042C262.128 89.5972 262.025 89.8535 261.82 90.0732C261.615 90.2783 261.359 90.3955 261.051 90.4248C260.509 90.4834 259.967 90.5347 259.425 90.5786C258.883 90.6079 258.327 90.6372 257.755 90.6665L257.052 117.759C257.609 117.803 258.173 117.847 258.744 117.891C259.33 117.935 259.916 117.979 260.502 118.022C260.839 118.096 261.095 118.25 261.271 118.484C261.447 118.704 261.535 118.967 261.535 119.275C261.505 119.597 261.374 119.846 261.139 120.022C260.919 120.212 260.663 120.308 260.37 120.308H260.282C259.11 120.19 257.938 120.103 256.767 120.044C255.609 119.985 254.445 119.956 253.273 119.956C252.116 119.956 250.966 119.985 249.823 120.044C248.695 120.103 247.56 120.19 246.417 120.308H246.33C245.993 120.308 245.714 120.198 245.495 119.978C245.275 119.744 245.165 119.48 245.165 119.187C245.165 118.894 245.26 118.638 245.451 118.418C245.656 118.198 245.905 118.066 246.198 118.022C246.74 117.979 247.282 117.935 247.824 117.891C248.38 117.847 248.93 117.803 249.472 117.759L249.977 90.4248C248.717 90.3369 247.443 90.2051 246.154 90.0293C245.861 89.9854 245.619 89.8535 245.429 89.6338C245.253 89.4141 245.165 89.1724 245.165 88.9087C245.165 88.5278 245.297 88.2422 245.561 88.0518C245.824 87.8467 246.081 87.7441 246.33 87.7441H246.461C248.014 87.9639 249.545 88.125 251.054 88.2275C252.562 88.3154 254.064 88.3594 255.558 88.3594C256.466 88.3594 257.36 88.3447 258.239 88.3154C259.118 88.2861 259.997 88.2275 260.875 88.1396H260.963C261.3 88.1396 261.579 88.2568 261.798 88.4912C262.018 88.7256 262.128 88.9966 262.128 89.3042ZM298.8 88.0957C298.8 88.3447 298.727 88.5791 298.581 88.7988C298.449 89.0039 298.258 89.1431 298.009 89.2163C297.497 89.3481 296.991 89.4727 296.493 89.5898C295.995 89.6924 295.49 89.7803 294.977 89.8535C295.358 92.168 295.622 94.4165 295.768 96.5991C295.929 98.7817 296.01 100.942 296.01 103.081C296.01 105.981 295.893 108.779 295.658 111.475C295.438 114.17 295.167 116.814 294.845 119.407C294.757 119.729 294.604 119.971 294.384 120.132C294.179 120.308 293.944 120.396 293.681 120.396C293.183 120.396 292.838 120.161 292.648 119.692C292.238 118.696 291.674 117.473 290.956 116.023C290.253 114.558 289.455 112.991 288.561 111.321C287.682 109.636 286.745 107.893 285.749 106.091C284.767 104.29 283.8 102.546 282.848 100.862C281.911 99.1772 281.024 97.6025 280.189 96.1377C279.354 94.6582 278.644 93.4058 278.058 92.3804L277.399 117.847C277.956 117.891 278.52 117.935 279.091 117.979C279.677 118.022 280.263 118.066 280.849 118.11C281.142 118.154 281.383 118.286 281.574 118.506C281.779 118.726 281.881 118.982 281.881 119.275C281.881 119.612 281.757 119.883 281.508 120.088C281.259 120.293 280.995 120.396 280.717 120.396H280.629C279.457 120.278 278.285 120.19 277.113 120.132C275.956 120.073 274.792 120.044 273.62 120.044C272.462 120.044 271.312 120.073 270.17 120.132C269.042 120.19 267.907 120.278 266.764 120.396H266.676C266.354 120.396 266.076 120.278 265.841 120.044C265.622 119.824 265.512 119.568 265.512 119.275C265.512 118.982 265.607 118.726 265.797 118.506C266.002 118.286 266.251 118.154 266.544 118.11C267.086 118.066 267.628 118.022 268.17 117.979C268.727 117.935 269.276 117.891 269.818 117.847L270.324 90.1172C269.064 90.0293 267.79 89.8975 266.5 89.7217C266.208 89.6777 265.966 89.5459 265.775 89.3262C265.6 89.0918 265.512 88.8281 265.512 88.5352C265.512 88.1836 265.644 87.9126 265.907 87.7222C266.171 87.5171 266.427 87.4146 266.676 87.4146H266.808C268.375 87.6196 269.906 87.7808 271.4 87.8979C272.909 88.0005 274.411 88.0518 275.905 88.0518H277.531C277.545 88.0518 277.589 88.0591 277.663 88.0737C277.736 88.0737 277.816 88.0884 277.904 88.1177C278.007 88.147 278.109 88.1982 278.212 88.2715C278.329 88.3447 278.432 88.4473 278.52 88.5791C278.578 88.6816 278.769 89.0112 279.091 89.5679C279.413 90.1245 279.831 90.8496 280.343 91.7432C280.856 92.6367 281.442 93.6694 282.101 94.8413C282.775 96.0132 283.485 97.2656 284.232 98.5986C284.994 99.9316 285.771 101.316 286.562 102.751C287.353 104.187 288.129 105.623 288.891 107.058C289.667 108.479 290.407 109.871 291.11 111.233C291.828 112.581 292.472 113.84 293.043 115.012C293.234 113.093 293.395 111.145 293.527 109.167C293.659 107.19 293.725 105.161 293.725 103.081C293.725 101.001 293.644 98.877 293.483 96.709C293.322 94.541 293.058 92.3145 292.692 90.0293C292.501 90.0586 292.318 90.0732 292.143 90.0732C291.967 90.0732 291.776 90.0732 291.571 90.0732C290.707 90.0732 289.806 90.0293 288.869 89.9414C288.576 89.9121 288.327 89.7876 288.122 89.5679C287.931 89.3335 287.836 89.0698 287.836 88.7769C287.836 88.4546 287.953 88.1836 288.188 87.9639C288.437 87.7441 288.708 87.6343 289 87.6343H289.132C289.542 87.6929 289.945 87.7368 290.341 87.7661C290.751 87.7808 291.161 87.7881 291.571 87.7881C292.582 87.7881 293.571 87.7222 294.538 87.5903C295.504 87.4585 296.449 87.2681 297.372 87.019C297.431 86.9897 297.533 86.9751 297.68 86.9751C298.002 86.9751 298.266 87.0923 298.471 87.3267C298.69 87.5464 298.8 87.8027 298.8 88.0957ZM329.694 96.7749C329.694 96.8188 329.701 96.8774 329.716 96.9507C329.73 97.0093 329.738 97.0752 329.738 97.1484C329.738 97.4561 329.613 97.7271 329.364 97.9614C329.13 98.1958 328.866 98.313 328.573 98.313C328.339 98.313 328.119 98.2397 327.914 98.0933C327.724 97.9468 327.584 97.749 327.497 97.5C327.306 96.9434 327.123 96.3501 326.947 95.7202C326.771 95.0757 326.61 94.4458 326.464 93.8306C326.332 93.2153 326.208 92.6367 326.09 92.0947C325.973 91.5527 325.885 91.0913 325.827 90.7104C324.992 90.7544 324.04 90.791 322.97 90.8203C321.901 90.835 320.751 90.8423 319.521 90.8423L318.795 117.979C319.997 118.022 321.154 118.11 322.267 118.242C322.589 118.271 322.838 118.396 323.014 118.616C323.205 118.821 323.3 119.07 323.3 119.363C323.3 119.729 323.175 120.015 322.926 120.22C322.692 120.439 322.443 120.549 322.179 120.549H322.047C320.861 120.403 319.689 120.3 318.532 120.242C317.375 120.198 316.217 120.176 315.06 120.176C313.888 120.176 312.738 120.198 311.61 120.242C310.482 120.3 309.354 120.403 308.227 120.549H308.095C307.772 120.549 307.494 120.425 307.26 120.176C307.04 119.927 306.93 119.656 306.93 119.363C306.93 119.07 307.025 118.821 307.216 118.616C307.421 118.396 307.67 118.271 307.963 118.242C309.091 118.11 310.197 118.022 311.281 117.979L311.786 90.7104C310.541 90.6665 309.369 90.6152 308.271 90.5566C307.187 90.4834 306.212 90.4102 305.348 90.3369C305.26 90.7324 305.15 91.2158 305.019 91.7871C304.901 92.3584 304.762 92.9663 304.601 93.6108C304.455 94.2554 304.301 94.9146 304.14 95.5884C303.979 96.2476 303.81 96.8701 303.634 97.4561C303.561 97.7051 303.422 97.9102 303.217 98.0713C303.026 98.2324 302.807 98.313 302.558 98.313C302.221 98.313 301.942 98.1958 301.723 97.9614C301.503 97.7124 301.393 97.4414 301.393 97.1484C301.393 97.1045 301.393 97.0532 301.393 96.9946C301.393 96.9214 301.408 96.8628 301.437 96.8188C301.657 96.0425 301.876 95.1929 302.096 94.27C302.316 93.3472 302.514 92.4829 302.689 91.6772C302.88 90.8716 303.034 90.1978 303.151 89.6558C303.268 89.1138 303.327 88.8354 303.327 88.8208C303.4 88.5425 303.532 88.3228 303.722 88.1616C303.927 88.0005 304.169 87.9199 304.447 87.9199H304.623C305.385 88.0225 306.308 88.1104 307.392 88.1836C308.49 88.2568 309.669 88.3228 310.929 88.3813C312.204 88.4253 313.522 88.4619 314.884 88.4912C316.247 88.5205 317.58 88.5352 318.883 88.5352C320.48 88.5352 321.952 88.5205 323.3 88.4912C324.647 88.4473 325.775 88.3887 326.684 88.3154H326.771C327.035 88.3154 327.277 88.4106 327.497 88.6011C327.716 88.7769 327.848 88.9966 327.892 89.2603C327.892 89.2749 327.914 89.3994 327.958 89.6338C328.002 89.8682 328.061 90.1831 328.134 90.5786C328.207 90.9741 328.295 91.4282 328.397 91.9409C328.515 92.4536 328.639 92.9883 328.771 93.5449C328.903 94.0869 329.042 94.6436 329.188 95.2148C329.35 95.7715 329.518 96.2915 329.694 96.7749ZM357.423 119.407C357.379 119.7 357.248 119.934 357.028 120.11C356.808 120.3 356.552 120.396 356.259 120.396H356.215C352.274 120.132 348.429 120 344.679 120C340.871 120 337.201 120.132 333.671 120.396H333.561C333.224 120.366 332.946 120.249 332.726 120.044C332.506 119.839 332.396 119.568 332.396 119.231C332.396 118.938 332.499 118.689 332.704 118.484C332.909 118.264 333.166 118.14 333.473 118.11C333.942 118.066 334.411 118.037 334.879 118.022C335.363 117.993 335.839 117.964 336.308 117.935V91.1499C335.839 91.1206 335.37 91.106 334.901 91.106C334.447 91.106 333.986 91.106 333.517 91.106C333.209 91.0767 332.946 90.9595 332.726 90.7544C332.506 90.5347 332.396 90.2637 332.396 89.9414C332.396 89.6191 332.514 89.3481 332.748 89.1284C332.982 88.894 333.253 88.7769 333.561 88.7769C334.118 88.8062 334.652 88.8208 335.165 88.8208C335.692 88.8208 336.212 88.8208 336.725 88.8208C339.845 88.8208 342.936 88.7183 345.998 88.5132C349.059 88.3081 352.113 88.0005 355.16 87.5903H355.358C355.651 87.5903 355.9 87.6929 356.105 87.8979C356.31 88.0884 356.435 88.3154 356.479 88.5791L357.423 96.0059V96.1597C357.423 96.4966 357.299 96.7676 357.05 96.9727C356.815 97.1777 356.552 97.2803 356.259 97.2803C355.98 97.2803 355.731 97.1924 355.512 97.0166C355.307 96.8262 355.175 96.5845 355.116 96.2915L354.325 90.0293C352.626 90.2637 350.919 90.4541 349.206 90.6006C347.506 90.7324 345.792 90.8423 344.064 90.9302V105.41C344.416 105.396 344.884 105.374 345.47 105.344C346.056 105.315 346.686 105.271 347.36 105.212C348.048 105.154 348.744 105.088 349.447 105.015C350.165 104.927 350.832 104.824 351.447 104.707H351.667C351.974 104.707 352.245 104.824 352.479 105.059C352.714 105.278 352.831 105.535 352.831 105.828C352.831 106.121 352.743 106.37 352.567 106.575C352.392 106.78 352.165 106.919 351.886 106.992C351.212 107.124 350.487 107.234 349.711 107.322C348.949 107.41 348.202 107.483 347.47 107.542C346.752 107.585 346.093 107.622 345.492 107.651C344.892 107.681 344.416 107.703 344.064 107.717V117.715H344.679C346.422 117.715 348.173 117.737 349.931 117.781C351.703 117.825 353.483 117.905 355.27 118.022L356.061 112.134C356.12 111.841 356.251 111.606 356.457 111.431C356.676 111.24 356.925 111.145 357.204 111.145C357.555 111.145 357.833 111.27 358.039 111.519C358.258 111.768 358.368 112.017 358.368 112.266V112.441L357.423 119.407ZM389.701 97.5C389.701 96.4746 389.533 95.5811 389.196 94.8193C388.859 94.043 388.383 93.3765 387.768 92.8198C387.167 92.2632 386.442 91.8091 385.592 91.4575C384.743 91.0913 383.812 90.8057 382.802 90.6006C381.791 90.3809 380.707 90.2344 379.55 90.1611C378.407 90.0732 377.228 90.0293 376.012 90.0293C375.675 90.0293 375.368 90.0293 375.089 90.0293C374.811 90.0293 374.547 90.0439 374.298 90.0732L373.903 105.015C374.459 105.132 375.067 105.212 375.727 105.256C376.386 105.3 377.067 105.322 377.77 105.322C378.634 105.322 379.528 105.271 380.451 105.168C381.374 105.066 382.274 104.897 383.153 104.663C384.047 104.429 384.889 104.121 385.68 103.74C386.471 103.345 387.16 102.861 387.746 102.29C388.346 101.704 388.822 101.016 389.174 100.225C389.525 99.4336 389.701 98.5254 389.701 97.5ZM393.349 111.409C393.349 111.438 393.356 111.519 393.371 111.65C393.385 111.768 393.393 111.943 393.393 112.178C393.393 113.364 393.209 114.463 392.843 115.474C392.492 116.484 391.986 117.356 391.327 118.088C390.668 118.806 389.87 119.37 388.932 119.78C387.995 120.19 386.947 120.396 385.79 120.396H385.724C384.655 120.366 383.71 120.19 382.89 119.868C382.084 119.546 381.374 119.121 380.758 118.594C380.158 118.052 379.652 117.422 379.242 116.704C378.832 115.986 378.502 115.217 378.253 114.397C378.004 113.562 377.821 112.698 377.704 111.804C377.602 110.911 377.55 110.024 377.55 109.146C377.55 108.882 377.558 108.625 377.572 108.376C377.587 108.113 377.594 107.878 377.594 107.673C376.935 107.673 376.291 107.644 375.661 107.585C375.045 107.527 374.445 107.454 373.859 107.366L373.529 118.748C373.529 119.099 373.412 119.377 373.178 119.583C372.958 119.773 372.687 119.868 372.365 119.868C372.35 119.868 372.05 119.875 371.464 119.89C370.893 119.89 370.153 119.905 369.245 119.934C368.336 119.963 367.333 120.015 366.234 120.088C365.136 120.161 364.059 120.264 363.004 120.396H362.873C362.536 120.396 362.257 120.278 362.038 120.044C361.818 119.824 361.708 119.568 361.708 119.275C361.708 118.982 361.796 118.726 361.972 118.506C362.162 118.286 362.404 118.154 362.697 118.11C363.239 118.037 363.788 117.979 364.345 117.935C364.916 117.891 365.473 117.847 366.015 117.803L366.52 90.7104C365.436 90.8862 364.616 91.04 364.059 91.1719C363.502 91.3037 363.209 91.3696 363.18 91.3696C363.078 91.4429 362.975 91.4795 362.873 91.4795C362.536 91.4795 362.257 91.3623 362.038 91.1279C361.818 90.8936 361.708 90.6152 361.708 90.293C361.708 90.0439 361.781 89.8242 361.928 89.6338C362.074 89.4287 362.272 89.2896 362.521 89.2163C362.565 89.2017 362.873 89.1138 363.444 88.9526C364.015 88.7915 364.857 88.623 365.971 88.4473C367.099 88.2715 368.49 88.1104 370.146 87.9639C371.815 87.8174 373.771 87.7441 376.012 87.7441C377.448 87.8174 378.832 87.9199 380.165 88.0518C381.513 88.1836 382.78 88.3887 383.966 88.667C385.153 88.9307 386.237 89.2896 387.218 89.7437C388.2 90.1831 389.042 90.7544 389.745 91.4575C390.463 92.1606 391.012 93.0103 391.393 94.0063C391.789 94.9878 391.986 96.1523 391.986 97.5C391.986 98.5693 391.818 99.5801 391.481 100.532C391.159 101.47 390.705 102.327 390.119 103.103C389.533 103.865 388.822 104.531 387.987 105.103C387.167 105.659 386.266 106.099 385.285 106.421C385.255 106.758 385.233 107.102 385.219 107.454C385.204 107.805 385.197 108.164 385.197 108.53C385.197 108.838 385.204 109.27 385.219 109.827C385.233 110.383 385.27 110.991 385.329 111.65C385.387 112.31 385.475 112.983 385.592 113.672C385.724 114.36 385.893 114.99 386.098 115.562C386.317 116.118 386.588 116.58 386.911 116.946C387.233 117.297 387.621 117.473 388.075 117.473C388.661 117.473 389.145 117.275 389.525 116.88C389.906 116.484 390.214 116.008 390.448 115.452C390.683 114.88 390.844 114.294 390.932 113.694C391.034 113.093 391.085 112.588 391.085 112.178C391.085 112.017 391.078 111.885 391.063 111.782C391.049 111.68 391.042 111.584 391.042 111.497C391.042 111.16 391.159 110.889 391.393 110.684C391.642 110.479 391.913 110.376 392.206 110.376C392.499 110.376 392.755 110.479 392.975 110.684C393.195 110.874 393.319 111.116 393.349 111.409Z" fill="#FFF7F6"/>
<path d="M89.5003 106.382C88.5542 106.382 87.7634 106.058 87.1278 105.409C86.4887 104.764 86.1691 103.961 86.1691 103C86.1691 102.039 86.4887 101.236 87.1278 100.591C87.7634 99.942 88.5542 99.6175 89.5003 99.6175C90.4464 99.6175 91.2373 99.942 91.8728 100.591C92.512 101.236 92.8316 102.039 92.8316 103C92.8316 103.961 92.512 104.764 91.8728 105.409C91.2373 106.058 90.4464 106.382 89.5003 106.382ZM154.5 106.382C153.554 106.382 152.763 106.058 152.128 105.409C151.489 104.764 151.169 103.961 151.169 103C151.169 102.039 151.489 101.236 152.128 100.591C152.763 99.942 153.554 99.6175 154.5 99.6175C155.446 99.6175 156.237 99.942 156.873 100.591C157.512 101.236 157.832 102.039 157.832 103C157.832 103.961 157.512 104.764 156.873 105.409C156.237 106.058 155.446 106.382 154.5 106.382ZM105.75 128.382C104.804 128.382 104.013 128.058 103.378 127.409C102.739 126.764 102.419 125.961 102.419 125C102.419 124.039 102.739 123.236 103.378 122.591C104.013 121.942 104.804 121.617 105.75 121.617C106.696 121.617 107.487 121.942 108.123 122.591C108.762 123.236 109.082 124.039 109.082 125C109.082 125.961 108.762 126.764 108.123 127.409C107.487 128.058 106.696 128.382 105.75 128.382ZM122 106.382C121.054 106.382 120.263 106.058 119.628 105.409C118.989 104.764 118.669 103.961 118.669 103C118.669 102.039 118.989 101.236 119.628 100.591C120.263 99.942 121.054 99.6175 122 99.6175C122.946 99.6175 123.737 99.942 124.373 100.591C125.012 101.236 125.332 102.039 125.332 103C125.332 103.961 125.012 104.764 124.373 105.409C123.737 106.058 122.946 106.382 122 106.382ZM138.25 128.382C137.304 128.382 136.513 128.058 135.878 127.409C135.239 126.764 134.919 125.961 134.919 125C134.919 124.039 135.239 123.236 135.878 122.591C136.513 121.942 137.304 121.617 138.25 121.617C139.196 121.617 139.987 121.942 140.623 122.591C141.262 123.236 141.582 124.039 141.582 125C141.582 125.961 141.262 126.764 140.623 127.409C139.987 128.058 139.196 128.382 138.25 128.382ZM97.6253 89.25C90.1034 89.25 83.7099 86.5752 78.4449 81.2255C73.1763 75.8795 70.542 69.3877 70.542 61.75C70.542 54.6367 72.9037 48.484 77.627 43.292C82.3467 38.1073 88.2599 35.1153 95.3666 34.316C98.0532 29.157 101.726 25.1053 106.384 22.161C111.042 19.2203 116.235 17.75 121.962 17.75C129.762 17.75 136.457 20.368 142.047 25.604C147.634 30.84 150.884 37.3648 151.797 45.1785C158.445 45.5855 163.718 47.9322 167.614 52.2185C171.51 56.5085 173.459 61.53 173.459 67.283C173.459 73.3587 171.352 78.5397 167.137 82.826C162.927 87.1087 157.812 89.25 151.792 89.25H97.6253ZM97.6253 83.75H151.792C156.277 83.75 160.107 82.1385 163.281 78.9155C166.455 75.6925 168.042 71.804 168.042 67.25C168.042 62.696 166.455 58.8075 163.281 55.5845C160.107 52.3615 156.277 50.75 151.792 50.75H146.375V48C146.375 41.1947 143.987 35.3683 139.209 30.521C134.432 25.6737 128.69 23.25 121.984 23.25C117.109 23.25 112.666 24.5938 108.654 27.2815C104.645 29.9728 101.625 33.5937 99.5916 38.144L98.9524 39.75H97.3545C91.4612 39.959 86.4237 42.1847 82.242 46.427C78.0531 50.6693 75.9587 55.777 75.9587 61.75C75.9587 67.8257 78.073 73.0122 82.3016 77.3095C86.5302 81.6068 91.6381 83.7537 97.6253 83.75Z" fill="white"/>
</svg>
