<svg width="590" height="205" viewBox="0 0 590 205" fill="none" xmlns="http://www.w3.org/2000/svg">
<rect width="590" height="205" rx="93" fill="#599FB0"/>
<path d="M243.792 87.0405C243.792 87.3188 243.696 87.5679 243.506 87.7876C243.33 87.9927 243.11 88.1172 242.847 88.1611C242.144 88.3223 241.44 88.4541 240.737 88.5566C240.049 88.6592 239.338 88.7251 238.606 88.7544C238.196 91.8013 237.786 94.5039 237.375 96.8623C236.98 99.2207 236.57 101.337 236.145 103.212C235.72 105.073 235.281 106.735 234.827 108.2C234.373 109.665 233.889 111.027 233.376 112.287C232.878 113.547 232.344 114.755 231.772 115.913C231.216 117.055 230.615 118.234 229.971 119.45C229.883 119.611 229.751 119.743 229.575 119.846C229.414 119.963 229.231 120.021 229.026 120.021C228.572 120.021 228.228 119.86 227.993 119.538C227.085 118.22 226.265 116.901 225.532 115.583C224.8 114.265 224.141 112.998 223.555 111.782C222.983 110.551 222.478 109.394 222.039 108.31C221.599 107.211 221.226 106.23 220.918 105.366C220.039 107.915 219.124 110.31 218.171 112.551C217.219 114.777 216.157 116.938 214.985 119.033C214.897 119.208 214.758 119.355 214.568 119.472C214.392 119.604 214.202 119.67 213.997 119.67C213.572 119.67 213.242 119.472 213.008 119.077C211.733 117.011 210.613 114.917 209.646 112.792C208.679 110.654 207.837 108.566 207.119 106.53C206.416 104.494 205.815 102.546 205.317 100.686C204.819 98.8105 204.409 97.0967 204.087 95.5439C203.779 93.9912 203.538 92.6362 203.362 91.479C203.201 90.3218 203.083 89.4282 203.01 88.7983C202.644 88.769 202.285 88.7397 201.934 88.7104C201.582 88.6812 201.238 88.6519 200.901 88.6226C200.608 88.5786 200.359 88.4468 200.154 88.2271C199.963 87.9927 199.868 87.729 199.868 87.436C199.912 87.0845 200.044 86.8135 200.264 86.623C200.483 86.418 200.74 86.3154 201.033 86.3154H201.121C202.791 86.4912 204.504 86.5791 206.262 86.5791C207.668 86.5791 209.067 86.5278 210.459 86.4253C211.865 86.3081 213.228 86.1396 214.546 85.9199H214.722C215.059 85.9199 215.337 86.0371 215.557 86.2715C215.776 86.4912 215.886 86.7476 215.886 87.0405C215.886 87.3335 215.791 87.5898 215.601 87.8096C215.425 88.0293 215.19 88.1611 214.897 88.2051C214.238 88.293 213.572 88.3809 212.898 88.4688C212.239 88.5566 211.558 88.6372 210.854 88.7104C210.913 89.2524 211.001 89.9702 211.118 90.8638C211.25 91.7427 211.418 92.7461 211.624 93.874C211.829 94.9873 212.078 96.2031 212.371 97.5215C212.678 98.8252 213.037 100.18 213.447 101.586C213.872 102.978 214.348 104.399 214.875 105.849C215.417 107.285 216.025 108.698 216.699 110.09C217.388 108.464 218.032 106.816 218.633 105.146C219.248 103.461 219.79 101.77 220.259 100.07C220.728 98.3711 221.123 96.6719 221.445 94.9727C221.768 93.2588 221.987 91.5449 222.104 89.8311C222.134 89.5381 222.244 89.2964 222.434 89.106C222.639 88.9009 222.888 88.7837 223.181 88.7544C223.474 88.7544 223.73 88.8423 223.95 89.0181C224.17 89.1938 224.316 89.4209 224.39 89.6992C224.697 91.3984 225.071 93.0977 225.51 94.7969C225.95 96.4814 226.462 98.1953 227.048 99.9385C227.649 101.667 228.323 103.425 229.07 105.212C229.817 106.999 230.645 108.83 231.553 110.705C231.992 109.577 232.41 108.332 232.805 106.97C233.215 105.607 233.611 104.055 233.992 102.312C234.373 100.568 234.753 98.5908 235.134 96.3789C235.515 94.167 235.896 91.6401 236.277 88.7983C235.618 88.769 234.958 88.7251 234.299 88.6665C233.655 88.5933 232.988 88.498 232.3 88.3809C232.036 88.3369 231.809 88.2124 231.619 88.0073C231.443 87.7876 231.355 87.5386 231.355 87.2603C231.355 86.8794 231.479 86.5938 231.729 86.4033C231.992 86.1982 232.249 86.0957 232.498 86.0957H232.717C234.182 86.3594 235.654 86.4912 237.134 86.4912C238.013 86.4912 238.884 86.4473 239.749 86.3594C240.613 86.2715 241.477 86.125 242.341 85.9199H242.605C242.927 85.9199 243.206 86.0371 243.44 86.2715C243.674 86.4912 243.792 86.7476 243.792 87.0405ZM261.128 87.3042C261.128 87.5972 261.025 87.8535 260.82 88.0732C260.615 88.2783 260.359 88.3955 260.051 88.4248C259.509 88.4834 258.967 88.5347 258.425 88.5786C257.883 88.6079 257.327 88.6372 256.755 88.6665L256.052 115.759C256.609 115.803 257.173 115.847 257.744 115.891C258.33 115.935 258.916 115.979 259.502 116.022C259.839 116.096 260.095 116.25 260.271 116.484C260.447 116.704 260.535 116.967 260.535 117.275C260.505 117.597 260.374 117.846 260.139 118.022C259.919 118.212 259.663 118.308 259.37 118.308H259.282C258.11 118.19 256.938 118.103 255.767 118.044C254.609 117.985 253.445 117.956 252.273 117.956C251.116 117.956 249.966 117.985 248.823 118.044C247.695 118.103 246.56 118.19 245.417 118.308H245.33C244.993 118.308 244.714 118.198 244.495 117.978C244.275 117.744 244.165 117.48 244.165 117.187C244.165 116.894 244.26 116.638 244.451 116.418C244.656 116.198 244.905 116.066 245.198 116.022C245.74 115.979 246.282 115.935 246.824 115.891C247.38 115.847 247.93 115.803 248.472 115.759L248.977 88.4248C247.717 88.3369 246.443 88.2051 245.154 88.0293C244.861 87.9854 244.619 87.8535 244.429 87.6338C244.253 87.4141 244.165 87.1724 244.165 86.9087C244.165 86.5278 244.297 86.2422 244.561 86.0518C244.824 85.8467 245.081 85.7441 245.33 85.7441H245.461C247.014 85.9639 248.545 86.125 250.054 86.2275C251.562 86.3154 253.064 86.3594 254.558 86.3594C255.466 86.3594 256.36 86.3447 257.239 86.3154C258.118 86.2861 258.997 86.2275 259.875 86.1396H259.963C260.3 86.1396 260.579 86.2568 260.798 86.4912C261.018 86.7256 261.128 86.9966 261.128 87.3042ZM297.8 86.0957C297.8 86.3447 297.727 86.5791 297.581 86.7988C297.449 87.0039 297.258 87.1431 297.009 87.2163C296.497 87.3481 295.991 87.4727 295.493 87.5898C294.995 87.6924 294.49 87.7803 293.977 87.8535C294.358 90.168 294.622 92.4165 294.768 94.5991C294.929 96.7817 295.01 98.9424 295.01 101.081C295.01 103.981 294.893 106.779 294.658 109.475C294.438 112.17 294.167 114.814 293.845 117.407C293.757 117.729 293.604 117.971 293.384 118.132C293.179 118.308 292.944 118.396 292.681 118.396C292.183 118.396 291.838 118.161 291.648 117.692C291.238 116.696 290.674 115.473 289.956 114.023C289.253 112.558 288.455 110.991 287.561 109.321C286.682 107.636 285.745 105.893 284.749 104.091C283.767 102.29 282.8 100.546 281.848 98.8618C280.911 97.1772 280.024 95.6025 279.189 94.1377C278.354 92.6582 277.644 91.4058 277.058 90.3804L276.399 115.847C276.956 115.891 277.52 115.935 278.091 115.979C278.677 116.022 279.263 116.066 279.849 116.11C280.142 116.154 280.383 116.286 280.574 116.506C280.779 116.726 280.881 116.982 280.881 117.275C280.881 117.612 280.757 117.883 280.508 118.088C280.259 118.293 279.995 118.396 279.717 118.396H279.629C278.457 118.278 277.285 118.19 276.113 118.132C274.956 118.073 273.792 118.044 272.62 118.044C271.462 118.044 270.312 118.073 269.17 118.132C268.042 118.19 266.907 118.278 265.764 118.396H265.676C265.354 118.396 265.076 118.278 264.841 118.044C264.622 117.824 264.512 117.568 264.512 117.275C264.512 116.982 264.607 116.726 264.797 116.506C265.002 116.286 265.251 116.154 265.544 116.11C266.086 116.066 266.628 116.022 267.17 115.979C267.727 115.935 268.276 115.891 268.818 115.847L269.324 88.1172C268.064 88.0293 266.79 87.8975 265.5 87.7217C265.208 87.6777 264.966 87.5459 264.775 87.3262C264.6 87.0918 264.512 86.8281 264.512 86.5352C264.512 86.1836 264.644 85.9126 264.907 85.7222C265.171 85.5171 265.427 85.4146 265.676 85.4146H265.808C267.375 85.6196 268.906 85.7808 270.4 85.8979C271.909 86.0005 273.411 86.0518 274.905 86.0518H276.531C276.545 86.0518 276.589 86.0591 276.663 86.0737C276.736 86.0737 276.816 86.0884 276.904 86.1177C277.007 86.147 277.109 86.1982 277.212 86.2715C277.329 86.3447 277.432 86.4473 277.52 86.5791C277.578 86.6816 277.769 87.0112 278.091 87.5679C278.413 88.1245 278.831 88.8496 279.343 89.7432C279.856 90.6367 280.442 91.6694 281.101 92.8413C281.775 94.0132 282.485 95.2656 283.232 96.5986C283.994 97.9316 284.771 99.3159 285.562 100.751C286.353 102.187 287.129 103.623 287.891 105.058C288.667 106.479 289.407 107.871 290.11 109.233C290.828 110.581 291.472 111.84 292.043 113.012C292.234 111.093 292.395 109.145 292.527 107.167C292.659 105.19 292.725 103.161 292.725 101.081C292.725 99.001 292.644 96.877 292.483 94.709C292.322 92.541 292.058 90.3145 291.692 88.0293C291.501 88.0586 291.318 88.0732 291.143 88.0732C290.967 88.0732 290.776 88.0732 290.571 88.0732C289.707 88.0732 288.806 88.0293 287.869 87.9414C287.576 87.9121 287.327 87.7876 287.122 87.5679C286.931 87.3335 286.836 87.0698 286.836 86.7769C286.836 86.4546 286.953 86.1836 287.188 85.9639C287.437 85.7441 287.708 85.6343 288 85.6343H288.132C288.542 85.6929 288.945 85.7368 289.341 85.7661C289.751 85.7808 290.161 85.7881 290.571 85.7881C291.582 85.7881 292.571 85.7222 293.538 85.5903C294.504 85.4585 295.449 85.2681 296.372 85.019C296.431 84.9897 296.533 84.9751 296.68 84.9751C297.002 84.9751 297.266 85.0923 297.471 85.3267C297.69 85.5464 297.8 85.8027 297.8 86.0957ZM328.694 94.7749C328.694 94.8188 328.701 94.8774 328.716 94.9507C328.73 95.0093 328.738 95.0752 328.738 95.1484C328.738 95.4561 328.613 95.7271 328.364 95.9614C328.13 96.1958 327.866 96.313 327.573 96.313C327.339 96.313 327.119 96.2397 326.914 96.0933C326.724 95.9468 326.584 95.749 326.497 95.5C326.306 94.9434 326.123 94.3501 325.947 93.7202C325.771 93.0757 325.61 92.4458 325.464 91.8306C325.332 91.2153 325.208 90.6367 325.09 90.0947C324.973 89.5527 324.885 89.0913 324.827 88.7104C323.992 88.7544 323.04 88.791 321.97 88.8203C320.901 88.835 319.751 88.8423 318.521 88.8423L317.795 115.979C318.997 116.022 320.154 116.11 321.267 116.242C321.589 116.271 321.838 116.396 322.014 116.616C322.205 116.821 322.3 117.07 322.3 117.363C322.3 117.729 322.175 118.015 321.926 118.22C321.692 118.439 321.443 118.549 321.179 118.549H321.047C319.861 118.403 318.689 118.3 317.532 118.242C316.375 118.198 315.217 118.176 314.06 118.176C312.888 118.176 311.738 118.198 310.61 118.242C309.482 118.3 308.354 118.403 307.227 118.549H307.095C306.772 118.549 306.494 118.425 306.26 118.176C306.04 117.927 305.93 117.656 305.93 117.363C305.93 117.07 306.025 116.821 306.216 116.616C306.421 116.396 306.67 116.271 306.963 116.242C308.091 116.11 309.197 116.022 310.281 115.979L310.786 88.7104C309.541 88.6665 308.369 88.6152 307.271 88.5566C306.187 88.4834 305.212 88.4102 304.348 88.3369C304.26 88.7324 304.15 89.2158 304.019 89.7871C303.901 90.3584 303.762 90.9663 303.601 91.6108C303.455 92.2554 303.301 92.9146 303.14 93.5884C302.979 94.2476 302.81 94.8701 302.634 95.4561C302.561 95.7051 302.422 95.9102 302.217 96.0713C302.026 96.2324 301.807 96.313 301.558 96.313C301.221 96.313 300.942 96.1958 300.723 95.9614C300.503 95.7124 300.393 95.4414 300.393 95.1484C300.393 95.1045 300.393 95.0532 300.393 94.9946C300.393 94.9214 300.408 94.8628 300.437 94.8188C300.657 94.0425 300.876 93.1929 301.096 92.27C301.316 91.3472 301.514 90.4829 301.689 89.6772C301.88 88.8716 302.034 88.1978 302.151 87.6558C302.268 87.1138 302.327 86.8354 302.327 86.8208C302.4 86.5425 302.532 86.3228 302.722 86.1616C302.927 86.0005 303.169 85.9199 303.447 85.9199H303.623C304.385 86.0225 305.308 86.1104 306.392 86.1836C307.49 86.2568 308.669 86.3228 309.929 86.3813C311.204 86.4253 312.522 86.4619 313.884 86.4912C315.247 86.5205 316.58 86.5352 317.883 86.5352C319.48 86.5352 320.952 86.5205 322.3 86.4912C323.647 86.4473 324.775 86.3887 325.684 86.3154H325.771C326.035 86.3154 326.277 86.4106 326.497 86.6011C326.716 86.7769 326.848 86.9966 326.892 87.2603C326.892 87.2749 326.914 87.3994 326.958 87.6338C327.002 87.8682 327.061 88.1831 327.134 88.5786C327.207 88.9741 327.295 89.4282 327.397 89.9409C327.515 90.4536 327.639 90.9883 327.771 91.5449C327.903 92.0869 328.042 92.6436 328.188 93.2148C328.35 93.7715 328.518 94.2915 328.694 94.7749ZM356.423 117.407C356.379 117.7 356.248 117.934 356.028 118.11C355.808 118.3 355.552 118.396 355.259 118.396H355.215C351.274 118.132 347.429 118 343.679 118C339.871 118 336.201 118.132 332.671 118.396H332.561C332.224 118.366 331.946 118.249 331.726 118.044C331.506 117.839 331.396 117.568 331.396 117.231C331.396 116.938 331.499 116.689 331.704 116.484C331.909 116.264 332.166 116.14 332.473 116.11C332.942 116.066 333.411 116.037 333.879 116.022C334.363 115.993 334.839 115.964 335.308 115.935V89.1499C334.839 89.1206 334.37 89.106 333.901 89.106C333.447 89.106 332.986 89.106 332.517 89.106C332.209 89.0767 331.946 88.9595 331.726 88.7544C331.506 88.5347 331.396 88.2637 331.396 87.9414C331.396 87.6191 331.514 87.3481 331.748 87.1284C331.982 86.894 332.253 86.7769 332.561 86.7769C333.118 86.8062 333.652 86.8208 334.165 86.8208C334.692 86.8208 335.212 86.8208 335.725 86.8208C338.845 86.8208 341.936 86.7183 344.998 86.5132C348.059 86.3081 351.113 86.0005 354.16 85.5903H354.358C354.651 85.5903 354.9 85.6929 355.105 85.8979C355.31 86.0884 355.435 86.3154 355.479 86.5791L356.423 94.0059V94.1597C356.423 94.4966 356.299 94.7676 356.05 94.9727C355.815 95.1777 355.552 95.2803 355.259 95.2803C354.98 95.2803 354.731 95.1924 354.512 95.0166C354.307 94.8262 354.175 94.5845 354.116 94.2915L353.325 88.0293C351.626 88.2637 349.919 88.4541 348.206 88.6006C346.506 88.7324 344.792 88.8423 343.064 88.9302V103.41C343.416 103.396 343.884 103.374 344.47 103.344C345.056 103.315 345.686 103.271 346.36 103.212C347.048 103.154 347.744 103.088 348.447 103.015C349.165 102.927 349.832 102.824 350.447 102.707H350.667C350.974 102.707 351.245 102.824 351.479 103.059C351.714 103.278 351.831 103.535 351.831 103.828C351.831 104.121 351.743 104.37 351.567 104.575C351.392 104.78 351.165 104.919 350.886 104.992C350.212 105.124 349.487 105.234 348.711 105.322C347.949 105.41 347.202 105.483 346.47 105.542C345.752 105.585 345.093 105.622 344.492 105.651C343.892 105.681 343.416 105.703 343.064 105.717V115.715H343.679C345.422 115.715 347.173 115.737 348.931 115.781C350.703 115.825 352.483 115.905 354.27 116.022L355.061 110.134C355.12 109.841 355.251 109.606 355.457 109.431C355.676 109.24 355.925 109.145 356.204 109.145C356.555 109.145 356.833 109.27 357.039 109.519C357.258 109.768 357.368 110.017 357.368 110.266V110.441L356.423 117.407ZM388.701 95.5C388.701 94.4746 388.533 93.5811 388.196 92.8193C387.859 92.043 387.383 91.3765 386.768 90.8198C386.167 90.2632 385.442 89.8091 384.592 89.4575C383.743 89.0913 382.812 88.8057 381.802 88.6006C380.791 88.3809 379.707 88.2344 378.55 88.1611C377.407 88.0732 376.228 88.0293 375.012 88.0293C374.675 88.0293 374.368 88.0293 374.089 88.0293C373.811 88.0293 373.547 88.0439 373.298 88.0732L372.903 103.015C373.459 103.132 374.067 103.212 374.727 103.256C375.386 103.3 376.067 103.322 376.77 103.322C377.634 103.322 378.528 103.271 379.451 103.168C380.374 103.066 381.274 102.897 382.153 102.663C383.047 102.429 383.889 102.121 384.68 101.74C385.471 101.345 386.16 100.861 386.746 100.29C387.346 99.7041 387.822 99.0156 388.174 98.2246C388.525 97.4336 388.701 96.5254 388.701 95.5ZM392.349 109.409C392.349 109.438 392.356 109.519 392.371 109.65C392.385 109.768 392.393 109.943 392.393 110.178C392.393 111.364 392.209 112.463 391.843 113.474C391.492 114.484 390.986 115.356 390.327 116.088C389.668 116.806 388.87 117.37 387.932 117.78C386.995 118.19 385.947 118.396 384.79 118.396H384.724C383.655 118.366 382.71 118.19 381.89 117.868C381.084 117.546 380.374 117.121 379.758 116.594C379.158 116.052 378.652 115.422 378.242 114.704C377.832 113.986 377.502 113.217 377.253 112.397C377.004 111.562 376.821 110.698 376.704 109.804C376.602 108.911 376.55 108.024 376.55 107.146C376.55 106.882 376.558 106.625 376.572 106.376C376.587 106.113 376.594 105.878 376.594 105.673C375.935 105.673 375.291 105.644 374.661 105.585C374.045 105.527 373.445 105.454 372.859 105.366L372.529 116.748C372.529 117.099 372.412 117.377 372.178 117.583C371.958 117.773 371.687 117.868 371.365 117.868C371.35 117.868 371.05 117.875 370.464 117.89C369.893 117.89 369.153 117.905 368.245 117.934C367.336 117.963 366.333 118.015 365.234 118.088C364.136 118.161 363.059 118.264 362.004 118.396H361.873C361.536 118.396 361.257 118.278 361.038 118.044C360.818 117.824 360.708 117.568 360.708 117.275C360.708 116.982 360.796 116.726 360.972 116.506C361.162 116.286 361.404 116.154 361.697 116.11C362.239 116.037 362.788 115.979 363.345 115.935C363.916 115.891 364.473 115.847 365.015 115.803L365.52 88.7104C364.436 88.8862 363.616 89.04 363.059 89.1719C362.502 89.3037 362.209 89.3696 362.18 89.3696C362.078 89.4429 361.975 89.4795 361.873 89.4795C361.536 89.4795 361.257 89.3623 361.038 89.1279C360.818 88.8936 360.708 88.6152 360.708 88.293C360.708 88.0439 360.781 87.8242 360.928 87.6338C361.074 87.4287 361.272 87.2896 361.521 87.2163C361.565 87.2017 361.873 87.1138 362.444 86.9526C363.015 86.7915 363.857 86.623 364.971 86.4473C366.099 86.2715 367.49 86.1104 369.146 85.9639C370.815 85.8174 372.771 85.7441 375.012 85.7441C376.448 85.8174 377.832 85.9199 379.165 86.0518C380.513 86.1836 381.78 86.3887 382.966 86.667C384.153 86.9307 385.237 87.2896 386.218 87.7437C387.2 88.1831 388.042 88.7544 388.745 89.4575C389.463 90.1606 390.012 91.0103 390.393 92.0063C390.789 92.9878 390.986 94.1523 390.986 95.5C390.986 96.5693 390.818 97.5801 390.481 98.5322C390.159 99.4697 389.705 100.327 389.119 101.103C388.533 101.865 387.822 102.531 386.987 103.103C386.167 103.659 385.266 104.099 384.285 104.421C384.255 104.758 384.233 105.102 384.219 105.454C384.204 105.805 384.197 106.164 384.197 106.53C384.197 106.838 384.204 107.27 384.219 107.827C384.233 108.383 384.27 108.991 384.329 109.65C384.387 110.31 384.475 110.983 384.592 111.672C384.724 112.36 384.893 112.99 385.098 113.562C385.317 114.118 385.588 114.58 385.911 114.946C386.233 115.297 386.621 115.473 387.075 115.473C387.661 115.473 388.145 115.275 388.525 114.88C388.906 114.484 389.214 114.008 389.448 113.452C389.683 112.88 389.844 112.294 389.932 111.694C390.034 111.093 390.085 110.588 390.085 110.178C390.085 110.017 390.078 109.885 390.063 109.782C390.049 109.68 390.042 109.584 390.042 109.497C390.042 109.16 390.159 108.889 390.393 108.684C390.642 108.479 390.913 108.376 391.206 108.376C391.499 108.376 391.755 108.479 391.975 108.684C392.195 108.874 392.319 109.116 392.349 109.409Z" fill="#FFF7F6"/>
<path d="M441.5 137.382C440.554 137.382 439.763 137.058 439.128 136.409C438.488 135.764 438.169 134.961 438.169 134C438.169 133.039 438.488 132.236 439.128 131.591C439.763 130.942 440.554 130.617 441.5 130.617C442.446 130.617 443.237 130.942 443.873 131.591C444.512 132.236 444.831 133.039 444.831 134C444.831 134.961 444.512 135.764 443.873 136.409C443.237 137.058 442.446 137.382 441.5 137.382ZM506.5 137.382C505.554 137.382 504.763 137.058 504.128 136.409C503.488 135.764 503.169 134.961 503.169 134C503.169 133.039 503.488 132.236 504.128 131.591C504.763 130.942 505.554 130.617 506.5 130.617C507.446 130.617 508.237 130.942 508.873 131.591C509.512 132.236 509.831 133.039 509.831 134C509.831 134.961 509.512 135.764 508.873 136.409C508.237 137.058 507.446 137.382 506.5 137.382ZM457.75 159.382C456.804 159.382 456.013 159.058 455.378 158.409C454.738 157.764 454.419 156.961 454.419 156C454.419 155.039 454.738 154.236 455.378 153.591C456.013 152.942 456.804 152.617 457.75 152.617C458.696 152.617 459.487 152.942 460.123 153.591C460.762 154.236 461.081 155.039 461.081 156C461.081 156.961 460.762 157.764 460.123 158.409C459.487 159.058 458.696 159.382 457.75 159.382ZM474 137.382C473.054 137.382 472.263 137.058 471.628 136.409C470.988 135.764 470.669 134.961 470.669 134C470.669 133.039 470.988 132.236 471.628 131.591C472.263 130.942 473.054 130.617 474 130.617C474.946 130.617 475.737 130.942 476.373 131.591C477.012 132.236 477.331 133.039 477.331 134C477.331 134.961 477.012 135.764 476.373 136.409C475.737 137.058 474.946 137.382 474 137.382ZM490.25 159.382C489.304 159.382 488.513 159.058 487.878 158.409C487.238 157.764 486.919 156.961 486.919 156C486.919 155.039 487.238 154.236 487.878 153.591C488.513 152.942 489.304 152.617 490.25 152.617C491.196 152.617 491.987 152.942 492.623 153.591C493.262 154.236 493.581 155.039 493.581 156C493.581 156.961 493.262 157.764 492.623 158.409C491.987 159.058 491.196 159.382 490.25 159.382ZM449.625 120.25C442.103 120.25 435.71 117.575 430.445 112.225C425.176 106.879 422.542 100.388 422.542 92.75C422.542 85.6367 424.903 79.484 429.627 74.292C434.346 69.1073 440.26 66.1153 447.366 65.316C450.053 60.157 453.725 56.1053 458.384 53.161C463.042 50.2203 468.235 48.75 473.962 48.75C481.762 48.75 488.457 51.368 494.047 56.604C499.634 61.84 502.884 68.3648 503.797 76.1785C510.445 76.5855 515.717 78.9322 519.614 83.2185C523.51 87.5085 525.458 92.53 525.458 98.283C525.458 104.359 523.351 109.54 519.137 113.826C514.927 118.109 509.811 120.25 503.792 120.25H449.625ZM449.625 114.75H503.792C508.277 114.75 512.106 113.138 515.281 109.915C518.455 106.692 520.042 102.804 520.042 98.25C520.042 93.696 518.455 89.8075 515.281 86.5845C512.106 83.3615 508.277 81.75 503.792 81.75H498.375V79C498.375 72.1947 495.986 66.3683 491.209 61.521C486.431 56.6737 480.69 54.25 473.984 54.25C469.109 54.25 464.665 55.5938 460.653 58.2815C456.645 60.9728 453.624 64.5937 451.591 69.144L450.952 70.75H449.354C443.461 70.959 438.423 73.1847 434.242 77.427C430.053 81.6693 427.958 86.777 427.958 92.75C427.958 98.8257 430.073 104.012 434.301 108.309C438.53 112.607 443.638 114.754 449.625 114.75Z" fill="white"/>
</svg>
